SplineFontDB: 3.0
FontName: Merriweather-Italic
FullName: Merriweather Italic
FamilyName: Merriweather
Weight: Book
Copyright: Copyright (c) 2013, Sorkin Type Co (www.sorkintype.com) with Reserved Font Name 'Merriweather'
Version: 1.001
ItalicAngle: -7
UnderlinePosition: -120
UnderlineWidth: 147
Ascent: 1638
Descent: 410
LayerCount: 2
Layer: 0 1 "Back"  1
Layer: 1 1 "Fore"  0
NeedsXUIDChange: 1
XUID: [1021 631 1661839179 3089818]
FSType: 0
OS2Version: 3
OS2_WeightWidthSlopeOnly: 0
OS2_UseTypoMetrics: 1
CreationTime: 1361943000
ModificationTime: 1364624354
PfmFamily: 17
TTFWeight: 400
TTFWidth: 5
LineGap: 0
VLineGap: 0
Panose: 2 0 5 3 5 0 0 9 0 4
OS2TypoAscent: 376
OS2TypoAOffset: 1
OS2TypoDescent: -150
OS2TypoDOffset: 1
OS2TypoLinegap: 0
OS2WinAscent: 12
OS2WinAOffset: 1
OS2WinDescent: 0
OS2WinDOffset: 1
HheadAscent: 12
HheadAOffset: 1
HheadDescent: 0
HheadDOffset: 1
OS2SubXSize: 1331
OS2SubYSize: 1229
OS2SubXOff: 0
OS2SubYOff: 154
OS2SupXSize: 1331
OS2SupYSize: 1229
OS2SupXOff: 0
OS2SupYOff: 717
OS2StrikeYSize: 102
OS2StrikeYPos: 512
OS2FamilyClass: 512
OS2Vendor: 'STC '
OS2CodePages: 20000093.00000000
OS2UnicodeRanges: a00000af.5000204a.00000000.00000000
Lookup: 1 0 0 "'aalt' Access All Alternates in Latin lookup 0"  {"'aalt' Access All Alternates in Latin lookup 0 subtable"  } ['aalt' ('DFLT' <'dflt' > 'latn' <'AZE ' 'CRT ' 'MOL ' 'ROM ' 'TRK ' 'dflt' > ) ]
Lookup: 3 0 0 "'aalt' Access All Alternates in Latin lookup 1"  {"'aalt' Access All Alternates in Latin lookup 1 subtable"  } ['aalt' ('DFLT' <'dflt' > 'latn' <'AZE ' 'CRT ' 'MOL ' 'ROM ' 'TRK ' 'dflt' > ) ]
Lookup: 1 0 0 "'locl' Localized Forms lookup 2"  {"'locl' Localized Forms lookup 2 subtable"  } ['locl' ('DFLT' <'AZE ' > ) ]
Lookup: 1 0 0 "'locl' Localized Forms lookup 3"  {"'locl' Localized Forms lookup 3 subtable"  } ['locl' ('DFLT' <'TRK ' > ) ]
Lookup: 4 0 0 "'locl' Localized Forms lookup 4"  {"'locl' Localized Forms lookup 4 subtable"  } ['locl' ('DFLT' <'TRK ' > ) ]

StartChar: .notdef
Encoding: 65536 -1 0
Width: 1872
Flags: HW
LayerCount: 2
Fore
SplineSet
228 1416 m 1,0,-1
 1644 1416 l 1,1,-1
 1644 0 l 1,2,-1
 228 0 l 1,3,-1
 228 1416 l 1,0,-1
586 219 m 1,4,-1
 933 587 l 1,5,-1
 1295 219 l 1,6,-1
 1417 341 l 1,7,-1
 1054 709 l 1,8,-1
 1417 1067 l 1,9,-1
 1289 1191 l 1,10,-1
 937 825 l 1,11,-1
 580 1193 l 1,12,-1
 457 1068 l 1,13,-1
 816 705 l 1,14,-1
 458 363 l 1,15,-1
 586 219 l 1,4,-1
EndSplineSet
EndChar

StartChar: numbersign
Encoding: 35 35 2
Width: 1405
Flags: HW
LayerCount: 2
Fore
SplineSet
325 365 m 1,0,-1
 111 365 l 1,1,-1
 119 493 l 1,2,-1
 345 493 l 1,3,-1
 409 898 l 1,4,-1
 189 898 l 1,5,-1
 197 1025 l 1,6,-1
 429 1025 l 1,7,-1
 482 1357 l 1,8,-1
 647 1357 l 1,9,-1
 596 1025 l 1,10,-1
 907 1025 l 1,11,-1
 963 1357 l 1,12,-1
 1128 1357 l 1,13,-1
 1074 1025 l 1,14,-1
 1306 1025 l 1,15,-1
 1298 898 l 1,16,-1
 1054 898 l 1,17,-1
 989 493 l 1,18,-1
 1216 493 l 1,19,-1
 1208 365 l 1,20,-1
 969 365 l 1,21,-1
 912 0 l 1,22,-1
 752 0 l 1,23,-1
 803 365 l 1,24,-1
 491 365 l 1,25,-1
 429 0 l 1,26,-1
 267 0 l 1,27,-1
 325 365 l 1,0,-1
823 493 m 1,28,-1
 887 898 l 1,29,-1
 576 898 l 1,30,-1
 511 493 l 1,31,-1
 823 493 l 1,28,-1
EndSplineSet
EndChar

StartChar: ampersand
Encoding: 38 38 3
Width: 1534
Flags: HW
LayerCount: 2
Fore
SplineSet
944 63 m 1,0,1
 777.846 -17 777.846 -17 564 -17 c 0,2,3
 353.075 -17 353.075 -17 211 73.5 c 0,4,5
 49 176.692 49 176.692 49 368 c 0,6,7
 49 565.992 49 565.992 266.5 703 c 0,8,9
 330 743 330 743 399 780 c 1,10,11
 310 987.667 310 987.667 310 1151 c 0,12,13
 310 1328.81 310 1328.81 441.5 1440 c 0,14,15
 570.413 1549 570.413 1549 763 1549 c 0,16,17
 934.861 1549 934.861 1549 1020 1460.5 c 0,18,19
 1090 1387.74 1090 1387.74 1090 1270 c 0,20,21
 1090 1111.94 1090 1111.94 933 985 c 0,22,23
 848.054 916.32 848.054 916.32 754.527 865.16 c 2,24,-1
 604 781 l 1,25,26
 795.905 440.315 795.905 440.315 1020 244 c 1,27,28
 1084 340 1084 340 1084 542 c 0,29,30
 1084 619.6 1084 619.6 1061 684 c 1,31,-1
 1021 685 l 1,32,33
 948 685 948 685 872 647 c 1,34,-1
 872 781 l 1,35,36
 921 830 921 830 1027 830 c 0,37,38
 1055 830 1055 830 1084.5 826 c 2,39,-1
 1145 817.5 l 2,40,41
 1224.22 806 1224.22 806 1269.11 806 c 128,-1,42
 1314 806 1314 806 1345.5 814 c 128,-1,43
 1377 822 1377 822 1401 841 c 0,44,45
 1450.66 880.311 1450.66 880.311 1464 968 c 1,46,-1
 1540 968 l 1,47,48
 1535.58 654.004 1535.58 654.004 1315 654 c 0,49,50
 1287 654 1287 654 1259 658 c 1,51,52
 1265 626 1265 626 1265 586 c 0,53,54
 1265 333.909 1265 333.909 1104 175 c 1,55,56
 1148 142 1148 142 1195 119 c 1,57,58
 1282.58 86.1565 1282.58 86.1565 1371 84 c 1,59,-1
 1360 -1 l 1,60,61
 1275.86 -20 1275.86 -20 1183 -20 c 0,62,63
 1050.71 -20 1050.71 -20 944 63 c 1,0,1
894 1249 m 0,64,65
 894 1446 894 1446 737 1446 c 0,66,67
 623.75 1446 623.75 1446 555.5 1368 c 0,68,69
 490 1293.14 490 1293.14 490 1177 c 0,70,71
 490 1015.92 490 1015.92 561 863 c 1,72,73
 718.031 945.031 718.031 945.031 779.016 1006.02 c 128,-1,74
 840 1067 840 1067 867 1122.5 c 128,-1,75
 894 1178 894 1178 894 1249 c 0,64,65
267.5 465 m 128,-1,77
 253 422 253 422 253 360.5 c 128,-1,78
 253 299 253 299 280.5 246 c 128,-1,79
 308 193 308 193 353.5 159 c 0,80,81
 441.824 93 441.824 93 582 93 c 0,82,83
 759 93 759 93 867 131 c 1,84,85
 667.921 315.332 667.921 315.332 532 543 c 2,86,-1
 449 683 l 1,87,88
 354.388 613.167 354.388 613.167 318.194 560.584 c 128,-1,76
 282 508 282 508 267.5 465 c 128,-1,77
EndSplineSet
EndChar

StartChar: quotesingle
Encoding: 39 39 4
Width: 524
Flags: HW
LayerCount: 2
Fore
SplineSet
320 1687 m 1,0,-1
 547 1687 l 1,1,-1
 383 966 l 1,2,-1
 243 966 l 1,3,-1
 320 1687 l 1,0,-1
EndSplineSet
EndChar

StartChar: parenleft
Encoding: 40 40 5
Width: 854
Flags: HW
LayerCount: 2
Fore
SplineSet
223 269.5 m 0,0,1
 203 377 203 377 203 492.5 c 128,-1,2
 203 608 203 608 220 738 c 128,-1,3
 237 868 237 868 283 996 c 128,-1,4
 329 1124 329 1124 388.5 1232.5 c 128,-1,5
 448 1341 448 1341 515 1429 c 128,-1,6
 582 1517 582 1517 643 1582 c 0,7,8
 759.061 1705.67 759.061 1705.67 827 1741 c 1,9,-1
 914 1682 l 1,10,11
 812.023 1614.02 812.023 1614.02 675.5 1404.5 c 0,12,13
 492.59 1123.8 492.59 1123.8 431 773 c 1,14,15
 411 618 411 618 411 510 c 128,-1,16
 411 402 411 402 425 306.5 c 128,-1,17
 439 211 439 211 461.5 130.5 c 128,-1,18
 484 50 484 50 512.5 -14.5 c 128,-1,19
 541 -79 541 -79 569.5 -127.5 c 0,20,21
 621.798 -216.498 621.798 -216.498 668 -255 c 1,22,-1
 560 -319 l 1,23,-1
 543 -319 l 1,24,25
 439.691 -244.388 439.691 -244.388 345 -80.5 c 0,26,27
 261.1 64.7111 261.1 64.7111 223 269.5 c 0,0,1
EndSplineSet
EndChar

StartChar: asterisk
Encoding: 42 42 7
Width: 1366
Flags: HW
LayerCount: 2
Fore
SplineSet
278 982 m 1,0,-1
 601 1112 l 1,1,-1
 715 1150 l 1,2,-1
 609 1188 l 1,3,-1
 312 1318 l 1,4,-1
 427 1484 l 1,5,-1
 672 1281 l 1,6,-1
 752 1205 l 1,7,-1
 741 1319 l 1,8,-1
 734 1653 l 1,9,-1
 926 1652 l 1,10,-1
 849 1319 l 1,11,-1
 815 1205 l 1,12,-1
 911 1281 l 1,13,-1
 1201 1485 l 1,14,-1
 1278 1318 l 1,15,-1
 955 1188 l 1,16,-1
 841 1149 l 1,17,-1
 947 1112 l 1,18,-1
 1244 982 l 1,19,-1
 1129 816 l 1,20,-1
 884 1019 l 1,21,-1
 803 1097 l 1,22,-1
 814 981 l 1,23,-1
 821 647 l 1,24,-1
 629 648 l 1,25,-1
 706 981 l 1,26,-1
 740 1097 l 1,27,-1
 645 1019 l 1,28,-1
 355 815 l 1,29,-1
 278 982 l 1,0,-1
EndSplineSet
EndChar

StartChar: plus
Encoding: 43 43 8
Width: 1366
Flags: HW
LayerCount: 2
Fore
SplineSet
592 536 m 1,0,-1
 618 700 l 1,1,-1
 477 693 l 1,2,-1
 252 693 l 1,3,-1
 270 851 l 1,4,-1
 496 851 l 1,5,-1
 634 840 l 1,6,-1
 647 1005 l 1,7,-1
 674 1235 l 1,8,-1
 852 1235 l 1,9,-1
 826 1005 l 1,10,-1
 797 841 l 1,11,-1
 912 851 l 1,12,-1
 1167 851 l 1,13,-1
 1149 693 l 1,14,-1
 894 693 l 1,15,-1
 782 700 l 1,16,17
 780 658 780 658 777 618 c 128,-1,18
 774 578 774 578 772 536 c 1,19,-1
 744 295 l 1,20,-1
 565 295 l 1,21,-1
 592 536 l 1,0,-1
EndSplineSet
EndChar

StartChar: comma
Encoding: 44 44 9
Width: 526
Flags: HW
LayerCount: 2
Fore
SplineSet
72 132 m 1,0,-1
 186 265 l 1,1,2
 378 217.842 378 217.842 378 -4 c 0,3,4
 378 -168.596 378 -168.596 272.5 -305 c 0,5,6
 169.641 -437.989 169.641 -437.989 5 -501 c 1,7,-1
 -38 -432 l 1,8,-1
 -35 -411 l 1,9,10
 46.2431 -375.332 46.2431 -375.332 111.5 -278 c 0,11,12
 176 -181.797 176 -181.797 176 -88 c 0,13,14
 176 -20.7097 176 -20.7097 151.5 15.6452 c 0,15,16
 108.156 79.9616 108.156 79.9616 65 78 c 1,17,-1
 72 132 l 1,0,-1
EndSplineSet
EndChar

StartChar: period
Encoding: 46 46 10
Width: 526
Flags: HW
LayerCount: 2
Fore
SplineSet
112 11 m 128,-1,1
 97 27 97 27 91.2727 46.2273 c 128,-1,2
 85.5455 65.4545 85.5455 65.4545 85.5455 94.6489 c 128,-1,3
 85.5455 123.843 85.5455 123.843 102.773 155.922 c 128,-1,4
 120 188 120 188 142 207.5 c 0,5,6
 189.949 250 189.949 250 235.474 250 c 128,-1,7
 281 250 281 250 305.5 240 c 0,8,9
 366.125 215.255 366.125 215.255 366.125 143.469 c 0,10,11
 366.125 67.6685 366.125 67.6685 306 18 c 0,12,13
 257.579 -22 257.579 -22 213.789 -22 c 128,-1,14
 170 -22 170 -22 148.5 -13.5 c 128,-1,0
 127 -5 127 -5 112 11 c 128,-1,1
EndSplineSet
EndChar

StartChar: slash
Encoding: 47 47 11
Width: 854
Flags: HW
LayerCount: 2
Fore
SplineSet
-132 -362 m 1,0,-1
 729 1597 l 1,1,-1
 903 1597 l 1,2,-1
 40 -362 l 1,3,-1
 -132 -362 l 1,0,-1
EndSplineSet
EndChar

StartChar: zero
Encoding: 48 48 12
Width: 1278
Flags: HW
LayerCount: 2
Fore
SplineSet
744 1162 m 0,0,1
 1175 1162 1175 1162 1175 697 c 0,2,3
 1175 556 1175 556 1128 427 c 128,-1,4
 1081 298 1081 298 997 199.5 c 128,-1,5
 913 101 913 101 798.5 42.5 c 128,-1,6
 684 -16 684 -16 557.5 -16 c 128,-1,7
 431 -16 431 -16 348 21.5 c 128,-1,8
 265 59 265 59 213 122.5 c 0,9,10
 113 244.615 113 244.615 113 450 c 0,11,12
 113 750.655 113 750.655 300 957 c 0,13,14
 417.14 1086.26 417.14 1086.26 578.5 1137 c 0,15,16
 658 1162 658 1162 744 1162 c 0,0,1
340 457 m 0,17,18
 340 391 340 391 353 324 c 128,-1,19
 366 257 366 257 394 206.5 c 0,20,21
 455.325 95.8963 455.325 95.8963 571 94 c 1,22,23
 590.525 91.2542 590.525 91.2542 620.924 91.2542 c 128,-1,24
 651.322 91.2542 651.322 91.2542 696.661 108.627 c 128,-1,25
 742 126 742 126 783.5 168.5 c 128,-1,26
 825 211 825 211 856 270 c 128,-1,27
 887 329 887 329 907.5 397 c 0,28,29
 948 531.341 948 531.341 948 646.171 c 128,-1,30
 948 761 948 761 935 829.5 c 128,-1,31
 922 898 922 898 894 947.5 c 0,32,33
 834.303 1053.04 834.303 1053.04 711.736 1053.04 c 0,34,35
 577.424 1053.04 577.424 1053.04 487 954 c 0,36,37
 340 793 340 793 340 457 c 0,17,18
EndSplineSet
EndChar

StartChar: one
Encoding: 49 49 13
Width: 930
Flags: HW
LayerCount: 2
Fore
SplineSet
430 916 m 1,0,1
 293.923 883.154 293.923 883.154 179 864 c 1,2,-1
 165 960 l 1,3,4
 314.32 994.458 314.32 994.458 491 1104 c 1,5,-1
 581 1162 l 1,6,-1
 665 1142 l 1,7,-1
 521 113 l 1,8,-1
 734 87 l 1,9,-1
 724 0 l 1,10,-1
 111 0 l 1,11,-1
 121 87 l 1,12,-1
 319 112 l 1,13,-1
 430 916 l 1,0,1
EndSplineSet
Substitution2: "'sups' Superscript in Latin lookup 11 subtable" onesuperior
EndChar

StartChar: two
Encoding: 50 50 14
Width: 1249
Flags: HW
LayerCount: 2
Fore
SplineSet
78 79 m 1,0,1
 298.429 188.078 298.429 188.078 412.715 267.039 c 128,-1,2
 527 346 527 346 596.5 406 c 128,-1,3
 666 466 666 466 716 528.5 c 0,4,5
 822 661 822 661 822 780.5 c 128,-1,6
 822 900 822 900 766.5 963 c 128,-1,7
 711 1026 711 1026 605 1026 c 0,8,9
 472.906 1026 472.906 1026 325 925.5 c 0,10,11
 286 899 286 899 258 875 c 1,12,-1
 205 964 l 1,13,14
 323.519 1090.42 323.519 1090.42 520 1143 c 0,15,16
 591 1162 591 1162 679.5 1162 c 128,-1,17
 768 1162 768 1162 838.5 1134 c 128,-1,18
 909 1106 909 1106 954.5 1059.5 c 0,19,20
 1043 969.055 1043 969.055 1043 826 c 0,21,22
 1043 581.429 1043 581.429 684 325 c 0,23,24
 539.333 221.667 539.333 221.667 346 125 c 1,25,-1
 910 163 l 1,26,-1
 1006 311 l 1,27,-1
 1107 275 l 1,28,-1
 1028 0 l 1,29,-1
 95 0 l 1,30,-1
 78 79 l 1,0,1
EndSplineSet
Substitution2: "'sups' Superscript in Latin lookup 11 subtable" twosuperior
EndChar

StartChar: three
Encoding: 51 51 15
Width: 1104
Flags: HW
LayerCount: 2
Fore
SplineSet
58 -201 m 1,0,1
 132 -211 132 -211 208 -211 c 128,-1,2
 284 -211 284 -211 376 -188 c 128,-1,3
 468 -165 468 -165 539 -119.5 c 0,4,5
 697 -18.2465 697 -18.2465 697 149 c 0,6,7
 697 401.342 697 401.342 419 405 c 1,8,-1
 277 371 l 1,9,-1
 292 488 l 1,10,11
 449.059 519.412 449.059 519.412 573 603 c 0,12,13
 719 701.465 719 701.465 719 842 c 0,14,15
 719 1023 719 1023 526 1023 c 0,16,17
 396.652 1023 396.652 1023 273 944 c 0,18,19
 237 921 237 921 204 897 c 1,20,-1
 161 998 l 1,21,22
 267.54 1100.28 267.54 1100.28 463.5 1145.5 c 0,23,24
 535 1162 535 1162 607 1162 c 128,-1,25
 679 1162 679 1162 738 1145.5 c 128,-1,26
 797 1129 797 1129 842.5 1095 c 0,27,28
 942 1020.65 942 1020.65 942 881 c 0,29,30
 942 752 942 752 827 637 c 0,31,32
 724.267 534.267 724.267 534.267 574 482 c 1,33,34
 750.81 482 750.81 482 845 390 c 0,35,36
 928 308.93 928 308.93 928 176 c 0,37,38
 928 29.7843 928 29.7843 818 -91 c 0,39,40
 665 -259 665 -259 379 -311 c 0,41,42
 291 -327 291 -327 229.5 -327 c 0,43,44
 136 -327 136 -327 44 -315 c 1,45,-1
 58 -201 l 1,0,1
EndSplineSet
Substitution2: "'sups' Superscript in Latin lookup 11 subtable" threesuperior
EndChar

StartChar: four
Encoding: 52 52 16
Width: 1264
Flags: HW
LayerCount: 2
Fore
SplineSet
26 94 m 1,0,1
 202 366 l 1,2,-1
 372 642 l 1,3,-1
 544.5 934 l 1,4,-1
 728 1256 l 1,5,-1
 835 1256 l 1,6,-1
 917 1167 l 1,7,-1
 300 219 l 1,8,-1
 221 120 l 1,9,-1
 697 148 l 1,10,-1
 755 591 l 1,11,-1
 948 649 l 1,12,-1
 885 159 l 1,13,-1
 1136 174 l 1,14,-1
 1115 0 l 1,15,-1
 865 0 l 1,16,-1
 818 -375 l 1,17,-1
 629 -375 l 1,18,-1
 678 0 l 1,19,-1
 62 0 l 1,20,-1
 26 94 l 1,0,1
EndSplineSet
EndChar

StartChar: five
Encoding: 53 53 17
Width: 1116
Flags: HW
LayerCount: 2
Fore
SplineSet
59 -239 m 1,0,1
 93.5 -245 93.5 -245 171.75 -245 c 128,-1,2
 250 -245 250 -245 356 -215 c 128,-1,3
 462 -185 462 -185 544 -130.5 c 0,4,5
 726 -9.53658 726 -9.53658 726 170 c 0,6,7
 726 392.531 726 392.531 569 446.5 c 0,8,9
 521 463 521 463 440.5 463 c 128,-1,10
 360 463 360 463 201 410 c 1,11,-1
 153 448 l 1,12,-1
 324 1146 l 1,13,-1
 861 1146 l 1,14,-1
 883 1162 l 1,15,-1
 1051 1162 l 1,16,-1
 993 977 l 1,17,-1
 457 977 l 1,18,-1
 341 551 l 1,19,20
 444.571 580 444.571 580 547.286 580 c 128,-1,21
 650 580 650 580 724 555 c 128,-1,22
 798 530 798 530 849.5 480.5 c 0,23,24
 957 377.175 957 377.175 957 188 c 0,25,26
 957 45.8761 957 45.8761 835.5 -81 c 0,27,28
 721.94 -199.585 721.94 -199.585 540.5 -273 c 0,29,30
 360.086 -346 360.086 -346 176 -346 c 0,31,32
 97 -346 97 -346 46 -329 c 1,33,-1
 59 -239 l 1,0,1
EndSplineSet
EndChar

StartChar: six
Encoding: 54 54 18
Width: 1268
Flags: HW
LayerCount: 2
Fore
SplineSet
417 865 m 1,0,1
 547.952 975 547.952 975 758 975 c 0,2,3
 937.8 975 937.8 975 1033.5 859.5 c 0,4,5
 1117 758.724 1117 758.724 1117 601 c 0,6,7
 1117 369.571 1117 369.571 963 181 c 0,8,9
 798.85 -20 798.85 -20 555 -20 c 0,10,11
 356.303 -20 356.303 -20 245.5 122 c 0,12,13
 142 254.641 142 254.641 142 469 c 0,14,15
 142 831.699 142 831.699 385.5 1150 c 0,16,17
 539.619 1351.46 539.619 1351.46 764.5 1475.5 c 0,18,19
 876 1537 876 1537 999 1571 c 1,20,-1
 1028 1486 l 1,21,22
 808.601 1402.51 808.601 1402.51 644.5 1231 c 0,23,24
 488.899 1068.37 488.899 1068.37 417 865 c 1,0,1
376 683 m 1,25,26
 349 559.571 349 559.571 349 467.786 c 128,-1,27
 349 376 349 376 361 310.5 c 128,-1,28
 373 245 373 245 402.5 195.5 c 0,29,30
 466.566 88 466.566 88 601 88 c 0,31,32
 799.699 88 799.699 88 877.5 346.5 c 0,33,34
 908 447.839 908 447.839 908 537.419 c 128,-1,35
 908 627 908 627 892.5 683 c 128,-1,36
 877 739 877 739 850 776.5 c 0,37,38
 795.64 852 795.64 852 715.32 852 c 128,-1,39
 635 852 635 852 579.5 833 c 128,-1,40
 524 814 524 814 484.5 787.5 c 0,41,42
 430.754 751.443 430.754 751.443 376 683 c 1,25,26
EndSplineSet
EndChar

StartChar: seven
Encoding: 55 55 19
Width: 1096
Flags: HW
LayerCount: 2
Fore
SplineSet
856 1007 m 1,0,-1
 289 995 l 1,1,-1
 193 813 l 1,2,-1
 65 817 l 1,3,-1
 135 1146 l 1,4,-1
 1027 1146 l 1,5,-1
 1059 1103 l 1,6,-1
 456 -320 l 1,7,-1
 248 -254 l 1,8,-1
 856 1007 l 1,0,-1
EndSplineSet
EndChar

StartChar: eight
Encoding: 56 56 20
Width: 1270
Flags: HW
LayerCount: 2
Fore
SplineSet
801 797 m 1,0,1
 1071 610.455 1071 610.455 1071 388 c 0,2,3
 1071 198.944 1071 198.944 911 84.5 c 0,4,5
 764.903 -20 764.903 -20 555 -20 c 0,6,7
 381.64 -20 381.64 -20 261.5 64 c 0,8,9
 123 160.837 123 160.837 123 333 c 0,10,11
 123 608.028 123 608.028 500 807 c 1,12,13
 298 969.585 298 969.585 298 1158 c 0,14,15
 298 1346.89 298 1346.89 431 1452 c 0,16,17
 555 1550 555 1550 764 1550 c 0,18,19
 928.988 1550 928.988 1550 1032 1464.5 c 0,20,21
 1138 1376.52 1138 1376.52 1138 1227 c 0,22,23
 1138 986.562 1138 986.562 801 797 c 1,0,1
708 863 m 1,24,25
 872.411 937.146 872.411 937.146 924 1099.5 c 0,26,27
 941 1153 941 1153 941 1213 c 128,-1,28
 941 1273 941 1273 925.5 1318 c 128,-1,29
 910 1363 910 1363 883 1392.5 c 0,30,31
 829.458 1451 829.458 1451 742 1451 c 0,32,33
 636.292 1451 636.292 1451 562.5 1374 c 0,34,35
 488 1296.26 488 1296.26 488 1184 c 0,36,37
 488 1048.25 488 1048.25 622 931 c 0,38,39
 662 896 662 896 708 863 c 1,24,25
356 485.5 m 0,40,41
 336 429 336 429 335.5 367 c 128,-1,42
 335 305 335 305 352 253 c 128,-1,43
 369 201 369 201 401.5 164 c 0,44,45
 470.014 86 470.014 86 585 86 c 0,46,47
 705.778 86 705.778 86 786 162 c 0,48,49
 868 239.684 868 239.684 868 360 c 0,50,51
 868 557.446 868 557.446 586 744 c 1,52,53
 418.4 661.781 418.4 661.781 356 485.5 c 0,40,41
EndSplineSet
EndChar

StartChar: nine
Encoding: 57 57 21
Width: 1247
Flags: HW
LayerCount: 2
Fore
SplineSet
824 277 m 1,0,1
 698.2 166 698.2 166 482 166 c 0,2,3
 300.361 166 300.361 166 204.5 285 c 0,4,5
 122 387.414 122 387.414 122 550 c 0,6,7
 122 770.889 122 770.889 275.5 958.5 c 0,8,9
 377.749 1083.47 377.749 1083.47 525 1135.5 c 0,10,11
 600 1162 600 1162 694 1162 c 128,-1,12
 788 1162 788 1162 865 1124.5 c 128,-1,13
 942 1087 942 1087 994 1022.5 c 0,14,15
 1098 893.5 1098 893.5 1098 686 c 0,16,17
 1098 437.463 1098 437.463 985 201 c 0,18,19
 818.621 -147.163 818.621 -147.163 475 -336 c 0,20,21
 364 -397 364 -397 241 -431 c 1,22,-1
 212 -345 l 1,23,24
 426.431 -264.589 426.431 -264.589 594 -89.5 c 0,25,26
 748.775 72.2196 748.775 72.2196 824 277 c 1,0,1
544.5 289 m 0,27,28
 600 289 600 289 654.5 307.5 c 128,-1,29
 709 326 709 326 750 353 c 0,30,31
 810.378 392.761 810.378 392.761 864 459 c 1,32,33
 891 568.929 891 568.929 891 669.964 c 128,-1,34
 891 771 891 771 879 834 c 128,-1,35
 867 897 867 897 837.5 946 c 0,36,37
 772.48 1054 772.48 1054 639 1054 c 0,38,39
 487.308 1054 487.308 1054 402.5 896.5 c 0,40,41
 332 765.571 332 765.571 332 604 c 0,42,43
 332 454.926 332 454.926 390 369 c 0,44,45
 444 289 444 289 544.5 289 c 0,27,28
EndSplineSet
EndChar

StartChar: less
Encoding: 60 60 24
Width: 1368
Flags: HW
LayerCount: 2
Fore
SplineSet
211 814 m 1,0,-1
 1220 1324 l 1,1,-1
 1196 1130 l 1,2,-1
 400 751 l 1,3,-1
 1108 373 l 1,4,-1
 1085 176 l 1,5,-1
 195 686 l 1,6,-1
 211 814 l 1,0,-1
EndSplineSet
EndChar

StartChar: equal
Encoding: 61 61 25
Width: 1063
Flags: HW
LayerCount: 2
Fore
SplineSet
168 1005 m 1,0,-1
 983 1005 l 1,1,-1
 965 848 l 1,2,-1
 150 848 l 1,3,-1
 168 1005 l 1,0,-1
98 496 m 1,4,-1
 913 496 l 1,5,-1
 895 339 l 1,6,-1
 80 339 l 1,7,-1
 98 496 l 1,4,-1
EndSplineSet
EndChar

StartChar: question
Encoding: 63 63 27
Width: 1020
Flags: HW
LayerCount: 2
Fore
SplineSet
360 464 m 1,0,1
 303.853 517.028 303.853 517.028 285.5 645.5 c 0,2,3
 280 684 280 684 280 725.5 c 128,-1,4
 280 767 280 767 302 806 c 128,-1,5
 324 845 324 845 362 881 c 0,6,7
 422.792 938.592 422.792 938.592 515.396 990.796 c 2,8,-1
 652 1066.5 l 1,9,10
 814.742 1153.42 814.742 1153.42 843 1217 c 1,11,12
 852 1256.6 852 1256.6 852 1316.3 c 128,-1,13
 852 1376 852 1376 824 1440.5 c 128,-1,14
 796 1505 796 1505 746.5 1552.5 c 0,15,16
 641.768 1653 641.768 1653 487 1653 c 0,17,18
 380.3 1653 380.3 1653 311 1620 c 1,19,-1
 339 1760 l 1,20,21
 374.222 1795.22 374.222 1795.22 481 1809 c 0,22,23
 512 1813 512 1813 542 1813 c 0,24,25
 797.271 1813 797.271 1813 920.5 1682 c 0,26,27
 1023 1573.04 1023 1573.04 1023 1392 c 0,28,29
 1023 1151.05 1023 1151.05 845.5 1021 c 0,30,31
 795 984 795 984 742.5 954 c 1,32,-1
 639.5 897.5 l 1,33,34
 528.617 839.314 528.617 839.314 486 774.5 c 0,35,36
 462 738 462 738 462 699.5 c 128,-1,37
 462 661 462 661 467.5 636 c 128,-1,38
 473 611 473 611 480.5 588 c 2,39,-1
 494.5 545.5 l 2,40,41
 501 526 501 526 504 513 c 1,42,-1
 377 463 l 1,43,-1
 360 464 l 1,0,1
339 11 m 128,-1,45
 324 27 324 27 318.273 46.2273 c 128,-1,46
 312.545 65.4545 312.545 65.4545 312.545 94.6489 c 128,-1,47
 312.545 123.843 312.545 123.843 329.773 155.922 c 128,-1,48
 347 188 347 188 369 207.5 c 0,49,50
 416.949 250 416.949 250 462.474 250 c 128,-1,51
 508 250 508 250 532.5 240 c 0,52,53
 593.125 215.255 593.125 215.255 593.125 143.469 c 0,54,55
 593.125 67.6685 593.125 67.6685 533 18 c 0,56,57
 484.579 -22 484.579 -22 440.789 -22 c 128,-1,58
 397 -22 397 -22 375.5 -13.5 c 128,-1,44
 354 -5 354 -5 339 11 c 128,-1,45
EndSplineSet
EndChar

StartChar: at
Encoding: 64 64 28
Width: 1969
Flags: HW
LayerCount: 2
Fore
SplineSet
1291 -312 m 1,0,1
 1134.85 -428 1134.85 -428 875 -428 c 0,2,3
 326.545 -428 326.545 -428 172 -3 c 0,4,5
 120 140 120 140 120 327.5 c 128,-1,6
 120 515 120 515 159 675 c 128,-1,7
 198 835 198 835 268.5 969.5 c 128,-1,8
 339 1104 339 1104 438 1211 c 128,-1,9
 537 1318 537 1318 657 1392 c 0,10,11
 905.108 1545 905.108 1545 1199 1545 c 0,12,13
 1504.71 1545 1504.71 1545 1685 1377 c 0,14,15
 1868 1206.48 1868 1206.48 1868 909 c 0,16,17
 1868 645.901 1868 645.901 1768.5 430.5 c 0,18,19
 1680.36 239.685 1680.36 239.685 1533 127 c 0,20,21
 1394.38 21 1394.38 21 1256 21 c 0,22,23
 1172.36 21 1172.36 21 1167.5 142.5 c 0,24,25
 1166 180 1166 180 1166 220 c 0,26,27
 1166 306.25 1166 306.25 1194 427 c 1,28,29
 1073.11 142.56 1073.11 142.56 919.5 42.5 c 0,30,31
 865 7 865 7 812 7 c 128,-1,32
 759 7 759 7 708.5 32 c 0,33,34
 600.36 85.5346 600.36 85.5346 554 242 c 0,35,36
 531.846 316.769 531.846 316.769 531.846 371.115 c 128,-1,37
 531.846 425.462 531.846 425.462 532.423 466.231 c 128,-1,38
 533 507 533 507 548 584 c 128,-1,39
 563 661 563 661 592.5 734 c 128,-1,40
 622 807 622 807 665.5 872 c 128,-1,41
 709 937 709 937 768.5 986 c 0,42,43
 897.214 1092 897.214 1092 1072 1092 c 0,44,45
 1155.95 1092 1155.95 1092 1213.47 1072.5 c 128,-1,46
 1271 1053 1271 1053 1292 1038 c 1,47,-1
 1457 1068 l 1,48,49
 1412.06 897.211 1412.06 897.211 1383.53 686.105 c 0,50,51
 1342.88 385.312 1342.88 385.312 1342.88 312.704 c 1,52,-1
 1349 193 l 1,53,54
 1349 165 1349 165 1363 165 c 0,55,56
 1445.31 165 1445.31 165 1529 268 c 0,57,58
 1655.06 423.147 1655.06 423.147 1700.5 677 c 0,59,60
 1715 758 1715 758 1715 853.5 c 128,-1,61
 1715 949 1715 949 1691.5 1034 c 128,-1,62
 1668 1119 1668 1119 1626 1183 c 128,-1,63
 1584 1247 1584 1247 1527 1291 c 128,-1,64
 1470 1335 1470 1335 1403 1362.5 c 0,65,66
 1277.53 1414 1277.53 1414 1126.76 1414 c 128,-1,67
 976 1414 976 1414 861 1374.5 c 128,-1,68
 746 1335 746 1335 653 1265 c 128,-1,69
 560 1195 560 1195 488.5 1100 c 128,-1,70
 417 1005 417 1005 369 893 c 0,71,72
 272 666.667 272 666.667 272 441.833 c 128,-1,73
 272 217 272 217 316 84 c 128,-1,74
 360 -49 360 -49 441.5 -132 c 0,75,76
 597.627 -291 597.627 -291 900 -291 c 0,77,78
 1041.83 -291 1041.83 -291 1191.5 -250.5 c 0,79,80
 1234 -239 1234 -239 1260 -227 c 1,81,-1
 1291 -312 l 1,0,1
710 447 m 0,82,83
 710 170 710 170 846 170 c 0,84,85
 909.923 170 909.923 170 1002.5 300.5 c 0,86,87
 1134.64 486.775 1134.64 486.775 1210.5 743 c 0,88,89
 1233 819 1233 819 1241 879 c 1,90,91
 1204.9 942.868 1204.9 942.868 1103.5 962 c 0,92,93
 1077 967 1077 967 1031.5 967 c 128,-1,94
 986 967 986 967 933.5 944.5 c 128,-1,95
 881 922 881 922 842.5 883.5 c 128,-1,96
 804 845 804 845 778.5 793.5 c 128,-1,97
 753 742 753 742 738 684 c 0,98,99
 710 575.733 710 575.733 710 447 c 0,82,83
EndSplineSet
EndChar

StartChar: A
Encoding: 65 65 29
Width: 1342
Flags: HW
LayerCount: 2
Fore
SplineSet
706 1530 m 1,0,-1
 905 1530 l 1,1,-1
 1158 118 l 1,2,-1
 1314 86 l 1,3,-1
 1307 0 l 1,4,-1
 799 0 l 1,5,-1
 804 86 l 1,6,-1
 960 115 l 1,7,-1
 910 436 l 1,8,-1
 338 436 l 1,9,-1
 188 116 l 1,10,-1
 347 86 l 1,11,-1
 341 0 l 1,12,-1
 -130 0 l 1,13,-1
 -121 86 l 1,14,-1
 -3 115 l 1,15,-1
 706 1530 l 1,0,-1
892 557 m 1,16,-1
 786 1246 l 1,17,-1
 775 1364 l 1,18,-1
 395 557 l 1,19,-1
 892 557 l 1,16,-1
EndSplineSet
EndChar

StartChar: B
Encoding: 66 66 30
Width: 1290
Flags: HW
LayerCount: 2
Fore
SplineSet
520 -14 m 1,0,-1
 265 0 l 1,1,-1
 30 0 l 1,2,-1
 39 86 l 1,3,-1
 187 116 l 1,4,-1
 348 1406 l 1,5,-1
 215 1429 l 1,6,-1
 227 1530 l 1,7,-1
 475 1530 l 1,8,9
 543 1532 543 1532 611.5 1538.5 c 128,-1,10
 680 1545 680 1545 775.5 1545 c 128,-1,11
 871 1545 871 1545 954 1517 c 128,-1,12
 1037 1489 1037 1489 1091 1443.5 c 0,13,14
 1198.05 1353.3 1198.05 1353.3 1198.05 1210.23 c 0,15,16
 1198.05 909.016 1198.05 909.016 901 810 c 1,17,18
 1025.61 791.615 1025.61 791.615 1105.5 705.5 c 0,19,20
 1190.07 614.339 1190.07 614.339 1190.07 482.455 c 128,-1,21
 1190.07 350.571 1190.07 350.571 1137.04 256.286 c 128,-1,22
 1084 162 1084 162 991 101.5 c 0,23,24
 813.455 -14 813.455 -14 520 -14 c 1,0,-1
542.52 850.4 m 2,25,-1
 650 851 l 2,26,27
 807.735 851 807.735 851 902 932.5 c 0,28,29
 1002.04 1018.99 1002.04 1018.99 1002.04 1185.56 c 0,30,31
 1002.04 1370.42 1002.04 1370.42 844.5 1413 c 0,32,33
 789 1428 789 1428 743.5 1428 c 128,-1,34
 698 1428 698 1428 677.5 1427.5 c 128,-1,35
 657 1427 657 1427 633.5 1426 c 0,36,37
 587.171 1424.03 587.171 1424.03 545 1417 c 1,38,-1
 475 852 l 1,39,40
 506.2 850.4 506.2 850.4 542.52 850.4 c 2,25,-1
563 107 m 0,41,42
 979.125 107 979.125 107 979.125 455.621 c 0,43,44
 979.125 596.072 979.125 596.072 908.062 660.536 c 128,-1,45
 837 725 837 725 686 725 c 0,46,47
 566.5 725 566.5 725 458 718 c 1,48,-1
 385 128 l 1,49,50
 430.5 107 430.5 107 563 107 c 0,41,42
EndSplineSet
EndChar

StartChar: C
Encoding: 67 67 31
Width: 1222
Flags: HW
LayerCount: 2
Fore
SplineSet
757 -5.5 m 128,-1,1
 685 -16 685 -16 598 -16 c 128,-1,2
 511 -16 511 -16 438.5 10 c 128,-1,3
 366 36 366 36 309.5 81.5 c 128,-1,4
 253 127 253 127 213 189 c 128,-1,5
 173 251 173 251 146.5 322.5 c 0,6,7
 92.6897 467.686 92.6897 467.686 92.6897 622.128 c 128,-1,8
 92.6897 776.569 92.6897 776.569 117.345 891.784 c 128,-1,9
 142 1007 142 1007 191 1109 c 128,-1,10
 240 1211 240 1211 308 1292 c 128,-1,11
 376 1373 376 1373 459 1429.5 c 0,12,13
 630.142 1546 630.142 1546 829 1546 c 0,14,15
 1017.69 1546 1017.69 1546 1184 1500 c 1,16,-1
 1222 1489 l 1,17,-1
 1156 1122 l 1,18,-1
 1039 1122 l 1,19,-1
 1016 1382 l 1,20,21
 972.734 1415.28 972.734 1415.28 911.867 1421.64 c 128,-1,22
 851 1428 851 1428 780 1428 c 128,-1,23
 709 1428 709 1428 634 1391 c 128,-1,24
 559 1354 559 1354 503 1292 c 128,-1,25
 447 1230 447 1230 408 1149.5 c 0,26,27
 301.909 930.517 301.909 930.517 301.909 661.562 c 0,28,29
 301.909 431.212 301.909 431.212 382.5 276 c 0,30,31
 473.365 101 473.365 101 641 101 c 0,32,33
 774.128 101 774.128 101 862.5 157.5 c 0,34,35
 893 177 893 177 908 205 c 1,36,-1
 976 402 l 1,37,-1
 1097 401 l 1,38,-1
 1057 70 l 1,39,40
 1031 62 1031 62 988 47.5 c 128,-1,41
 945 33 945 33 887 19 c 128,-1,0
 829 5 829 5 757 -5.5 c 128,-1,1
EndSplineSet
EndChar

StartChar: D
Encoding: 68 68 32
Width: 1431
Flags: HW
LayerCount: 2
Fore
SplineSet
38 86 m 1,0,-1
 186 116 l 1,1,-1
 348 1406 l 1,2,-1
 215 1429 l 1,3,-1
 227 1530 l 1,4,-1
 523 1530 l 1,5,6
 589 1531 589 1531 654 1538.5 c 128,-1,7
 719 1546 719 1546 789 1546 c 0,8,9
 1080.87 1546 1080.87 1546 1227.5 1373 c 0,10,11
 1366.15 1209.41 1366.15 1209.41 1366.15 901.751 c 0,12,13
 1366.15 510.665 1366.15 510.665 1155.5 250 c 0,14,15
 1014.15 75.0934 1014.15 75.0934 806.5 12.5 c 0,16,17
 711.087 -16.2609 711.087 -16.2609 605.253 -16.2609 c 0,18,19
 577.783 -16.2609 577.783 -16.2609 561.391 -15.1304 c 2,20,-1
 499 -11 l 2,21,22
 484 -10 484 -10 469.5 -9 c 128,-1,23
 455 -8 455 -8 430 -6 c 128,-1,24
 405 -4 405 -4 377 -3 c 2,25,-1
 322 -1 l 2,26,27
 295 0 295 0 274 0 c 2,28,-1
 29 0 l 1,29,-1
 38 86 l 1,0,-1
386 132 m 1,30,31
 435.323 114.065 435.323 114.065 524.161 107.532 c 128,-1,32
 613 101 613 101 637 101 c 1,33,34
 818.05 114.202 818.05 114.202 945 239 c 0,35,36
 1163.08 453.384 1163.08 453.384 1163.08 890.96 c 0,37,38
 1163.08 1185.2 1163.08 1185.2 1058 1311.5 c 0,39,40
 959.408 1430 959.408 1430 730 1430 c 0,41,42
 616.25 1430 616.25 1430 545 1411 c 1,43,-1
 386 132 l 1,30,31
EndSplineSet
EndChar

StartChar: E
Encoding: 69 69 33
Width: 1229
Flags: HW
LayerCount: 2
Fore
SplineSet
38 86 m 1,0,-1
 187 115 l 1,1,-1
 347 1406 l 1,2,-1
 214 1429 l 1,3,-1
 226 1530 l 1,4,-1
 1153 1530 l 1,5,-1
 1146 1220 l 1,6,-1
 1040 1220 l 1,7,-1
 992 1408 l 1,8,-1
 551 1422 l 1,9,-1
 479 854 l 1,10,-1
 926 861 l 1,11,-1
 914 705 l 1,12,-1
 467 721 l 1,13,-1
 384 116 l 1,14,-1
 935 140 l 1,15,-1
 1054 347 l 1,16,-1
 1158 316 l 1,17,-1
 1069 0 l 1,18,-1
 28 0 l 1,19,-1
 38 86 l 1,0,-1
EndSplineSet
EndChar

StartChar: F
Encoding: 70 70 34
Width: 1162
Flags: HW
LayerCount: 2
Fore
SplineSet
38 87 m 1,0,-1
 187 116 l 1,1,-1
 347 1406 l 1,2,-1
 214 1429 l 1,3,-1
 226 1530 l 1,4,-1
 1196 1530 l 1,5,-1
 1173 1220 l 1,6,-1
 1052 1220 l 1,7,-1
 1023 1402 l 1,8,-1
 547 1421 l 1,9,-1
 479 854 l 1,10,-1
 949 862 l 1,11,-1
 937 704 l 1,12,-1
 467 721 l 1,13,-1
 385 118 l 1,14,-1
 654 87 l 1,15,-1
 646 0 l 1,16,-1
 30 0 l 1,17,-1
 38 87 l 1,0,-1
EndSplineSet
EndChar

StartChar: G
Encoding: 71 71 35
Width: 1342
Flags: HW
LayerCount: 2
Fore
SplineSet
586.5 -16 m 0,0,1
 512 -16 512 -16 441 10 c 128,-1,2
 370 36 370 36 315 81.5 c 128,-1,3
 260 127 260 127 220.5 189 c 128,-1,4
 181 251 181 251 155 322.5 c 0,5,6
 101.69 469.103 101.69 469.103 101.69 622.836 c 128,-1,7
 101.69 776.569 101.69 776.569 126.345 891.784 c 128,-1,8
 151 1007 151 1007 200 1109 c 128,-1,9
 249 1211 249 1211 317 1292 c 128,-1,10
 385 1373 385 1373 468 1429.5 c 0,11,12
 639.142 1546 639.142 1546 838 1546 c 0,13,14
 1050 1546 1050 1546 1239 1490 c 1,15,-1
 1277 1479 l 1,16,-1
 1220 1183 l 1,17,-1
 1093 1183 l 1,18,-1
 1071 1364 l 1,19,20
 997.154 1428 997.154 1428 814 1428 c 0,21,22
 635.435 1428 635.435 1428 511.5 1292 c 0,23,24
 407.081 1177.42 407.081 1177.42 353 982.5 c 0,25,26
 309.909 827.193 309.909 827.193 309.909 661.562 c 0,27,28
 309.909 432.295 309.909 432.295 393 276.5 c 0,29,30
 486.6 101 486.6 101 660 101 c 0,31,32
 861.133 101 861.133 101 952 195 c 1,33,-1
 1009 590 l 1,34,-1
 775 607 l 1,35,-1
 788 723 l 1,36,-1
 1230 723 l 1,37,-1
 1140 94 l 1,38,39
 1111 91 1111 91 1082.5 82 c 2,40,-1
 928.5 36.5 l 2,41,42
 747.667 -16 747.667 -16 586.5 -16 c 0,0,1
EndSplineSet
EndChar

StartChar: H
Encoding: 72 72 36
Width: 1533
Flags: HW
LayerCount: 2
Fore
SplineSet
39 86 m 1,0,-1
 187 116 l 1,1,-1
 348 1406 l 1,2,-1
 215 1429 l 1,3,-1
 227 1530 l 1,4,-1
 710 1530 l 1,5,-1
 699 1429 l 1,6,-1
 546 1406 l 1,7,-1
 475 844 l 1,8,-1
 1130 844 l 1,9,-1
 1200 1406 l 1,10,-1
 1050 1429 l 1,11,-1
 1060 1530 l 1,12,-1
 1547 1530 l 1,13,-1
 1535 1429 l 1,14,-1
 1397 1406 l 1,15,-1
 1237 117 l 1,16,-1
 1388 86 l 1,17,-1
 1379 0 l 1,18,-1
 869 0 l 1,19,-1
 877 87 l 1,20,-1
 1040 117 l 1,21,-1
 1114 714 l 1,22,-1
 459 714 l 1,23,-1
 385 116 l 1,24,-1
 542 87 l 1,25,-1
 534 0 l 1,26,-1
 30 0 l 1,27,-1
 39 86 l 1,0,-1
EndSplineSet
EndChar

StartChar: I
Encoding: 73 73 37
Width: 706
Flags: HW
LayerCount: 2
Fore
SplineSet
39 86 m 1,0,-1
 187 116 l 1,1,-1
 348 1406 l 1,2,-1
 215 1429 l 1,3,-1
 227 1530 l 1,4,-1
 710 1530 l 1,5,-1
 699 1429 l 1,6,-1
 546 1406 l 1,7,-1
 385 116 l 1,8,-1
 542 87 l 1,9,-1
 534 0 l 1,10,-1
 30 0 l 1,11,-1
 39 86 l 1,0,-1
EndSplineSet
EndChar

StartChar: J
Encoding: 74 74 38
Width: 731
Flags: HW
LayerCount: 2
Fore
SplineSet
207 86 m 0,0,1
 258.629 321.558 258.629 321.558 288.315 610.779 c 128,-1,2
 318 900 318 900 333.5 1072 c 128,-1,3
 349 1244 349 1244 368 1407 c 1,4,-1
 227 1429 l 1,5,-1
 241 1530 l 1,6,-1
 725 1530 l 1,7,-1
 714 1429 l 1,8,-1
 559 1408 l 1,9,10
 456.124 443.789 456.124 443.789 433.562 277.394 c 128,-1,11
 411 111 411 111 399 75 c 0,12,13
 340.087 -112.787 340.087 -112.787 185.5 -224 c 0,14,15
 59.3062 -314.787 59.3062 -314.787 -115 -345 c 1,16,-1
 -150 -257 l 1,17,18
 -22.4569 -220.831 -22.4569 -220.831 84.5 -115 c 0,19,20
 183.973 -16.5739 183.973 -16.5739 207 86 c 0,0,1
EndSplineSet
EndChar

StartChar: K
Encoding: 75 75 39
Width: 1361
Flags: HW
LayerCount: 2
Fore
SplineSet
39 86 m 1,0,-1
 187 116 l 1,1,-1
 348 1406 l 1,2,-1
 215 1429 l 1,3,-1
 227 1530 l 1,4,-1
 710 1530 l 1,5,-1
 699 1429 l 1,6,-1
 546 1406 l 1,7,-1
 456 688 l 1,8,-1
 1067 1406 l 1,9,-1
 950 1429 l 1,10,-1
 962 1530 l 1,11,-1
 1395 1530 l 1,12,-1
 1384 1429 l 1,13,-1
 1261 1407 l 1,14,-1
 734 828 l 1,15,16
 976 423 l 1,17,18
 1113.88 173.506 1113.88 173.506 1177 138 c 1,19,-1
 1307 93 l 1,20,-1
 1293 0 l 1,21,-1
 1022 0 l 1,22,23
 987.946 5.23906 987.946 5.23906 915 135.5 c 1,24,-1
 658.5 618 l 1,25,-1
 614 697 l 1,26,-1
 432 498 l 1,27,-1
 385 116 l 1,28,-1
 542 87 l 1,29,-1
 534 0 l 1,30,-1
 30 0 l 1,31,-1
 39 86 l 1,0,-1
EndSplineSet
EndChar

StartChar: L
Encoding: 76 76 40
Width: 1178
Flags: HW
LayerCount: 2
Fore
SplineSet
39 87 m 1,0,-1
 187 116 l 1,1,-1
 348 1406 l 1,2,-1
 215 1429 l 1,3,-1
 227 1530 l 1,4,-1
 745 1530 l 1,5,-1
 734 1429 l 1,6,-1
 546 1406 l 1,7,-1
 385 116 l 1,8,-1
 853 127 l 1,9,-1
 989 454 l 1,10,-1
 1106 431 l 1,11,-1
 1010 0 l 1,12,-1
 31 0 l 1,13,-1
 39 87 l 1,0,-1
EndSplineSet
EndChar

StartChar: M
Encoding: 77 77 41
Width: 1870
Flags: HW
LayerCount: 2
Fore
SplineSet
-43 87 m 1,0,-1
 117 116 l 1,1,-1
 434 1406 l 1,2,-1
 274 1429 l 1,3,-1
 286 1530 l 1,4,-1
 723 1530 l 1,5,-1
 890 470 l 1,6,-1
 904 303 l 1,7,8
 1002.05 551.1 1002.05 551.1 1071.53 709.05 c 2,9,10
 1317 1266 l 1,11,12
 1430 1530 l 1,13,-1
 1846 1530 l 1,14,-1
 1835 1429 l 1,15,-1
 1671 1406 l 1,16,-1
 1646 117 l 1,17,-1
 1799 87 l 1,18,-1
 1790 0 l 1,19,-1
 1265 0 l 1,20,-1
 1274 87 l 1,21,-1
 1449 115 l 1,22,-1
 1485 1026 l 1,23,-1
 1516 1429 l 1,24,-1
 1379 1074 l 1,25,-1
 907 -3 l 1,26,-1
 797 -18 l 1,27,-1
 562 1427 l 1,28,-1
 491 1040 l 1,29,-1
 279 116 l 1,30,-1
 464 87 l 1,31,-1
 455 0 l 1,32,-1
 -53 0 l 1,33,-1
 -43 87 l 1,0,-1
EndSplineSet
EndChar

StartChar: N
Encoding: 78 78 42
Width: 1517
Flags: HW
LayerCount: 2
Fore
SplineSet
42 86 m 1,0,-1
 178 114 l 1,1,-1
 347 1406 l 1,2,-1
 201 1429 l 1,3,-1
 218 1530 l 1,4,-1
 557 1530 l 1,5,-1
 1025 418 l 1,6,-1
 1096 185 l 1,7,-1
 1240 1407 l 1,8,-1
 1090 1429 l 1,9,-1
 1102 1530 l 1,10,-1
 1553 1530 l 1,11,-1
 1543 1429 l 1,12,-1
 1397 1406 l 1,13,-1
 1194 0 l 1,14,-1
 1006 0 l 1,15,-1
 533 1115 l 1,16,-1
 472 1336 l 1,17,-1
 345 116 l 1,18,-1
 505 87 l 1,19,-1
 497 0 l 1,20,-1
 34 0 l 1,21,-1
 42 86 l 1,0,-1
EndSplineSet
EndChar

StartChar: O
Encoding: 79 79 43
Width: 1386
Flags: HW
LayerCount: 2
Fore
SplineSet
611.5 -20 m 0,0,1
 505 -20 505 -20 411.5 27 c 128,-1,2
 318 74 318 74 251 160 c 0,3,4
 106.667 345.264 106.667 345.264 106.667 670.389 c 0,5,6
 106.667 1044.85 106.667 1044.85 307.5 1295.5 c 0,7,8
 511.416 1550 511.416 1550 810 1550 c 0,9,10
 1043.38 1550 1043.38 1550 1178 1353.5 c 0,11,12
 1306.17 1166.42 1306.17 1166.42 1306.17 870.413 c 0,13,14
 1306.17 493.833 1306.17 493.833 1115 241 c 0,15,16
 917.659 -20 917.659 -20 611.5 -20 c 0,0,1
650.435 99.9825 m 0,17,18
 746.491 99.9825 746.491 99.9825 830.746 155.491 c 0,19,20
 1003.45 269.271 1003.45 269.271 1073.5 550.5 c 0,21,22
 1105.24 677.92 1105.24 677.92 1105.24 827.77 c 0,23,24
 1105.24 1267.82 1105.24 1267.82 915.5 1387 c 0,25,26
 855 1425 855 1425 766.5 1425 c 128,-1,27
 678 1425 678 1425 592 1372.5 c 0,28,29
 417.214 1265.8 417.214 1265.8 344 1006.5 c 0,30,31
 310.769 888.808 310.769 888.808 310.769 752.796 c 0,32,33
 310.769 99.9826 310.769 99.9826 650.435 99.9825 c 0,17,18
EndSplineSet
EndChar

StartChar: P
Encoding: 80 80 44
Width: 1235
Flags: HW
LayerCount: 2
Fore
SplineSet
608 544 m 2,0,-1
 531 544 l 2,1,2
 488 544 488 544 436 548 c 1,3,-1
 385 116 l 1,4,-1
 581 87 l 1,5,-1
 573 0 l 1,6,-1
 30 0 l 1,7,-1
 39 86 l 1,8,-1
 187 116 l 1,9,-1
 348 1406 l 1,10,-1
 215 1429 l 1,11,-1
 227 1530 l 1,12,-1
 480 1530 l 1,13,-1
 765 1547 l 1,14,15
 1216.12 1547 1216.12 1547 1222 1157 c 0,16,17
 1222.17 1148.52 1222.17 1148.52 1222.17 1140.15 c 0,18,19
 1222.17 868.852 1222.17 868.852 1042.5 703 c 0,20,21
 870.25 544 870.25 544 608 544 c 2,0,-1
451 678 m 1,22,23
 910.528 599.783 910.528 599.783 991 937 c 0,24,25
 1014.08 1033.7 1014.08 1033.7 1014.08 1123.45 c 128,-1,26
 1014.08 1213.19 1014.08 1213.19 1002.54 1265.6 c 0,27,28
 966.69 1428.41 966.69 1428.41 755.624 1428.41 c 0,29,30
 658.398 1428.41 658.398 1428.41 546 1407 c 1,31,-1
 451 678 l 1,22,23
EndSplineSet
EndChar

StartChar: Q
Encoding: 81 81 45
Width: 1386
Flags: HW
LayerCount: 2
Fore
SplineSet
995 -181 m 0,0,1
 1107.4 -181 1107.4 -181 1202 -138 c 1,2,-1
 1204 -274 l 1,3,4
 1140.07 -327.273 1140.07 -327.273 1010 -350.5 c 0,5,6
 968 -358 968 -358 913 -358 c 128,-1,7
 858 -358 858 -358 791.5 -337 c 0,8,9
 651.061 -292.651 651.061 -292.651 597.5 -168 c 0,10,11
 577.333 -121.067 577.333 -121.067 577.333 -80.6333 c 128,-1,12
 577.333 -40.2 577.333 -40.2 580 -17 c 1,13,14
 364.243 -2.88504 364.243 -2.88504 236 175 c 0,15,16
 101.667 361.333 101.667 361.333 101.667 672.389 c 0,17,18
 101.667 1046.85 101.667 1046.85 302.5 1297.5 c 0,19,20
 506.416 1552 506.416 1552 805 1552 c 0,21,22
 1038.38 1552 1038.38 1552 1173 1355.5 c 0,23,24
 1301.2 1168.38 1301.2 1168.38 1301.2 870.75 c 0,25,26
 1301.2 529.118 1301.2 529.118 1139.5 284 c 0,27,28
 1061 165 1061 165 951 88 c 128,-1,29
 841 11 841 11 710 -10 c 1,30,31
 720.113 -159.166 720.113 -159.166 905 -176.5 c 0,32,33
 953 -181 953 -181 995 -181 c 0,0,1
645.435 101.982 m 0,34,35
 741.491 101.982 741.491 101.982 825.746 157.491 c 0,36,37
 998.446 271.271 998.446 271.271 1068.5 552.5 c 0,38,39
 1100.24 679.92 1100.24 679.92 1100.24 829.77 c 0,40,41
 1100.24 1269.82 1100.24 1269.82 910.5 1389 c 0,42,43
 850 1427 850 1427 761.5 1427 c 128,-1,44
 673 1427 673 1427 587 1374.5 c 0,45,46
 412.214 1267.8 412.214 1267.8 339 1008.5 c 0,47,48
 305.769 890.808 305.769 890.808 305.769 754.796 c 0,49,50
 305.769 101.983 305.769 101.983 645.435 101.982 c 0,34,35
EndSplineSet
EndChar

StartChar: R
Encoding: 82 82 46
Width: 1348
Flags: HW
LayerCount: 2
Fore
SplineSet
629.78 671.694 m 1,0,-1
 549 670 l 1,1,-1
 440 670 l 1,2,-1
 377 116 l 1,3,-1
 562 87 l 1,4,-1
 554 0 l 1,5,-1
 50 0 l 1,6,-1
 59 86 l 1,7,-1
 187 116 l 1,8,-1
 348 1406 l 1,9,-1
 215 1429 l 1,10,-1
 227 1530 l 1,11,-1
 413 1530 l 1,12,-1
 712 1546 l 1,13,14
 964 1546 964 1546 1086 1460 c 0,15,16
 1212.15 1371.07 1212.15 1371.07 1212.15 1184.32 c 0,17,18
 1212.15 1009.85 1212.15 1009.85 1117 881 c 0,19,20
 1016.46 744.852 1016.46 744.852 835 695 c 1,21,22
 930.215 634.409 930.215 634.409 998 448 c 0,23,24
 1075.48 235.959 1075.48 235.959 1118.24 180.979 c 128,-1,25
 1161 126 1161 126 1196.29 111.882 c 128,-1,26
 1231.59 97.7647 1231.59 97.7647 1256.74 97.7647 c 128,-1,27
 1281.88 97.7647 1281.88 97.7647 1288 98 c 1,28,-1
 1284 -1 l 1,29,-1
 1058 1 l 2,30,31
 1002.61 1 1002.61 1 928.5 160 c 0,32,33
 901 219 901 219 871 296 c 2,34,-1
 815 440.5 l 2,35,36
 725.947 671.694 725.947 671.694 629.78 671.694 c 1,0,-1
455 789 m 1,37,38
 527 785 527 785 592.5 785 c 0,39,40
 748.833 785 748.833 785 821.417 818.5 c 0,41,42
 1013.2 907.013 1013.2 907.013 1013.2 1163.19 c 0,43,44
 1013.2 1304.72 1013.2 1304.72 949 1362.5 c 0,45,46
 877.333 1427 877.333 1427 696 1427 c 0,47,48
 639.333 1427 639.333 1427 538 1408 c 1,49,-1
 455 789 l 1,37,38
EndSplineSet
EndChar

StartChar: S
Encoding: 83 83 47
Width: 1080
Flags: HW
LayerCount: 2
Fore
SplineSet
97 343 m 1,0,-1
 213 343 l 1,1,-1
 239 150 l 1,2,3
 321.857 92 321.857 92 467 92 c 0,4,5
 580.15 92 580.15 92 668.5 149 c 0,6,7
 783.419 223.141 783.419 223.141 783.419 358.79 c 0,8,9
 783.419 504.436 783.419 504.436 634 616.5 c 0,10,11
 588 651 588 651 532 686 c 128,-1,12
 476 721 476 721 415.5 764 c 128,-1,13
 355 807 355 807 307 859.5 c 0,14,15
 195.9 981.016 195.9 981.016 195.9 1132.85 c 0,16,17
 195.9 1319.25 195.9 1319.25 336 1436 c 0,18,19
 472.8 1550 472.8 1550 675 1550 c 0,20,21
 910.5 1550 910.5 1550 1038 1465 c 1,22,-1
 992 1203 l 1,23,-1
 886 1203 l 1,24,-1
 858 1382 l 1,25,26
 788.455 1433 788.455 1433 658 1433 c 0,27,28
 486.659 1433 486.659 1433 421 1313.5 c 0,29,30
 392.609 1261.83 392.609 1261.83 392.609 1195.69 c 128,-1,31
 392.609 1129.54 392.609 1129.54 411.304 1083.27 c 128,-1,32
 430 1037 430 1037 466 995.5 c 0,33,34
 524.351 928.234 524.351 928.234 617.175 870.117 c 1,35,-1
 768.5 772.5 l 1,36,37
 981.096 628.952 981.096 628.952 981.096 425.644 c 0,38,39
 981.096 222.981 981.096 222.981 834 99 c 0,40,41
 689.254 -23 689.254 -23 461 -23 c 0,42,43
 262.581 -23 262.581 -23 113.5 35.5 c 0,44,45
 74 51 74 51 56 65 c 1,46,-1
 97 343 l 1,0,-1
EndSplineSet
EndChar

StartChar: T
Encoding: 84 84 48
Width: 1225
Flags: HW
LayerCount: 2
Fore
SplineSet
200 93 m 1,0,-1
 444 116 l 1,1,-1
 609 1423 l 1,2,-1
 290 1396 l 1,3,-1
 197 1066 l 1,4,-1
 83 1064 l 1,5,-1
 160 1530 l 1,6,-1
 1298 1530 l 1,7,-1
 1232 1064 l 1,8,-1
 1124 1064 l 1,9,-1
 1132 1397 l 1,10,-1
 808 1423 l 1,11,-1
 642 116 l 1,12,-1
 890 93 l 1,13,-1
 883 0 l 1,14,-1
 191 0 l 1,15,-1
 200 93 l 1,0,-1
EndSplineSet
EndChar

StartChar: U
Encoding: 85 85 49
Width: 1379
Flags: HW
LayerCount: 2
Fore
SplineSet
405.5 11 m 0,0,1
 144.667 107.836 144.667 107.836 144.667 454.167 c 0,2,3
 144.667 518 144.667 518 153 593 c 1,4,-1
 260 1407 l 1,5,-1
 127 1430 l 1,6,-1
 139 1530 l 1,7,-1
 622 1530 l 1,8,-1
 611 1430 l 1,9,-1
 460 1405 l 1,10,-1
 356 610 l 1,11,12
 344.75 506.875 344.75 506.875 344.75 467.812 c 128,-1,13
 344.75 428.75 344.75 428.75 345 418 c 0,14,15
 348 255 348 255 421.5 172.5 c 128,-1,16
 495 90 495 90 627 90 c 0,17,18
 965.859 90 965.859 90 1027 626 c 1,19,-1
 1130 1405 l 1,20,-1
 997 1429 l 1,21,-1
 1008 1530 l 1,22,-1
 1440 1530 l 1,23,-1
 1429 1429 l 1,24,-1
 1305 1407 l 1,25,-1
 1201 627 l 1,26,27
 1135.04 119.373 1135.04 119.373 826.5 14.5 c 0,28,29
 725 -20 725 -20 607 -20 c 128,-1,30
 489 -20 489 -20 405.5 11 c 0,0,1
EndSplineSet
EndChar

StartChar: V
Encoding: 86 86 50
Width: 1225
Flags: HW
LayerCount: 2
Fore
SplineSet
197 1406 m 1,0,-1
 75 1429 l 1,1,-1
 85 1530 l 1,2,-1
 566 1530 l 1,3,-1
 555 1429 l 1,4,-1
 404 1406 l 1,5,-1
 540 449 l 1,6,-1
 567 170 l 1,7,-1
 662 449 l 1,8,-1
 1075 1406 l 1,9,-1
 941 1430 l 1,10,-1
 951 1530 l 1,11,-1
 1361 1530 l 1,12,-1
 1351 1430 l 1,13,-1
 1247 1408 l 1,14,-1
 607 -9 l 1,15,-1
 434 -21 l 1,16,-1
 197 1406 l 1,0,-1
EndSplineSet
EndChar

StartChar: W
Encoding: 87 87 51
Width: 1781
Flags: HW
LayerCount: 2
Fore
SplineSet
153 1407 m 1,0,-1
 30 1429 l 1,1,-1
 42 1530 l 1,2,-1
 508 1530 l 1,3,-1
 497 1429 l 1,4,-1
 341 1411 l 1,5,-1
 459 436 l 1,6,-1
 495 170 l 1,7,-1
 551 368 l 1,8,-1
 896 1289 l 1,9,-1
 882 1410 l 1,10,-1
 764 1429 l 1,11,-1
 775 1530 l 1,12,-1
 1251 1530 l 1,13,-1
 1231 1429 l 1,14,-1
 1081 1409 l 1,15,-1
 1186 436 l 1,16,-1
 1204 170 l 1,17,-1
 1278 398 l 1,18,-1
 1685 1406 l 1,19,-1
 1554 1429 l 1,20,-1
 1565 1530 l 1,21,-1
 1987 1530 l 1,22,-1
 1972 1429 l 1,23,-1
 1852 1407 l 1,24,-1
 1255 -10 l 1,25,-1
 1053 -10 l 1,26,-1
 937 1020 l 1,27,-1
 550 -10 l 1,28,-1
 349 -10 l 1,29,-1
 153 1407 l 1,0,-1
EndSplineSet
EndChar

StartChar: X
Encoding: 88 88 52
Width: 1294
Flags: HW
LayerCount: 2
Fore
SplineSet
-52 87 m 1,0,-1
 70 115 l 1,1,-1
 569 768 l 1,2,-1
 268 1403 l 1,3,-1
 129 1429 l 1,4,-1
 139 1530 l 1,5,-1
 655 1530 l 1,6,-1
 644 1429 l 1,7,-1
 499 1407 l 1,8,-1
 701 893 l 1,9,-1
 1040 1406 l 1,10,-1
 900 1429 l 1,11,-1
 912 1530 l 1,12,-1
 1381 1530 l 1,13,-1
 1371 1429 l 1,14,-1
 1234 1407 l 1,15,-1
 764 776 l 1,16,-1
 1086 116 l 1,17,-1
 1240 87 l 1,18,-1
 1232 0 l 1,19,-1
 696 0 l 1,20,-1
 704 87 l 1,21,-1
 855 115 l 1,22,-1
 629 644 l 1,23,-1
 266 116 l 1,24,-1
 415 86 l 1,25,-1
 407 0 l 1,26,-1
 -62 0 l 1,27,-1
 -52 87 l 1,0,-1
EndSplineSet
EndChar

StartChar: Y
Encoding: 89 89 53
Width: 1173
Flags: HW
LayerCount: 2
Fore
SplineSet
251 87 m 1,0,-1
 447 116 l 1,1,-1
 508 590 l 1,2,-1
 144 1406 l 1,3,-1
 40 1429 l 1,4,-1
 50 1530 l 1,5,-1
 539 1530 l 1,6,-1
 527 1429 l 1,7,-1
 367 1406 l 1,8,-1
 595 838 l 1,9,-1
 631 712 l 1,10,-1
 703 838 l 1,11,-1
 1046 1406 l 1,12,-1
 907 1429 l 1,13,-1
 918 1530 l 1,14,-1
 1330 1530 l 1,15,-1
 1319 1429 l 1,16,-1
 1220 1407 l 1,17,-1
 696 590 l 1,18,-1
 635 116 l 1,19,-1
 848 87 l 1,20,-1
 840 0 l 1,21,-1
 243 0 l 1,22,-1
 251 87 l 1,0,-1
EndSplineSet
EndChar

StartChar: Z
Encoding: 90 90 54
Width: 1191
Flags: HW
LayerCount: 2
Fore
SplineSet
-3 89 m 1,0,-1
 806 1217 l 1,1,-1
 975 1416 l 1,2,-1
 399 1409 l 1,3,-1
 304 1162 l 1,4,-1
 186 1186 l 1,5,-1
 242 1530 l 1,6,-1
 1180 1530 l 1,7,-1
 1205 1444 l 1,8,-1
 394 303 l 1,9,-1
 241 107 l 1,10,-1
 882 132 l 1,11,-1
 1007 384 l 1,12,-1
 1128 353 l 1,13,-1
 1035 0 l 1,14,-1
 24 0 l 1,15,-1
 -3 89 l 1,0,-1
EndSplineSet
EndChar

StartChar: bracketleft
Encoding: 91 91 55
Width: 854
Flags: HW
LayerCount: 2
Fore
SplineSet
180 -54.5 m 0,0,1
 180 133 180 133 214 373 c 128,-1,2
 248 613 248 613 268 740 c 128,-1,3
 288 867 288 867 308 994 c 2,4,-1
 347 1245 l 2,5,6
 366 1369 366 1369 378 1462 c 128,-1,7
 390 1555 390 1555 405 1603.5 c 128,-1,8
 420 1652 420 1652 446 1681 c 0,9,10
 494.414 1735 494.414 1735 611 1735 c 0,11,12
 679.083 1735 679.083 1735 871 1688 c 1,13,-1
 858 1601 l 1,14,-1
 583 1601 l 1,15,-1
 360 -55 l 1,16,17
 426 -55 426 -55 497.5 -56 c 128,-1,18
 569 -57 569 -57 635 -57 c 1,19,20
 629 -101 629 -101 625 -143 c 1,21,-1
 559.5 -161.5 l 1,22,23
 453.882 -190 453.882 -190 379.441 -190 c 128,-1,24
 305 -190 305 -190 272 -183 c 128,-1,25
 239 -176 239 -176 218.5 -159.5 c 0,26,27
 180 -128.512 180 -128.512 180 -54.5 c 0,0,1
EndSplineSet
EndChar

StartChar: backslash
Encoding: 92 92 56
Width: 854
Flags: HW
LayerCount: 2
Fore
SplineSet
126 1597 m 1,0,-1
 299 1597 l 1,1,-1
 876 -362 l 1,2,-1
 702 -362 l 1,3,-1
 126 1597 l 1,0,-1
EndSplineSet
EndChar

StartChar: asciicircum
Encoding: 94 94 58
Width: 1364
Flags: HW
LayerCount: 2
Fore
SplineSet
688 1531 m 1,0,-1
 885 1531 l 1,1,-1
 1142 510 l 1,2,-1
 977 510 l 1,3,-1
 762 1302 l 1,4,-1
 342 510 l 1,5,-1
 177 510 l 1,6,-1
 688 1531 l 1,0,-1
EndSplineSet
EndChar

StartChar: underscore
Encoding: 95 95 59
Width: 1335
Flags: HW
LayerCount: 2
Fore
SplineSet
1287 -187 m 1,0,-1
 1267 -338 l 1,1,-1
 -111 -338 l 1,2,-1
 -91 -187 l 1,3,-1
 1287 -187 l 1,0,-1
EndSplineSet
EndChar

StartChar: grave
Encoding: 96 96 60
Width: 541
Flags: HW
LayerCount: 2
Fore
SplineSet
436 1251 m 1,0,1
 325.366 1298.41 325.366 1298.41 160 1450 c 0,2,3
 80.2 1523.15 80.2 1523.15 50 1576 c 1,4,-1
 203 1743 l 1,5,-1
 491 1311 l 1,6,-1
 436 1251 l 1,0,1
EndSplineSet
EndChar

StartChar: a
Encoding: 97 97 61
Width: 1173
Flags: HW
LayerCount: 2
Fore
SplineSet
718 136 m 1,0,1
 588 -20 588 -20 413 -20 c 0,2,3
 251.348 -20 251.348 -20 164 102.5 c 0,4,5
 83 216.098 83 216.098 83 412 c 0,6,7
 83 573.16 83 573.16 159.5 743.5 c 0,8,9
 288.042 1029.72 288.042 1029.72 540 1128.5 c 0,10,11
 628 1163 628 1163 726 1163 c 128,-1,12
 824 1163 824 1163 929 1128 c 1,13,-1
 1048 1162 l 1,14,-1
 917 187 l 2,15,16
 912 146 912 146 923.5 128.5 c 128,-1,17
 935 111 935 111 956.25 111 c 128,-1,18
 977.5 111 977.5 111 1035 157 c 1,19,-1
 1066 104 l 1,20,21
 1048.55 72.5817 1048.55 72.5817 1005.27 42.2909 c 0,22,23
 916.286 -20 916.286 -20 843 -20 c 0,24,25
 715.595 -20 715.595 -20 715.595 100.646 c 0,26,27
 715.595 107.608 715.595 107.608 716 115 c 2,28,-1
 718 136 l 1,0,1
832 1008 m 1,29,30
 785.105 1041 785.105 1041 707.053 1041 c 128,-1,31
 629 1041 629 1041 570.5 1013 c 128,-1,32
 512 985 512 985 466 938 c 128,-1,33
 420 891 420 891 386.5 829.5 c 128,-1,34
 353 768 353 768 331 701 c 0,35,36
 288 570.045 288 570.045 288 466.523 c 128,-1,37
 288 363 288 363 299 304.5 c 128,-1,38
 310 246 310 246 331 205.5 c 0,39,40
 374.296 122 374.296 122 450 122 c 0,41,42
 577.635 122 577.635 122 688.5 236.5 c 0,43,44
 719 268 719 268 740 298 c 1,45,-1
 832 1008 l 1,29,30
EndSplineSet
Substitution2: "Single Substitution lookup 16 subtable" ordfeminine
Substitution2: "'aalt' Access All Alternates in Latin lookup 0 subtable" ordfeminine
EndChar

StartChar: b
Encoding: 98 98 62
Width: 1188
Flags: HW
LayerCount: 2
Fore
SplineSet
454.875 -20 m 0,0,1
 346.75 -20 346.75 -20 223 25 c 1,2,-1
 125 -20 l 1,3,-1
 323 1484 l 1,4,-1
 228 1527 l 1,5,-1
 249 1611 l 1,6,-1
 489 1650 l 1,7,-1
 540 1623 l 1,8,-1
 456 998 l 1,9,10
 543.088 1110.49 543.088 1110.49 665.5 1149 c 0,11,12
 710 1163 710 1163 778.5 1163 c 128,-1,13
 847 1163 847 1163 911 1130.5 c 128,-1,14
 975 1098 975 1098 1017 1040 c 0,15,16
 1100 925.381 1100 925.381 1100 730 c 0,17,18
 1100 473.578 1100 473.578 932.5 240 c 0,19,20
 746.053 -20 746.053 -20 454.875 -20 c 0,0,1
341 143 m 1,21,22
 393.5 101 393.5 101 478.25 101 c 128,-1,23
 563 101 563 101 620 129.5 c 128,-1,24
 677 158 677 158 721.5 206.5 c 128,-1,25
 766 255 766 255 798.5 317.5 c 128,-1,26
 831 380 831 380 852.5 448.5 c 0,27,28
 895 583.907 895 583.907 895 723.453 c 128,-1,29
 895 863 895 863 850 941.5 c 128,-1,30
 805 1020 805 1020 727 1020 c 0,31,32
 642.875 1020 642.875 1020 553.5 955 c 0,33,34
 479.63 901.276 479.63 901.276 433 829 c 1,35,-1
 341 143 l 1,21,22
EndSplineSet
EndChar

StartChar: c
Encoding: 99 99 63
Width: 879
Flags: HW
LayerCount: 2
Fore
SplineSet
828 921 m 1,0,1
 719.098 1016 719.098 1016 632.049 1016 c 128,-1,2
 545 1016 545 1016 483.5 979.5 c 128,-1,3
 422 943 422 943 378 872.5 c 0,4,5
 286 725.091 286 725.091 286 460 c 0,6,7
 286 203.267 286 203.267 406.5 139 c 0,8,9
 444 119 444 119 485.5 119 c 128,-1,10
 527 119 527 119 558 125.5 c 128,-1,11
 589 132 589 132 620 146 c 0,12,13
 676.079 171.326 676.079 171.326 759 232 c 1,14,-1
 798 151 l 1,15,16
 707.533 45.4552 707.533 45.4552 564.5 -1 c 0,17,18
 506 -20 506 -20 428 -20 c 128,-1,19
 350 -20 350 -20 283.5 10.5 c 128,-1,20
 217 41 217 41 171 99 c 0,21,22
 77 217.522 77 217.522 77 430 c 0,23,24
 77 688.03 77 688.03 227.5 911.5 c 0,25,26
 331.416 1065.8 331.416 1065.8 489 1130 c 0,27,28
 570 1163 570 1163 666 1163 c 0,29,30
 794.364 1163 794.364 1163 886 1115 c 1,31,-1
 828 921 l 1,0,1
EndSplineSet
EndChar

StartChar: d
Encoding: 100 100 64
Width: 1179
Flags: HW
LayerCount: 2
Fore
SplineSet
844 -20 m 0,0,1
 723.739 -20 723.739 -20 723.739 102.622 c 0,2,3
 723.739 108.652 723.739 108.652 724 115 c 2,4,-1
 724 142 l 1,5,6
 636.046 32.9373 636.046 32.9373 509.5 -6 c 0,7,8
 464 -20 464 -20 396.5 -20 c 128,-1,9
 329 -20 329 -20 267 12.5 c 128,-1,10
 205 45 205 45 164 102.5 c 0,11,12
 83 216.098 83 216.098 83 412 c 0,13,14
 83 573.16 83 573.16 159.5 743.5 c 0,15,16
 288.042 1029.72 288.042 1029.72 540 1128.5 c 0,17,18
 628 1163 628 1163 710.25 1163 c 128,-1,19
 792.5 1163 792.5 1163 869 1145 c 1,20,-1
 920 1482 l 1,21,-1
 797 1525 l 1,22,-1
 818 1608 l 1,23,-1
 1082 1650 l 1,24,-1
 1135 1623 l 1,25,-1
 927 187 l 2,26,27
 916.444 111 916.444 111 946.972 111 c 128,-1,28
 977.5 111 977.5 111 1035 157 c 1,29,-1
 1066 105 l 1,30,31
 1021.09 37.6397 1021.09 37.6397 923.5 -4 c 0,32,33
 886 -20 886 -20 844 -20 c 0,0,1
846 997 m 1,34,35
 794.96 1041 794.96 1041 711.98 1041 c 128,-1,36
 629 1041 629 1041 570.5 1012.5 c 128,-1,37
 512 984 512 984 466 935.5 c 128,-1,38
 420 887 420 887 386.5 824.5 c 128,-1,39
 353 762 353 762 331 693.5 c 0,40,41
 288 559.614 288 559.614 288 419.307 c 128,-1,42
 288 279 288 279 330.5 200.5 c 128,-1,43
 373 122 373 122 446 122 c 0,44,45
 570 122 570 122 686.5 238.5 c 0,46,47
 718 270 718 270 740 300 c 1,48,-1
 846 997 l 1,34,35
EndSplineSet
EndChar

StartChar: e
Encoding: 101 101 65
Width: 1051
Flags: HW
LayerCount: 2
Fore
SplineSet
510 119 m 0,0,1
 693.05 119 693.05 119 850 265 c 1,2,-1
 896 182 l 1,3,4
 845.922 110.46 845.922 110.46 742.5 51.5 c 0,5,6
 617.082 -20 617.082 -20 498.541 -20 c 128,-1,7
 380 -20 380 -20 303.5 18 c 0,8,9
 153.916 92.3033 153.916 92.3033 106.5 263 c 0,10,11
 85.8367 337.388 85.8367 337.388 85.8367 380.184 c 128,-1,12
 85.8367 422.98 85.8367 422.98 87.4184 473.49 c 128,-1,13
 89 524 89 524 110.5 615 c 128,-1,14
 132 706 132 706 170 787.5 c 128,-1,15
 208 869 208 869 260.5 938 c 128,-1,16
 313 1007 313 1007 378 1057 c 0,17,18
 515.8 1163 515.8 1163 676 1163 c 0,19,20
 884.231 1163 884.231 1163 942.5 1011.5 c 0,21,22
 960 966 960 966 960 901 c 128,-1,23
 960 836 960 836 924 772.5 c 128,-1,24
 888 709 888 709 830 659 c 128,-1,25
 772 609 772 609 699 572.5 c 128,-1,26
 626 536 626 536 552 511.5 c 0,27,28
 403.416 462.307 403.416 462.307 295 460 c 1,29,30
 293 438.667 293 438.667 293 420.833 c 128,-1,31
 293 403 293 403 294 378 c 128,-1,32
 295 353 295 353 304 315 c 128,-1,33
 313 277 313 277 329 241.5 c 128,-1,34
 345 206 345 206 370 179 c 0,35,36
 425.556 119 425.556 119 510 119 c 0,0,1
300 570 m 1,37,38
 446.23 577.133 446.23 577.133 588.5 659.5 c 0,39,40
 689.21 717.806 689.21 717.806 732.5 801.5 c 0,41,42
 755 845 755 845 755 910 c 128,-1,43
 755 975 755 975 720 1010.5 c 128,-1,44
 685 1046 685 1046 631.5 1046 c 128,-1,45
 578 1046 578 1046 535 1022.5 c 128,-1,46
 492 999 492 999 457.5 960 c 128,-1,47
 423 921 423 921 395.5 871 c 128,-1,48
 368 821 368 821 348.5 768 c 0,49,50
 311.647 667.836 311.647 667.836 300 570 c 1,37,38
EndSplineSet
EndChar

StartChar: f
Encoding: 102 102 66
Width: 701
Flags: HW
LayerCount: 2
Fore
SplineSet
268 1012 m 1,0,-1
 129 1012 l 1,1,-1
 144 1087 l 1,2,-1
 293 1149 l 1,3,-1
 305 1220 l 1,4,5
 334.468 1402.7 334.468 1402.7 460.5 1537.5 c 0,6,7
 584.382 1670 584.382 1670 724 1670 c 0,8,9
 823.882 1670 823.882 1670 882 1644 c 1,10,-1
 823 1476 l 1,11,-1
 800 1491.5 l 2,12,13
 750.294 1524 750.294 1524 696.147 1524 c 128,-1,14
 642 1524 642 1524 612 1503 c 128,-1,15
 582 1482 582 1482 559.5 1445 c 0,16,17
 517.059 1375.21 517.059 1375.21 500 1243 c 2,18,-1
 489 1155 l 1,19,-1
 724 1155 l 1,20,-1
 708 1012 l 1,21,-1
 471 1012 l 1,22,-1
 337 -59 l 2,23,24
 311.218 -261.291 311.218 -261.291 206 -386.5 c 0,25,26
 99.5294 -513.2 99.5294 -513.2 -63.5 -513.2 c 0,27,28
 -156.4 -513.2 -156.4 -513.2 -207 -500 c 1,29,-1
 -154 -332 l 1,30,31
 -59 -370 -59 -370 11 -370 c 0,32,33
 96.6471 -370 96.6471 -370 130 -127 c 1,34,-1
 268 1012 l 1,0,-1
EndSplineSet
EndChar

StartChar: g
Encoding: 103 103 67
Width: 1153
Flags: HW
LayerCount: 2
Fore
SplineSet
540 1128.5 m 0,0,1
 628 1163 628 1163 732.875 1163 c 128,-1,2
 837.75 1163 837.75 1163 948 1121 c 1,3,-1
 1068 1163 l 1,4,-1
 875 -77 l 2,5,6
 841.785 -295.666 841.785 -295.666 662 -411 c 0,7,8
 510.794 -508 510.794 -508 338 -508 c 0,9,10
 206.5 -508 206.5 -508 119 -473 c 1,11,-1
 169 -288 l 1,12,13
 299.2 -350 299.2 -350 436 -350 c 0,14,15
 563.152 -350 563.152 -350 607.5 -310 c 0,16,17
 650.667 -271.065 650.667 -271.065 671 -145 c 2,18,-1
 716 133 l 1,19,20
 629.819 29.5829 629.819 29.5829 506 -7 c 0,21,22
 462 -20 462 -20 395.5 -20 c 128,-1,23
 329 -20 329 -20 267 12.5 c 128,-1,24
 205 45 205 45 164 102.5 c 0,25,26
 83 216.098 83 216.098 83 412 c 0,27,28
 83 573.16 83 573.16 159.5 743.5 c 0,29,30
 288.042 1029.72 288.042 1029.72 540 1128.5 c 0,0,1
843 1000 m 1,31,32
 791.304 1041 791.304 1041 710.152 1041 c 128,-1,33
 629 1041 629 1041 570.5 1012.5 c 128,-1,34
 512 984 512 984 466 935.5 c 128,-1,35
 420 887 420 887 386.5 824.5 c 128,-1,36
 353 762 353 762 331 693.5 c 0,37,38
 288 559.614 288 559.614 288 419.307 c 128,-1,39
 288 279 288 279 330.5 200.5 c 128,-1,40
 373 122 373 122 446 122 c 0,41,42
 570 122 570 122 688 240 c 0,43,44
 720 272 720 272 742 302 c 1,45,-1
 843 1000 l 1,31,32
EndSplineSet
EndChar

StartChar: h
Encoding: 104 104 68
Width: 1239
Flags: HW
LayerCount: 2
Fore
SplineSet
890 -20 m 0,0,1
 759.722 -20 759.722 -20 767 111 c 0,2,3
 771.917 197.042 771.917 197.042 790.458 299.021 c 128,-1,4
 809 401 809 401 816.5 444 c 128,-1,5
 824 487 824 487 834 538.5 c 128,-1,6
 844 590 844 590 852.5 643.5 c 0,7,8
 872 766.235 872 766.235 872 835.118 c 128,-1,9
 872 904 872 904 863 935 c 128,-1,10
 854 966 854 966 838 981.5 c 0,11,12
 813.742 1005 813.742 1005 766.371 1005 c 128,-1,13
 719 1005 719 1005 674 985.5 c 128,-1,14
 629 966 629 966 583.5 931.5 c 0,15,16
 487.47 858.686 487.47 858.686 413 750 c 1,17,-1
 313 0 l 1,18,-1
 119 0 l 1,19,-1
 312 1482 l 1,20,-1
 194 1525 l 1,21,-1
 211 1608 l 1,22,-1
 477 1650 l 1,23,-1
 529 1623 l 1,24,-1
 434 911 l 1,25,26
 566.398 1087.53 566.398 1087.53 730 1143.5 c 0,27,28
 787 1163 787 1163 842.5 1163 c 128,-1,29
 898 1163 898 1163 939.5 1147.5 c 128,-1,30
 981 1132 981 1132 1010.5 1096.5 c 0,31,32
 1072 1022.49 1072 1022.49 1072 861 c 0,33,34
 1072 771.556 1072 771.556 1050.5 659.278 c 2,35,-1
 1021 505 l 1,36,-1
 995 346 l 2,37,38
 968.091 176.264 968.091 176.264 975.545 143.132 c 128,-1,39
 983 110 983 110 997 110 c 0,40,41
 1031.53 110 1031.53 110 1104 166 c 1,42,-1
 1135 114 l 1,43,44
 1113.77 78.6155 1113.77 78.6155 1066.38 46.3077 c 0,45,46
 969.133 -20 969.133 -20 890 -20 c 0,0,1
EndSplineSet
EndChar

StartChar: dotaccent
Encoding: 729 729 70
Width: 388
Flags: HW
LayerCount: 2
Fore
SplineSet
178.5 1388 m 0,0,1
 152 1388 152 1388 130.5 1397.5 c 0,2,3
 60.8947 1428.26 60.8947 1428.26 60.8947 1502.97 c 0,4,5
 60.8947 1562.9 60.8947 1562.9 110 1608.5 c 0,6,7
 155.769 1651 155.769 1651 194.885 1651 c 128,-1,8
 234 1651 234 1651 257 1641.5 c 0,9,10
 327.111 1612.54 327.111 1612.54 327.111 1541.09 c 0,11,12
 327.111 1480.11 327.111 1480.11 279.5 1432.5 c 0,13,14
 235 1388 235 1388 178.5 1388 c 0,0,1
EndSplineSet
EndChar

StartChar: dotlessi
Encoding: 305 305 71
Width: 641
Flags: HW
LayerCount: 2
Fore
SplineSet
286 -20 m 0,0,1
 162.359 -20 162.359 -20 162.359 93.997 c 0,2,3
 162.359 162.144 162.359 162.144 194.679 368.072 c 2,4,-1
 288 980 l 1,5,-1
 140 1031 l 1,6,-1
 158 1112 l 1,7,-1
 460 1163 l 1,8,-1
 509 1139 l 1,9,-1
 370 187 l 2,10,11
 367.25 168 367.25 168 367.25 153.75 c 0,12,13
 367.25 111 367.25 111 392 111 c 0,14,15
 428.65 111 428.65 111 499 178 c 1,16,-1
 531 125 l 1,17,18
 481.39 47.0413 481.39 47.0413 372.5 -1.5 c 0,19,20
 331 -20 331 -20 286 -20 c 0,0,1
EndSplineSet
EndChar

StartChar: k
Encoding: 107 107 73
Width: 1078
Flags: HW
LayerCount: 2
Fore
SplineSet
298 1482 m 1,0,-1
 181 1525 l 1,1,-1
 197 1608 l 1,2,-1
 463 1650 l 1,3,-1
 515 1623 l 1,4,-1
 299 0 l 1,5,-1
 105 0 l 1,6,-1
 298 1482 l 1,0,-1
947 121 m 0,7,8
 997.097 121 997.097 121 1058 180 c 1,9,-1
 1092 119 l 1,10,11
 1039.56 32.841 1039.56 32.841 918.5 -7 c 0,12,13
 879 -20 879 -20 837.5 -20 c 0,14,15
 739.576 -20 739.576 -20 681 88 c 2,16,-1
 396 610 l 1,17,-1
 398 611 l 1,18,-1
 396 611 l 1,19,-1
 492.5 683 l 1,20,21
 653.12 799.494 653.12 799.494 733 906 c 0,22,23
 769.349 955.981 769.349 955.981 776.675 997.49 c 2,24,-1
 787 1055 l 2,25,26
 796.112 1106.03 796.112 1106.03 839 1136.5 c 0,27,28
 876.296 1163 876.296 1163 922 1163 c 256,29,30
 991.111 1163 991.111 1163 1018.5 1105 c 0,31,32
 1091.32 950.801 1091.32 950.801 665.5 680.5 c 1,33,-1
 569 620 l 1,34,-1
 831 216 l 2,35,36
 858 174 858 174 891 147.5 c 128,-1,37
 924 121 924 121 947 121 c 0,7,8
EndSplineSet
EndChar

StartChar: l
Encoding: 108 108 74
Width: 606
Flags: HW
LayerCount: 2
Fore
SplineSet
359 111 m 0,0,1
 396.286 111 396.286 111 467 177 c 1,2,-1
 498 125 l 1,3,4
 478.261 88.8124 478.261 88.8124 430.631 52.9062 c 0,5,6
 333.918 -20 333.918 -20 265.459 -20 c 128,-1,7
 197 -20 197 -20 169.5 11 c 128,-1,8
 142 42 142 42 142 115 c 0,9,10
 142 154 142 154 148 192 c 2,11,-1
 332 1482 l 1,12,-1
 209 1525 l 1,13,-1
 230 1608 l 1,14,-1
 492 1650 l 1,15,-1
 540 1623 l 1,16,-1
 338 187 l 2,17,18
 327.444 111 327.444 111 359 111 c 0,0,1
EndSplineSet
EndChar

StartChar: m
Encoding: 109 109 75
Width: 1882
Flags: HW
LayerCount: 2
Fore
SplineSet
1534 -20 m 0,0,1
 1414.74 -20 1414.74 -20 1414.74 97.1272 c 0,2,3
 1414.74 181.318 1414.74 181.318 1439.37 336.659 c 2,4,-1
 1472 542 l 2,5,6
 1505 748.25 1505 748.25 1505 825.625 c 128,-1,7
 1505 903 1505 903 1496.5 934 c 128,-1,8
 1488 965 1488 965 1474 980 c 0,9,10
 1452.53 1003 1452.53 1003 1409.27 1003 c 128,-1,11
 1366 1003 1366 1003 1324.5 984 c 128,-1,12
 1283 965 1283 965 1240.5 932 c 0,13,14
 1154.91 865.545 1154.91 865.545 1079 758 c 1,15,16
 1070.35 649.057 1070.35 649.057 1048 505 c 1,17,-1
 984 0 l 1,18,-1
 787 0 l 1,19,-1
 843 443 l 1,20,-1
 857.5 538.5 l 1,21,22
 884 720.467 884 720.467 884 812.233 c 128,-1,23
 884 904 884 904 877 935 c 128,-1,24
 870 966 870 966 856 981.5 c 0,25,26
 834.774 1005 834.774 1005 785.887 1005 c 128,-1,27
 737 1005 737 1005 692.5 986 c 128,-1,28
 648 967 648 967 603 933 c 0,29,30
 508.348 861.485 508.348 861.485 432 755 c 1,31,-1
 330 0 l 1,32,-1
 135 0 l 1,33,-1
 265 963 l 1,34,-1
 166 1022 l 1,35,-1
 184 1111 l 1,36,-1
 426 1163 l 1,37,-1
 474 1139 l 1,38,-1
 455 927 l 1,39,40
 588.084 1090.03 588.084 1090.03 751.5 1144.5 c 0,41,42
 807 1163 807 1163 858.5 1163 c 128,-1,43
 910 1163 910 1163 948.5 1150 c 128,-1,44
 987 1137 987 1137 1015 1108 c 0,45,46
 1072.39 1048.56 1072.39 1048.56 1082 916 c 1,47,48
 1213.23 1087.61 1213.23 1087.61 1368 1143.5 c 0,49,50
 1422 1163 1422 1163 1474.5 1163 c 128,-1,51
 1527 1163 1527 1163 1568.5 1146 c 128,-1,52
 1610 1129 1610 1129 1640 1092.5 c 0,53,54
 1704 1014.63 1704 1014.63 1704 861 c 0,55,56
 1704 781.562 1704 781.562 1684.5 665.781 c 0,57,58
 1622.6 292.53 1622.6 292.53 1618.3 221.765 c 128,-1,59
 1614 151 1614 151 1618 131 c 128,-1,60
 1622 111 1622 111 1636 111 c 0,61,62
 1672.71 111 1672.71 111 1745 177 c 1,63,-1
 1776 125 l 1,64,65
 1751.24 86.0887 1751.24 86.0887 1706.12 51.5444 c 0,66,67
 1612.67 -20 1612.67 -20 1534 -20 c 0,0,1
EndSplineSet
EndChar

StartChar: n
Encoding: 110 110 76
Width: 1258
Flags: HW
LayerCount: 2
Fore
SplineSet
907 -21 m 0,0,1
 776.667 -21 776.667 -21 784 111 c 0,2,3
 787.723 176.157 787.723 176.157 798.862 244.579 c 2,4,-1
 817.5 357 l 2,5,6
 823.346 391.299 823.346 391.299 841.673 490.65 c 128,-1,7
 860 590 860 590 868.5 643.5 c 0,8,9
 889 772.529 889 772.529 889 838.265 c 128,-1,10
 889 904 889 904 881 935 c 128,-1,11
 873 966 873 966 858.5 981.5 c 0,12,13
 836.516 1005 836.516 1005 786.758 1005 c 128,-1,14
 737 1005 737 1005 692.5 986 c 128,-1,15
 648 967 648 967 603 933 c 0,16,17
 508.348 861.485 508.348 861.485 432 755 c 1,18,-1
 330 0 l 1,19,-1
 135 0 l 1,20,-1
 265 963 l 1,21,-1
 167 1022 l 1,22,-1
 185 1111 l 1,23,-1
 427 1163 l 1,24,-1
 475 1139 l 1,25,-1
 455 927 l 1,26,27
 588.084 1090.03 588.084 1090.03 751.5 1144.5 c 0,28,29
 807 1163 807 1163 861 1163 c 128,-1,30
 915 1163 915 1163 956.5 1147.5 c 128,-1,31
 998 1132 998 1132 1027.5 1096.5 c 0,32,33
 1089 1022.49 1089 1022.49 1089 861 c 0,34,35
 1089 776.778 1089 776.778 1067 661.889 c 128,-1,36
 1045 547 1045 547 1034.5 487.5 c 0,37,38
 982 190 982 190 995.5 130 c 0,39,40
 1000 110 1000 110 1021.75 110 c 128,-1,41
 1043.5 110 1043.5 110 1101 156 c 1,42,-1
 1132 104 l 1,43,44
 1087.56 37.3416 1087.56 37.3416 987 -5 c 0,45,46
 949 -21 949 -21 907 -21 c 0,0,1
EndSplineSet
EndChar

StartChar: o
Encoding: 111 111 77
Width: 1143
Flags: HW
LayerCount: 2
Fore
SplineSet
315 11 m 0,0,1
 86.8049 107.905 86.8049 107.905 86.8049 456.737 c 0,2,3
 86.8049 724.268 86.8049 724.268 242.5 937 c 0,4,5
 345.457 1077.67 345.457 1077.67 495 1134.5 c 0,6,7
 570 1163 570 1163 659.5 1163 c 128,-1,8
 749 1163 749 1163 822 1132 c 128,-1,9
 895 1101 895 1101 945.5 1042 c 0,10,11
 1051.05 918.681 1051.05 918.681 1051.05 693.428 c 0,12,13
 1051.05 416.497 1051.05 416.497 895.5 205.5 c 0,14,15
 792.401 65.6522 792.401 65.6522 642 8.5 c 0,16,17
 567 -20 567 -20 477.5 -20 c 128,-1,18
 388 -20 388 -20 315 11 c 0,0,1
421.5 125.5 m 0,19,20
 463 102 463 102 519 102 c 128,-1,21
 575 102 575 102 621.5 128.5 c 128,-1,22
 668 155 668 155 704.5 200.5 c 128,-1,23
 741 246 741 246 767.5 306 c 0,24,25
 842.118 474.946 842.118 474.946 842.118 686.865 c 0,26,27
 842.118 945.235 842.118 945.235 714.5 1017.5 c 0,28,29
 673 1041 673 1041 617 1041 c 128,-1,30
 561 1041 561 1041 514.5 1014.5 c 128,-1,31
 468 988 468 988 431.5 942.5 c 128,-1,32
 395 897 395 897 368.5 837 c 0,33,34
 293.882 668.054 293.882 668.054 293.882 456.135 c 0,35,36
 293.882 197.765 293.882 197.765 421.5 125.5 c 0,19,20
EndSplineSet
Substitution2: "Single Substitution lookup 16 subtable" ordmasculine
Substitution2: "'aalt' Access All Alternates in Latin lookup 0 subtable" ordmasculine
EndChar

StartChar: p
Encoding: 112 112 78
Width: 1160
Flags: HW
LayerCount: 2
Fore
SplineSet
622 14 m 0,0,1
 535 -20 535 -20 455.214 -20 c 128,-1,2
 375.429 -20 375.429 -20 300 -4 c 1,3,-1
 229 -520 l 1,4,-1
 39 -520 l 1,5,-1
 242 981 l 1,6,-1
 133 1032 l 1,7,-1
 151 1111 l 1,8,-1
 413 1163 l 1,9,-1
 460 1139 l 1,10,-1
 442 1016 l 1,11,12
 563.655 1163 563.655 1163 732 1163 c 0,13,14
 899.931 1163 899.931 1163 989 1040 c 0,15,16
 1072 925.381 1072 925.381 1072 730 c 0,17,18
 1072 473.578 1072 473.578 904.5 240 c 0,19,20
 789.327 79.3923 789.327 79.3923 622 14 c 0,0,1
320 137 m 1,21,22
 372.2 101 372.2 101 453.6 101 c 128,-1,23
 535 101 535 101 592 129.5 c 128,-1,24
 649 158 649 158 693.5 206.5 c 128,-1,25
 738 255 738 255 770.5 317.5 c 128,-1,26
 803 380 803 380 824.5 448.5 c 0,27,28
 867 583.907 867 583.907 867 723.453 c 128,-1,29
 867 863 867 863 822 941.5 c 128,-1,30
 777 1020 777 1020 699 1020 c 0,31,32
 584.35 1020 584.35 1020 471.5 909 c 0,33,34
 441 879 441 879 419 849 c 1,35,-1
 320 137 l 1,21,22
EndSplineSet
EndChar

StartChar: q
Encoding: 113 113 79
Width: 1155
Flags: HW
LayerCount: 2
Fore
SplineSet
712 128 m 1,0,1
 584.414 -20 584.414 -20 413 -20 c 0,2,3
 251.348 -20 251.348 -20 164 102.5 c 0,4,5
 83 216.098 83 216.098 83 412 c 0,6,7
 83 573.16 83 573.16 159.5 743.5 c 0,8,9
 288.042 1029.72 288.042 1029.72 540 1128.5 c 0,10,11
 628 1163 628 1163 725.5 1163 c 128,-1,12
 823 1163 823 1163 946 1122 c 1,13,-1
 1037 1132 l 1,14,-1
 847 -311 l 2,15,16
 840.338 -354.303 840.338 -354.303 851.169 -371.152 c 128,-1,17
 862 -388 862 -388 868 -388 c 0,18,19
 902.3 -388 902.3 -388 976 -321 c 1,20,-1
 1007 -374 l 1,21,22
 988.214 -408.44 988.214 -408.44 938.607 -444.72 c 0,23,24
 838.408 -518 838.408 -518 760 -518 c 0,25,26
 645.714 -518 645.714 -518 645.714 -397.342 c 0,27,28
 645.714 -390.857 645.714 -390.857 646 -384 c 2,29,-1
 712 128 l 1,0,1
827 1011 m 1,30,31
 779.353 1041 779.353 1041 704.177 1041 c 128,-1,32
 629 1041 629 1041 570.5 1012.5 c 128,-1,33
 512 984 512 984 466 935.5 c 128,-1,34
 420 887 420 887 386.5 824.5 c 128,-1,35
 353 762 353 762 331 693.5 c 0,36,37
 288 559.614 288 559.614 288 419.307 c 128,-1,38
 288 279 288 279 330.5 200.5 c 128,-1,39
 373 122 373 122 446 122 c 0,40,41
 566.367 122 566.367 122 679 231 c 0,42,43
 710 261 710 261 733 291 c 1,44,-1
 827 1011 l 1,30,31
EndSplineSet
EndChar

StartChar: r
Encoding: 114 114 80
Width: 836
Flags: HW
LayerCount: 2
Fore
SplineSet
257 962 m 1,0,-1
 157 1022 l 1,1,-1
 175 1111 l 1,2,-1
 417 1163 l 1,3,-1
 465 1139 l 1,4,-1
 444 912 l 1,5,6
 518.231 1060.46 518.231 1060.46 674.5 1134 c 0,7,8
 734 1162 734 1162 777.5 1162 c 0,9,10
 854 1162 854 1162 867 1149 c 1,11,-1
 823 941 l 1,12,13
 795 955 795 955 739.5 955 c 128,-1,14
 684 955 684 955 643.5 943 c 128,-1,15
 603 931 603 931 563 903.5 c 0,16,17
 472.399 841.212 472.399 841.212 419 716 c 1,18,-1
 330 0 l 1,19,-1
 135 0 l 1,20,-1
 257 962 l 1,0,-1
EndSplineSet
EndChar

StartChar: s
Encoding: 115 115 81
Width: 869
Flags: HW
LayerCount: 2
Fore
SplineSet
78 190 m 1,0,1
 146.47 142.927 146.47 142.927 259.5 122.5 c 0,2,3
 301 115 301 115 339.5 115 c 128,-1,4
 378 115 378 115 413 119 c 128,-1,5
 448 123 448 123 477.5 137.5 c 0,6,7
 545 170.678 545 170.678 545 259 c 0,8,9
 545 362.238 545 362.238 433.5 452.5 c 0,10,11
 402 478 402 478 372.5 499.5 c 128,-1,12
 343 521 343 521 307 553.5 c 128,-1,13
 271 586 271 586 238.5 629 c 0,14,15
 160 732.862 160 732.862 160 823.431 c 128,-1,16
 160 914 160 914 191.5 974 c 128,-1,17
 223 1034 223 1034 276.5 1076 c 0,18,19
 387.321 1163 387.321 1163 545 1163 c 0,20,21
 662.615 1163 662.615 1163 725.808 1147.5 c 128,-1,22
 789 1132 789 1132 801 1126 c 1,23,-1
 763 959 l 1,24,25
 737.456 997.317 737.456 997.317 623 1024.5 c 0,26,27
 583 1034 583 1034 543.5 1034 c 128,-1,28
 504 1034 504 1034 473 1028 c 128,-1,29
 442 1022 442 1022 416.5 1006.5 c 0,30,31
 348.529 965.185 348.529 965.185 348.529 876.405 c 0,32,33
 348.529 765.811 348.529 765.811 508 645 c 0,34,35
 610.265 566.335 610.265 566.335 650.632 514.167 c 0,36,37
 732 409.015 732 409.015 732 314.508 c 128,-1,38
 732 220 732 220 699.5 160.5 c 128,-1,39
 667 101 667 101 612.5 61 c 0,40,41
 502.138 -20 502.138 -20 336 -20 c 0,42,43
 188.091 -20 188.091 -20 85.5 17 c 0,44,45
 55 28 55 28 42 39 c 1,46,-1
 78 190 l 1,0,1
EndSplineSet
EndChar

StartChar: t
Encoding: 116 116 82
Width: 735
Flags: HW
LayerCount: 2
Fore
SplineSet
333 -20 m 0,0,1
 150 -20 150 -20 150 159 c 2,2,-1
 150 170.5 l 2,3,4
 150 200.8 150 200.8 162 292 c 2,5,-1
 253 1016 l 1,6,-1
 133 1016 l 1,7,-1
 153 1103 l 1,8,-1
 276 1150 l 1,9,10
 333.32 1218.07 333.32 1218.07 409 1416 c 1,11,-1
 504 1416 l 1,12,-1
 470 1155 l 1,13,-1
 732 1155 l 1,14,-1
 712 1016 l 1,15,-1
 453 1016 l 1,16,-1
 370 390 l 2,17,18
 353 268.875 353 268.875 353 226.438 c 128,-1,19
 353 184 353 184 356.5 166 c 128,-1,20
 360 148 360 148 369 137.5 c 0,21,22
 384.857 119 384.857 119 420.429 119 c 128,-1,23
 456 119 456 119 483 127.5 c 128,-1,24
 510 136 510 136 537 149 c 0,25,26
 592.862 175.897 592.862 175.897 629 203 c 1,27,-1
 647 125 l 1,28,29
 579.42 42.4018 579.42 42.4018 422.5 -5.5 c 0,30,31
 375 -20 375 -20 333 -20 c 0,0,1
EndSplineSet
EndChar

StartChar: u
Encoding: 117 117 83
Width: 1207
Flags: HW
LayerCount: 2
Fore
SplineSet
750 120 m 1,0,1
 610 -20 610 -20 420 -20 c 0,2,3
 231.906 -20 231.906 -20 183 124 c 0,4,5
 165 177 165 177 165 232.5 c 128,-1,6
 165 288 165 288 168 329 c 128,-1,7
 171 370 171 370 176.5 414.5 c 2,8,-1
 250 963 l 1,9,-1
 152 1022 l 1,10,-1
 170 1111 l 1,11,-1
 412 1163 l 1,12,-1
 460 1139 l 1,13,-1
 370.5 430 l 2,14,15
 361 354 361 354 361 294 c 128,-1,16
 361 234 361 234 371 201 c 128,-1,17
 381 168 381 168 400 149.5 c 0,18,19
 433.378 117 433.378 117 485.689 117 c 128,-1,20
 538 117 538 117 573.5 127.5 c 128,-1,21
 609 138 609 138 642.5 156 c 0,22,23
 708.798 191.623 708.798 191.623 761 246 c 1,24,-1
 881 1155 l 1,25,-1
 1074 1155 l 1,26,-1
 949 189 l 2,27,28
 946.619 170.905 946.619 170.905 946.619 157.118 c 0,29,30
 946.619 113 946.619 113 971 113 c 0,31,32
 1005.1 113 1005.1 113 1077 180 c 1,33,-1
 1108 127 l 1,34,35
 1088.31 90.8962 1088.31 90.8962 1039.15 54.9481 c 0,36,37
 939.408 -18 939.408 -18 868.204 -18 c 128,-1,38
 797 -18 797 -18 772.405 14.9392 c 128,-1,39
 747.811 47.8784 747.811 47.8784 747.811 76.277 c 128,-1,40
 747.811 104.676 747.811 104.676 750 120 c 1,0,1
EndSplineSet
EndChar

StartChar: w
Encoding: 119 119 84
Width: 1698
Flags: HW
LayerCount: 2
Fore
SplineSet
256 355 m 1,0,-1
 171 965 l 1,1,2
 153.749 1054.13 153.749 1054.13 67 998 c 1,3,-1
 37 1058 l 1,4,5
 80.8691 1116.49 80.8691 1116.49 164 1149.5 c 0,6,7
 198 1163 198 1163 237 1163 c 256,8,9
 339.412 1163 339.412 1163 362.5 1084.5 c 0,10,11
 370 1059 370 1059 373 1026 c 2,12,-1
 425 340 l 1,13,-1
 436 155 l 1,14,-1
 513 323 l 1,15,-1
 866 1155 l 1,16,-1
 1040 1155 l 1,17,-1
 1118 155 l 1,18,-1
 1229 323 l 1,19,20
 1366.97 536.224 1366.97 536.224 1426 785 c 0,21,22
 1451.07 890.636 1451.07 890.636 1444.03 929.318 c 128,-1,23
 1437 968 1437 968 1431.5 987 c 2,24,-1
 1421 1022.5 l 2,25,26
 1416 1039 1416 1039 1416 1075 c 128,-1,27
 1416 1111 1416 1111 1442.5 1137 c 128,-1,28
 1469 1163 1469 1163 1523 1163 c 0,29,30
 1634 1163 1634 1163 1634 953 c 0,31,32
 1634 802.729 1634 802.729 1484.5 524 c 0,33,34
 1455 469 1455 469 1424 418 c 2,35,-1
 1159 -8 l 1,36,-1
 972 -19 l 1,37,-1
 934 355 l 1,38,-1
 901 737 l 1,39,-1
 894 878 l 1,40,-1
 845 736 l 1,41,-1
 649 322 l 1,42,-1
 483 -8 l 1,43,-1
 315 -20 l 1,44,-1
 256 355 l 1,0,-1
EndSplineSet
EndChar

StartChar: x
Encoding: 120 120 85
Width: 1008
Flags: HW
LayerCount: 2
Fore
SplineSet
830 111 m 0,0,1
 864.05 111 864.05 111 935 177 c 1,2,-1
 970 123 l 1,3,4
 954.31 88.4828 954.31 88.4828 906.655 52.7414 c 0,5,6
 809.667 -20 809.667 -20 735 -20 c 0,7,8
 675.536 -20 675.536 -20 653.268 1.5 c 0,9,10
 625.122 28.6757 625.122 28.6757 604 85 c 2,11,-1
 471 432 l 1,12,-1
 187 0 l 1,13,-1
 -22 0 l 1,14,-1
 407 586 l 1,15,-1
 224 976 l 2,16,17
 210 1005 210 1005 200 1018.5 c 128,-1,18
 190 1032 190 1032 170.393 1032 c 128,-1,19
 150.786 1032 150.786 1032 90 986 c 1,20,-1
 56 1040 l 1,21,22
 73.2388 1071.03 73.2388 1071.03 117.119 1101.01 c 0,23,24
 207.829 1163 207.829 1163 276 1163 c 0,25,26
 337.923 1163 337.923 1163 359.462 1143 c 0,27,28
 386.948 1117.48 386.948 1117.48 408 1059 c 1,29,-1
 522 717 l 1,30,-1
 814 1155 l 1,31,-1
 1026 1155 l 1,32,-1
 585 560 l 1,33,-1
 782 167 l 2,34,35
 796 138 796 138 806 124.5 c 128,-1,36
 816 111 816 111 830 111 c 0,0,1
EndSplineSet
EndChar

StartChar: y
Encoding: 121 121 86
Width: 1071
Flags: HW
LayerCount: 2
Fore
SplineSet
-83 -320 m 1,0,1
 10.3333 -360 10.3333 -360 63.6667 -360 c 128,-1,2
 117 -360 117 -360 158.5 -345.5 c 128,-1,3
 200 -331 200 -331 244 -296 c 0,4,5
 345.564 -215.21 345.564 -215.21 413 -53 c 1,6,-1
 350 -53 l 1,7,-1
 180 965 l 1,8,9
 171 996 171 996 163 1008.5 c 128,-1,10
 155 1021 155 1021 130.688 1021 c 128,-1,11
 106.375 1021 106.375 1021 58 978 c 1,12,-1
 29 1038 l 1,13,14
 73.6582 1104.99 73.6582 1104.99 169.5 1147 c 0,15,16
 206 1163 206 1163 244 1163 c 128,-1,17
 282 1163 282 1163 305.5 1153.5 c 128,-1,18
 329 1144 329 1144 343.5 1126 c 0,19,20
 366.47 1097.49 366.47 1097.49 378 1026 c 1,21,-1
 463 295 l 1,22,-1
 483 21 l 1,23,-1
 642 338 l 1,24,-1
 703.5 479 l 1,25,26
 807.802 708.819 807.802 708.819 832 898 c 0,27,28
 836.743 937.522 836.743 937.522 825.371 970.761 c 2,29,-1
 808 1021 l 2,30,31
 802 1038 802 1038 802 1054 c 0,32,33
 802 1110 802 1110 829.5 1136 c 128,-1,34
 857 1162 857 1162 899 1162 c 0,35,36
 1027 1162 1027 1162 1027 972 c 0,37,38
 1027 773.205 1027 773.205 867.5 471.5 c 1,39,-1
 659 69 l 1,40,41
 507.824 -212.501 507.824 -212.501 401 -340 c 1,42,43
 327.318 -446.43 327.318 -446.43 173 -489 c 0,44,45
 115 -505 115 -505 71 -505 c 128,-1,46
 27 -505 27 -505 4 -502.5 c 128,-1,47
 -19 -500 -19 -500 -44 -496 c 0,48,49
 -103.615 -486.462 -103.615 -486.462 -129 -478 c 1,50,-1
 -83 -320 l 1,0,1
EndSplineSet
EndChar

StartChar: z
Encoding: 122 122 87
Width: 1025
Flags: HW
LayerCount: 2
Fore
SplineSet
743.5 1133.5 m 2,0,1
 811 1128 811 1128 868.111 1128 c 128,-1,2
 925.222 1128 925.222 1128 968 1163 c 1,3,-1
 1026 1103 l 1,4,-1
 376 296 l 1,5,-1
 248 153 l 1,6,-1
 660 153 l 2,7,8
 729.023 153 729.023 153 783.5 200 c 128,-1,9
 838.003 247.022 838.003 247.022 848 315 c 1,10,-1
 910 315 l 1,11,12
 910 165 910 165 863.5 49.5 c 0,13,14
 848 11 848 11 831 0 c 0,15,16
 795.455 -23 795.455 -23 733.227 -23 c 128,-1,17
 671 -23 671 -23 593.5 -18 c 128,-1,18
 516 -13 516 -13 436 -6.5 c 0,19,20
 232.923 10 232.923 10 191.462 10 c 0,21,22
 118.364 10 118.364 10 82 -10 c 1,23,-1
 65 -23 l 1,24,-1
 -3 39 l 1,25,-1
 639 827 l 1,26,-1
 777 979 l 1,27,-1
 393 980 l 2,28,29
 286.259 980 286.259 980 230.5 882 c 0,30,31
 214 853 214 853 209 819 c 1,32,-1
 146 819 l 1,33,34
 146 973.633 146 973.633 190 1089.5 c 0,35,36
 205 1129 205 1129 222 1140 c 0,37,38
 257.545 1163 257.545 1163 319.773 1163 c 128,-1,39
 382 1163 382 1163 455 1157.5 c 128,-1,40
 528 1152 528 1152 602 1145.5 c 2,41,-1
 743.5 1133.5 l 2,0,1
EndSplineSet
EndChar

StartChar: braceleft
Encoding: 123 123 88
Width: 1019
Flags: HW
LayerCount: 2
Fore
SplineSet
1001 1688 m 1,0,1
 988 1605.67 988 1605.67 988 1601 c 1,2,-1
 712 1601 l 1,3,-1
 616 970 l 2,4,5
 603.759 886.35 603.759 886.35 483.5 827.5 c 0,6,7
 460 816 460 816 433 804 c 2,8,-1
 373 776 l 1,9,10
 478.652 722 478.652 722 508.326 691.5 c 0,11,12
 565.339 632.9 565.339 632.9 556 575 c 2,13,-1
 461 -55 l 1,14,-1
 736 -55 l 1,15,16
 734 -61 734 -61 732.5 -75.5 c 128,-1,17
 731 -90 731 -90 728.5 -106.5 c 128,-1,18
 726 -123 726 -123 724 -143 c 1,19,20
 601.614 -178.996 601.614 -178.996 545.807 -184.498 c 128,-1,21
 490 -190 490 -190 446 -190 c 128,-1,22
 402 -190 402 -190 370 -183 c 128,-1,23
 338 -176 338 -176 318 -159.5 c 0,24,25
 281 -128.975 281 -128.975 281 -47 c 0,26,27
 281 -42 281 -42 285 -12 c 2,28,-1
 326 277 l 2,29,30
 345 412 345 412 371 579 c 1,31,32
 371 634.591 371 634.591 243 685.5 c 0,33,34
 199 703 199 703 154 714 c 1,35,-1
 172 838 l 1,36,37
 417 898 417 898 429 966 c 1,38,-1
 506 1483 l 1,39,40
 530.489 1634.02 530.489 1634.02 576.5 1683.5 c 0,41,42
 624.386 1735 624.386 1735 741 1735 c 0,43,44
 809.083 1735 809.083 1735 1001 1688 c 1,0,1
EndSplineSet
EndChar

StartChar: bar
Encoding: 124 124 89
Width: 854
Flags: HW
LayerCount: 2
Fore
SplineSet
360 1780 m 1,0,-1
 533 1780 l 1,1,-1
 533 -186 l 1,2,-1
 360 -186 l 1,3,-1
 360 1780 l 1,0,-1
EndSplineSet
EndChar

StartChar: asciitilde
Encoding: 126 126 91
Width: 1137
Flags: HW
LayerCount: 2
Fore
SplineSet
425 892 m 0,0,1
 300.264 892 300.264 892 223 775 c 1,2,-1
 152 848 l 1,3,4
 178.524 927.571 178.524 927.571 263.5 989 c 0,5,6
 358.95 1058 358.95 1058 464 1058 c 0,7,8
 548.364 1058 548.364 1058 650 972 c 1,9,-1
 701 930.5 l 1,10,11
 758.051 886 758.051 886 806 886 c 0,12,13
 930.736 886 930.736 886 1008 1003 c 1,14,-1
 1079 930 l 1,15,16
 1056.8 847.271 1056.8 847.271 968.5 784.5 c 0,17,18
 877.763 720 877.763 720 767 720 c 0,19,20
 681.182 720 681.182 720 581.5 806 c 0,21,22
 516.831 861.793 516.831 861.793 485.416 876.896 c 128,-1,23
 454 892 454 892 425 892 c 0,0,1
EndSplineSet
EndChar

StartChar: exclam
Encoding: 33 33 93
Width: 686
Flags: HW
LayerCount: 2
Fore
SplineSet
391 1778 m 1,0,-1
 636 1778 l 1,1,-1
 393 488 l 1,2,-1
 255 488 l 1,3,-1
 391 1778 l 1,0,-1
163 11 m 128,-1,5
 148 27 148 27 142.273 46.2273 c 128,-1,6
 136.545 65.4545 136.545 65.4545 136.545 94.6489 c 128,-1,7
 136.545 123.843 136.545 123.843 153.773 155.922 c 128,-1,8
 171 188 171 188 193 207.5 c 0,9,10
 240.949 250 240.949 250 286.474 250 c 128,-1,11
 332 250 332 250 356.5 240 c 0,12,13
 417.125 215.255 417.125 215.255 417.125 143.469 c 0,14,15
 417.125 67.6685 417.125 67.6685 357 18 c 0,16,17
 308.579 -22 308.579 -22 264.789 -22 c 128,-1,18
 221 -22 221 -22 199.5 -13.5 c 128,-1,4
 178 -5 178 -5 163 11 c 128,-1,5
EndSplineSet
EndChar

StartChar: sterling
Encoding: 163 163 94
Width: 1368
Flags: HW
LayerCount: 2
Fore
SplineSet
131 -10.5 m 0,0,1
 99 -20 99 -20 76 -20 c 128,-1,2
 53 -20 53 -20 37.5 -16.5 c 0,3,4
 -10.2727 -5.71261 -10.2727 -5.71261 -10.2727 49.2066 c 0,5,6
 -10.2727 123.604 -10.2727 123.604 78 180 c 0,7,8
 160.957 233 160.957 233 257 233 c 1,9,10
 296.458 289.369 296.458 289.369 326 426 c 0,11,12
 334 463 334 463 338 493 c 2,13,-1
 378 744 l 1,14,-1
 203 744 l 1,15,-1
 221 875 l 1,16,-1
 399 875 l 1,17,-1
 417 986 l 1,18,19
 448.318 1214.62 448.318 1214.62 601 1386 c 0,20,21
 760.473 1565 760.473 1565 971 1565 c 0,22,23
 1107 1565 1107 1565 1177 1525 c 0,24,25
 1205 1509 1205 1509 1230 1483 c 1,26,-1
 1117 1313 l 1,27,28
 1105.07 1339.83 1105.07 1339.83 1057.04 1367.92 c 0,29,30
 961.105 1424 961.105 1424 870 1424 c 0,31,32
 734.869 1424 734.869 1424 655.5 1198 c 0,33,34
 626 1114 626 1114 615.5 1038 c 128,-1,35
 605 962 605 962 600.5 933.5 c 2,36,-1
 591 875 l 1,37,-1
 914 875 l 1,38,-1
 897 744 l 1,39,-1
 568 744 l 1,40,41
 566 731 566 731 564.5 719 c 128,-1,42
 563 707 563 707 554.5 650.5 c 128,-1,43
 546 594 546 594 529.5 523 c 128,-1,44
 513 452 513 452 493 397 c 0,45,46
 463.217 315.096 463.217 315.096 386 197 c 1,47,48
 435 184 435 184 483 166 c 128,-1,49
 531 148 531 148 580 131.5 c 0,50,51
 700.273 91 700.273 91 782.636 91 c 128,-1,52
 865 91 865 91 920 105.5 c 128,-1,53
 975 120 975 120 1009 148.5 c 0,54,55
 1074 202.985 1074 202.985 1074 321 c 0,56,57
 1074 380.32 1074 380.32 1027.5 451 c 0,58,59
 1015 470 1015 470 1003 481 c 1,60,-1
 1140 610 l 1,61,62
 1234.37 534.508 1234.37 534.508 1265 413.5 c 0,63,64
 1275 374 1275 374 1275 336.5 c 128,-1,65
 1275 299 1275 299 1268.5 260 c 128,-1,66
 1262 221 1262 221 1244 181.5 c 128,-1,67
 1226 142 1226 142 1194 105.5 c 128,-1,68
 1162 69 1162 69 1109.5 41.5 c 0,69,70
 992.091 -20 992.091 -20 802 -20 c 0,71,72
 681.5 -20 681.5 -20 578.25 9.5 c 128,-1,73
 475 39 475 39 414.5 60.5 c 2,74,-1
 297 102 l 1,75,76
 233.978 20.0717 233.978 20.0717 131 -10.5 c 0,0,1
EndSplineSet
EndChar

StartChar: section
Encoding: 167 167 95
Width: 1194
Flags: HW
LayerCount: 2
Fore
SplineSet
963 405 m 1,0,1
 1027.51 334.961 1027.51 334.961 1027.51 245.102 c 0,2,3
 1027.51 102.892 1027.51 102.892 917.5 -11 c 0,4,5
 796.404 -136.37 796.404 -136.37 601.5 -175 c 0,6,7
 546 -186 546 -186 490.5 -186 c 128,-1,8
 435 -186 435 -186 366 -177.5 c 128,-1,9
 297 -169 297 -169 234.5 -156 c 0,10,11
 95.6295 -127.115 95.6295 -127.115 56 -100 c 1,12,-1
 96 230 l 1,13,-1
 199 230 l 1,14,-1
 234 22 l 1,15,16
 299.489 -59.2065 299.489 -59.2065 447 -70 c 0,17,18
 488 -73 488 -73 531 -73 c 128,-1,19
 574 -73 574 -73 626 -58 c 128,-1,20
 678 -43 678 -43 723.5 -12.5 c 0,21,22
 828.325 57.7675 828.325 57.7675 843 177 c 0,23,24
 844.091 186.273 844.091 186.273 844.091 210.5 c 128,-1,25
 844.091 234.727 844.091 234.727 819.545 268.364 c 128,-1,26
 795 302 795 302 747 332 c 128,-1,27
 699 362 699 362 636 387 c 2,28,-1
 507.5 438.5 l 2,29,30
 342.733 505.162 342.733 505.162 283.366 557.581 c 0,31,32
 180.618 648.306 180.618 648.306 180.618 754.225 c 0,33,34
 180.618 873.997 180.618 873.997 264.5 1012.5 c 0,35,36
 286 1048 286 1048 311 1078 c 1,37,38
 232.344 1156.66 232.344 1156.66 232.344 1256.21 c 0,39,40
 232.344 1408.64 232.344 1408.64 347.5 1518.5 c 0,41,42
 467.978 1633.44 467.978 1633.44 658 1664.5 c 0,43,44
 710 1673 710 1673 765.5 1673 c 128,-1,45
 821 1673 821 1673 882 1666 c 128,-1,46
 943 1659 943 1659 992.5 1648 c 0,47,48
 1088.29 1626.71 1088.29 1626.71 1134 1597 c 1,49,-1
 1097 1296 l 1,50,-1
 1003 1296 l 1,51,-1
 948 1504 l 1,52,53
 893.945 1567.06 893.945 1567.06 732.247 1567.06 c 0,54,55
 522.167 1567.06 522.167 1567.06 446.5 1428 c 0,56,57
 420.559 1380.32 420.559 1380.32 420.559 1332.99 c 128,-1,58
 420.559 1285.66 420.559 1285.66 444.779 1249.33 c 128,-1,59
 469 1213 469 1213 517.5 1180.5 c 128,-1,60
 566 1148 566 1148 629 1120 c 2,61,-1
 758 1062.5 l 2,62,63
 927.568 986.708 927.568 986.708 985.284 930.854 c 0,64,65
 1085.86 833.525 1085.86 833.525 1085.86 722.469 c 0,66,67
 1085.86 637.29 1085.86 637.29 1048.43 551.145 c 128,-1,68
 1011 465 1011 465 963 405 c 1,0,1
404 1008 m 1,69,70
 350.691 918.216 350.691 918.216 350.691 860.745 c 128,-1,71
 350.691 803.273 350.691 803.273 369.845 767.636 c 128,-1,72
 389 732 389 732 429 699.5 c 128,-1,73
 469 667 469 667 524 641 c 128,-1,74
 579 615 579 615 639 590 c 2,75,-1
 759 538.5 l 2,76,77
 819 512 819 512 871 480 c 1,78,79
 913.782 560.216 913.782 560.216 913.782 613.208 c 128,-1,80
 913.782 666.2 913.782 666.2 895.891 704.6 c 128,-1,81
 878 743 878 743 839 778 c 128,-1,82
 800 813 800 813 747 841.5 c 128,-1,83
 694 870 694 870 635 896.5 c 2,84,-1
 516 949.5 l 2,85,86
 456 976 456 976 404 1008 c 1,69,70
EndSplineSet
EndChar

StartChar: dieresis
Encoding: 168 168 96
Width: 809
Flags: HW
LayerCount: 2
Fore
SplineSet
513 1423.5 m 0,0,1
 456.116 1482.16 456.116 1482.16 494.5 1562 c 0,2,3
 520.621 1616.33 520.621 1616.33 573 1639.5 c 0,4,5
 599 1651 599 1651 626.5 1651 c 128,-1,6
 654 1651 654 1651 677.5 1641.5 c 0,7,8
 748.111 1612.95 748.111 1612.95 748.111 1541.09 c 0,9,10
 748.111 1478.49 748.111 1478.49 701 1432.5 c 0,11,12
 655.415 1388 655.415 1388 613.707 1388 c 0,13,14
 547.424 1388 547.424 1388 513 1423.5 c 0,0,1
130.5 1397.5 m 0,15,16
 60.8947 1428.26 60.8947 1428.26 60.8947 1502.97 c 0,17,18
 60.8947 1561.89 60.8947 1561.89 107 1608 c 0,19,20
 150 1651 150 1651 192 1651 c 128,-1,21
 234 1651 234 1651 257.5 1641.5 c 0,22,23
 328.111 1612.96 328.111 1612.96 328.111 1541.09 c 0,24,25
 328.111 1478.49 328.111 1478.49 281 1432.5 c 0,26,27
 235.415 1388 235.415 1388 193.707 1388 c 128,-1,28
 152 1388 152 1388 130.5 1397.5 c 0,15,16
EndSplineSet
EndChar

StartChar: copyright
Encoding: 169 169 97
Width: 1768
Flags: HW
LayerCount: 2
Fore
SplineSet
178 805.5 m 0,0,1
 178 910 178 910 205 1006.5 c 128,-1,2
 232 1103 232 1103 281.5 1187 c 128,-1,3
 331 1271 331 1271 399.5 1339.5 c 128,-1,4
 468 1408 468 1408 552 1457 c 0,5,6
 726.857 1559 726.857 1559 933 1559 c 256,7,8
 1245.9 1559 1245.9 1559 1467 1339.5 c 0,9,10
 1607.99 1199.53 1607.99 1199.53 1662 1006.5 c 0,11,12
 1689 910 1689 910 1689 805.5 c 128,-1,13
 1689 701 1689 701 1662 604.5 c 128,-1,14
 1635 508 1635 508 1585.5 424.5 c 128,-1,15
 1536 341 1536 341 1467 272 c 128,-1,16
 1398 203 1398 203 1314 154.5 c 0,17,18
 1136.47 52 1136.47 52 933 52 c 256,19,20
 729.526 52 729.526 52 552 154.5 c 0,21,22
 384.086 251.45 384.086 251.45 281.5 424.5 c 0,23,24
 178 599.091 178 599.091 178 805.5 c 0,0,1
297 806 m 256,25,26
 297 537.313 297 537.313 481.5 348 c 0,27,28
 666.669 158 666.669 158 933 158 c 256,29,30
 1200.33 158 1200.33 158 1385.5 348 c 0,31,32
 1502.52 468.072 1502.52 468.072 1547.5 634 c 0,33,34
 1570 717 1570 717 1570 806 c 256,35,36
 1570 1072.58 1570 1072.58 1385.5 1263.5 c 0,37,38
 1270.12 1382.89 1270.12 1382.89 1104 1430.5 c 0,39,40
 1022 1454 1022 1454 933 1454 c 256,41,42
 760.452 1454 760.452 1454 610 1365 c 0,43,44
 467.77 1280.86 467.77 1280.86 383 1132 c 0,45,46
 297 980.976 297 980.976 297 806 c 256,25,26
1185 525 m 1,47,-1
 1213 458 l 1,48,49
 1144.66 399.426 1144.66 399.426 1008 374 c 0,50,51
 965 366 965 366 897.5 366 c 128,-1,52
 830 366 830 366 760 400.5 c 128,-1,53
 690 435 690 435 641.5 494.5 c 0,54,55
 542 616.567 542 616.567 542 802 c 0,56,57
 541.967 805 541.967 805 541.967 807.99 c 0,58,59
 541.967 991.263 541.967 991.263 654 1114.5 c 0,60,61
 774.455 1247 774.455 1247 969 1247 c 0,62,63
 1131.75 1247 1131.75 1247 1203 1209 c 1,64,-1
 1203 1004 l 1,65,-1
 1129 1004 l 1,66,-1
 1075 1124 l 1,67,68
 1032.1 1163 1032.1 1163 928 1163 c 0,69,70
 831.2 1163 831.2 1163 767.5 1089.5 c 0,71,72
 696 1007 696 1007 696 861 c 0,73,74
 695.962 856.962 695.962 856.962 695.962 852.967 c 0,75,76
 695.962 666.355 695.962 666.355 784 558 c 0,77,78
 859.562 465 859.562 465 965.615 465 c 128,-1,79
 1071.67 465 1071.67 465 1185 525 c 1,47,-1
EndSplineSet
EndChar

StartChar: guilsinglleft
Encoding: 8249 8249 99
Width: 1190
Flags: HW
LayerCount: 2
Fore
SplineSet
264 690 m 1,0,-1
 956 1086 l 1,1,-1
 994 971 l 1,2,-1
 484 615 l 1,3,-1
 898 264 l 1,4,-1
 828 152 l 1,5,-1
 242 530 l 1,6,-1
 264 690 l 1,0,-1
EndSplineSet
EndChar

StartChar: registered
Encoding: 174 174 100
Width: 1768
Flags: HW
LayerCount: 2
Fore
SplineSet
178 805.5 m 0,0,1
 178 910 178 910 205 1006.5 c 128,-1,2
 232 1103 232 1103 281.5 1187 c 128,-1,3
 331 1271 331 1271 399.5 1339.5 c 128,-1,4
 468 1408 468 1408 552 1457 c 0,5,6
 726.857 1559 726.857 1559 933 1559 c 256,7,8
 1245.9 1559 1245.9 1559 1467 1339.5 c 0,9,10
 1607.99 1199.53 1607.99 1199.53 1662 1006.5 c 0,11,12
 1689 910 1689 910 1689 805.5 c 128,-1,13
 1689 701 1689 701 1662 604.5 c 128,-1,14
 1635 508 1635 508 1585.5 424.5 c 128,-1,15
 1536 341 1536 341 1467 272 c 128,-1,16
 1398 203 1398 203 1314 154.5 c 0,17,18
 1136.47 52 1136.47 52 933 52 c 256,19,20
 729.526 52 729.526 52 552 154.5 c 0,21,22
 384.086 251.45 384.086 251.45 281.5 424.5 c 0,23,24
 178 599.091 178 599.091 178 805.5 c 0,0,1
297 806 m 256,25,26
 297 537.313 297 537.313 481.5 348 c 0,27,28
 666.669 158 666.669 158 933 158 c 256,29,30
 1200.33 158 1200.33 158 1385.5 348 c 0,31,32
 1502.52 468.072 1502.52 468.072 1547.5 634 c 0,33,34
 1570 717 1570 717 1570 806 c 256,35,36
 1570 1072.58 1570 1072.58 1385.5 1263.5 c 0,37,38
 1270.12 1382.89 1270.12 1382.89 1104 1430.5 c 0,39,40
 1022 1454 1022 1454 933 1454 c 256,41,42
 760.452 1454 760.452 1454 610 1365 c 0,43,44
 467.77 1280.86 467.77 1280.86 383 1132 c 0,45,46
 297 980.976 297 980.976 297 806 c 256,25,26
716 1240 m 1,47,-1
 954 1245 l 1,48,49
 1181.66 1245 1181.66 1245 1247.5 1108.5 c 0,50,51
 1268 1066 1268 1066 1269 1020 c 128,-1,52
 1270 974 1270 974 1260.5 935 c 128,-1,53
 1251 896 1251 896 1225 862.5 c 0,54,55
 1168.56 789.786 1168.56 789.786 1035 766 c 1,56,57
 1109.1 723.658 1109.1 723.658 1172.5 608.5 c 2,58,-1
 1219 525 l 2,59,60
 1241 486 1241 486 1271 465 c 1,61,62
 1295 453 1295 453 1338 453 c 1,63,-1
 1338 375 l 1,64,-1
 1178 375 l 2,65,66
 1146.5 375 1146.5 375 1106.5 455 c 1,67,-1
 1068.5 533.5 l 1,68,69
 987.794 704.754 987.794 704.754 883 749 c 1,70,-1
 796 749 l 1,71,-1
 796 469 l 1,72,-1
 898 449 l 1,73,-1
 898 375 l 1,74,-1
 572 375 l 1,75,-1
 572 449 l 1,76,-1
 655 469 l 1,77,-1
 655 1134 l 1,78,-1
 572 1156 l 1,79,-1
 572 1240 l 1,80,-1
 716 1240 l 1,47,-1
927 1155 m 0,81,82
 838.222 1155 838.222 1155 796 1145 c 1,83,-1
 796 837 l 1,84,85
 839.2 829 839.2 829 909.6 829 c 128,-1,86
 980 829 980 829 1011.5 842.5 c 128,-1,87
 1043 856 1043 856 1065.5 878.5 c 0,88,89
 1113 926 1113 926 1113 993 c 0,90,91
 1113 1155 1113 1155 927 1155 c 0,81,82
EndSplineSet
EndChar

StartChar: macron
Encoding: 175 175 101
Width: 614
Flags: HW
LayerCount: 2
Fore
SplineSet
44 1574 m 1,0,-1
 554 1574 l 1,1,-1
 549 1425 l 1,2,-1
 40 1425 l 1,3,-1
 44 1574 l 1,0,-1
EndSplineSet
EndChar

StartChar: degree
Encoding: 176 176 102
Width: 899
Flags: HW
LayerCount: 2
Fore
SplineSet
524.5 955 m 0,0,1
 454 955 454 955 395 980.5 c 0,2,3
 274.456 1032.6 274.456 1032.6 226.5 1153 c 0,4,5
 203.959 1209.59 203.959 1209.59 203.959 1242.45 c 0,6,7
 203.959 1344.66 203.959 1344.66 230.48 1404.33 c 128,-1,8
 257 1464 257 1464 302 1507.5 c 0,9,10
 397.69 1600 397.69 1600 542 1600 c 0,11,12
 679 1600 679 1600 773.5 1505.5 c 0,13,14
 864.04 1414.96 864.04 1414.96 864.04 1283.27 c 0,15,16
 864.04 1141.07 864.04 1141.07 764.5 1047 c 0,17,18
 667.151 955 667.151 955 524.5 955 c 0,0,1
531 1076 m 0,19,20
 572 1076 572 1076 607 1091 c 128,-1,21
 642 1106 642 1106 668 1133 c 0,22,23
 724.065 1191.22 724.065 1191.22 724.065 1283.4 c 0,24,25
 724.065 1362.69 724.065 1362.69 671 1420 c 0,26,27
 616.37 1479 616.37 1479 537 1479 c 0,28,29
 453.333 1479 453.333 1479 399.5 1422 c 0,30,31
 343.933 1363.16 343.933 1363.16 343.933 1272.42 c 0,32,33
 343.933 1192.19 343.933 1192.19 396.5 1135.5 c 0,34,35
 451.673 1076 451.673 1076 531 1076 c 0,19,20
EndSplineSet
EndChar

StartChar: plusminus
Encoding: 177 177 103
Width: 1370
Flags: HW
LayerCount: 2
Fore
SplineSet
589 536 m 1,0,-1
 615 700 l 1,1,-1
 474 693 l 1,2,-1
 249 693 l 1,3,-1
 267 851 l 1,4,-1
 492 851 l 1,5,-1
 631 840 l 1,6,7
 634 882 634 882 638 923 c 128,-1,8
 642 964 642 964 645 1005 c 1,9,-1
 671 1235 l 1,10,-1
 849 1235 l 1,11,-1
 823 1005 l 1,12,-1
 794 841 l 1,13,-1
 909 851 l 1,14,-1
 1164 851 l 1,15,-1
 1146 693 l 1,16,-1
 891 693 l 1,17,-1
 779 700 l 1,18,19
 777 658 777 658 773.5 618 c 128,-1,20
 770 578 770 578 768 536 c 1,21,-1
 741 295 l 1,22,-1
 562 295 l 1,23,-1
 589 536 l 1,0,-1
197 180 m 1,24,-1
 1066 180 l 1,25,-1
 1049 30 l 1,26,-1
 180 30 l 1,27,-1
 197 180 l 1,24,-1
EndSplineSet
EndChar

StartChar: acute
Encoding: 180 180 104
Width: 559
Flags: HW
LayerCount: 2
Fore
SplineSet
50 1312 m 1,0,-1
 367 1743 l 1,1,-1
 509 1576 l 1,2,3
 479.574 1520.42 479.574 1520.42 337 1405 c 0,4,5
 183 1280.33 183 1280.33 103 1251 c 1,6,-1
 50 1312 l 1,0,-1
EndSplineSet
EndChar

StartChar: paragraph
Encoding: 182 182 105
Width: 1364
Flags: HW
LayerCount: 2
Fore
SplineSet
264 87 m 1,0,-1
 429 117 l 1,1,-1
 512 774 l 1,2,3
 264.135 780.197 264.135 780.197 186.5 972 c 0,4,5
 159.875 1037.78 159.875 1037.78 159.875 1130.5 c 128,-1,6
 159.875 1223.22 159.875 1223.22 188.938 1304.11 c 128,-1,7
 218 1385 218 1385 285 1445 c 0,8,9
 425.7 1571 425.7 1571 715 1571 c 0,10,11
 784.571 1571 784.571 1571 872.786 1564.5 c 0,12,13
 1042.43 1552 1042.43 1552 1109 1552 c 2,14,-1
 1348 1552 l 1,15,-1
 1337 1449 l 1,16,-1
 1196 1416 l 1,17,-1
 1033 116 l 1,18,-1
 1168 86 l 1,19,-1
 1159 0 l 1,20,-1
 822 0 l 1,21,-1
 997 1414 l 1,22,-1
 789 1414 l 1,23,-1
 605 0 l 1,24,-1
 256 0 l 1,25,-1
 264 87 l 1,0,-1
EndSplineSet
EndChar

StartChar: cedilla
Encoding: 184 184 107
Width: 479
Flags: HW
LayerCount: 2
Fore
SplineSet
257.5 -213 m 128,-1,1
 273 -175 273 -175 278.118 -125.824 c 128,-1,2
 283.235 -76.6471 283.235 -76.6471 283.235 -43.0882 c 128,-1,3
 283.235 -9.52939 283.235 -9.52939 275 30 c 1,4,-1
 332 34 l 1,5,-1
 385 30 l 1,6,7
 414.571 -14.3572 414.571 -14.3572 414.571 -109.929 c 0,8,9
 414.571 -235.38 414.571 -235.38 385.786 -306.69 c 128,-1,10
 357 -378 357 -378 322.5 -409 c 0,11,12
 261.29 -464 261.29 -464 142 -464 c 0,13,14
 41.3333 -464 41.3333 -464 4 -436 c 1,15,-1
 39 -305 l 1,16,17
 65 -319 65 -319 103 -319 c 128,-1,18
 141 -319 141 -319 169 -308.5 c 128,-1,19
 197 -298 197 -298 219.5 -274.5 c 128,-1,0
 242 -251 242 -251 257.5 -213 c 128,-1,1
EndSplineSet
EndChar

StartChar: questiondown
Encoding: 191 191 109
Width: 1028
Flags: HW
LayerCount: 2
Fore
SplineSet
646 1174.5 m 128,-1,1
 618 1164 618 1164 589.5 1164 c 128,-1,2
 561 1164 561 1164 539.5 1172.5 c 128,-1,3
 518 1181 518 1181 503 1197 c 0,4,5
 470.144 1232.05 470.144 1232.05 476.072 1276.02 c 128,-1,6
 482 1320 482 1320 496.5 1347 c 128,-1,7
 511 1374 511 1374 533 1393.5 c 0,8,9
 580.949 1436 580.949 1436 626.474 1436 c 128,-1,10
 672 1436 672 1436 696.5 1426 c 128,-1,11
 721 1416 721 1416 735 1399 c 0,12,13
 762.546 1365.55 762.546 1365.55 756.773 1321.78 c 128,-1,14
 751 1278 751 1278 735.5 1250.5 c 128,-1,15
 720 1223 720 1223 697 1204 c 128,-1,0
 674 1185 674 1185 646 1174.5 c 128,-1,1
66 29 m 0,16,17
 66 116 66 116 91.5 185 c 128,-1,18
 117 254 117 254 158.5 305 c 128,-1,19
 200 356 200 356 253 393 c 128,-1,20
 306 430 306 430 361.5 460 c 2,21,-1
 470 516.5 l 1,22,23
 586.137 574.568 586.137 574.568 631.5 639.5 c 0,24,25
 657 676 657 676 657 714 c 128,-1,26
 657 752 657 752 651.5 777.5 c 128,-1,27
 646 803 646 803 638.5 826 c 2,28,-1
 624.5 868.5 l 2,29,30
 618 888 618 888 615 901 c 1,31,-1
 742 951 l 1,32,-1
 759 950 l 1,33,34
 812.82 899.17 812.82 899.17 833 768 c 0,35,36
 839 729 839 729 839 688 c 128,-1,37
 839 647 839 647 812.5 608 c 128,-1,38
 786 569 786 569 742 533 c 128,-1,39
 698 497 698 497 640.5 463 c 0,40,41
 499.125 380.681 499.125 380.681 446.063 352.34 c 128,-1,42
 393 324 393 324 354.5 299.5 c 0,43,44
 266.732 243.648 266.732 243.648 246 197 c 1,45,46
 237 157.4 237 157.4 237 97.7 c 128,-1,47
 237 38 237 38 263.5 -26.5 c 128,-1,48
 290 -91 290 -91 337 -138.5 c 0,49,50
 436.442 -239 436.442 -239 590 -239 c 0,51,52
 694.7 -239 694.7 -239 764 -206 c 1,53,-1
 740 -346 l 1,54,55
 704.745 -381.255 704.745 -381.255 596.5 -395 c 0,56,57
 565 -399 565 -399 535 -399 c 0,58,59
 281.288 -399 281.288 -399 162.5 -268 c 0,60,61
 66 -161.579 66 -161.579 66 29 c 0,16,17
EndSplineSet
EndChar

StartChar: germandbls
Encoding: 223 223 110
Width: 1184
Flags: HW
LayerCount: 2
Fore
SplineSet
202 927 m 1,0,1
 278.583 1531.6 278.583 1531.6 663 1578 c 0,2,3
 721 1585 721 1585 782 1585 c 128,-1,4
 843 1585 843 1585 901 1566.5 c 128,-1,5
 959 1548 959 1548 1001 1511.5 c 0,6,7
 1091 1433.29 1091 1433.29 1091 1293 c 0,8,9
 1091 1133.82 1091 1133.82 962 1018.5 c 1,10,-1
 900 961.5 l 1,11,12
 833 897.966 833 897.966 833 850.483 c 128,-1,13
 833 803 833 803 863.5 753.5 c 128,-1,14
 894 704 894 704 957 626 c 1,15,-1
 997.5 563 l 2,16,17
 1070 449.829 1070 449.829 1070 328 c 0,18,19
 1070 187.763 1070 187.763 941 85 c 0,20,21
 814.213 -16 814.213 -16 645 -16 c 0,22,23
 518 -16 518 -16 424 31 c 1,24,-1
 450 218 l 1,25,26
 503.316 156.481 503.316 156.481 610 126 c 0,27,28
 645 116 645 116 680 116 c 128,-1,29
 715 116 715 116 749 123 c 128,-1,30
 783 130 783 130 808.5 149.5 c 0,31,32
 864 191.941 864 191.941 864 298 c 0,33,34
 864 398.2 864 398.2 786 523 c 1,35,36
 652 681.364 652 681.364 652 793 c 0,37,38
 652 856.143 652 856.143 674 893.071 c 128,-1,39
 696 930 696 930 715 952 c 2,40,-1
 756 999 l 1,41,42
 889 1134.22 889 1134.22 889 1287 c 0,43,44
 889 1408.86 889 1408.86 793.5 1450 c 0,45,46
 761 1464 761 1464 709.5 1464 c 128,-1,47
 658 1464 658 1464 607 1432 c 128,-1,48
 556 1400 556 1400 514 1329 c 0,49,50
 429.012 1185.33 429.012 1185.33 388 867 c 1,51,-1
 267 0 l 1,52,-1
 73 0 l 1,53,-1
 202 927 l 1,0,1
EndSplineSet
EndChar

StartChar: oslash
Encoding: 248 248 111
Width: 1143
Flags: HW
LayerCount: 2
Fore
SplineSet
935 1055 m 1,0,1
 1051.05 930.583 1051.05 930.583 1051.05 695.428 c 0,2,3
 1051.05 418.497 1051.05 418.497 895.5 207.5 c 0,4,5
 792.401 67.6522 792.401 67.6522 642 10.5 c 0,6,7
 567 -18 567 -18 483 -18 c 0,8,9
 347 -18 347 -18 255 45 c 1,10,-1
 131 -132 l 1,11,-1
 42 -83 l 1,12,-1
 180 117 l 1,13,14
 86.8049 240.225 86.8049 240.225 86.8049 458.737 c 0,15,16
 86.8049 726.268 86.8049 726.268 242.5 939 c 0,17,18
 345.457 1079.67 345.457 1079.67 495 1136.5 c 0,19,20
 570 1165 570 1165 670 1165 c 128,-1,21
 770 1165 770 1165 855 1118 c 1,22,-1
 985 1303 l 1,23,-1
 1074 1254 l 1,24,-1
 935 1055 l 1,0,1
754 989 m 1,25,26
 700 1043 700 1043 630.5 1043 c 128,-1,27
 561 1043 561 1043 514.5 1016.5 c 128,-1,28
 468 990 468 990 431.5 944.5 c 128,-1,29
 395 899 395 899 368.5 839 c 0,30,31
 293.882 670.054 293.882 670.054 293.882 458.135 c 0,32,33
 293.882 362.61 293.882 362.61 311 292 c 1,34,-1
 754 989 l 1,25,26
361 182 m 1,35,36
 418 104 418 104 518 104 c 0,37,38
 677.4 104 677.4 104 767.5 308 c 0,39,40
 842.118 476.946 842.118 476.946 842.118 688.865 c 0,41,42
 842.118 810.252 842.118 810.252 812 892 c 1,43,-1
 361 182 l 1,35,36
EndSplineSet
EndChar

StartChar: endash
Encoding: 8211 8211 112
Width: 1538
Flags: HW
LayerCount: 2
Fore
SplineSet
262 851 m 1,0,-1
 1359 851 l 1,1,-1
 1329 694 l 1,2,-1
 232 694 l 1,3,-1
 262 851 l 1,0,-1
EndSplineSet
EndChar

StartChar: emdash
Encoding: 8212 8212 113
Width: 2031
Flags: HW
LayerCount: 2
Fore
SplineSet
261 851 m 1,0,-1
 1852 851 l 1,1,-1
 1822 694 l 1,2,-1
 232 694 l 1,3,-1
 261 851 l 1,0,-1
EndSplineSet
EndChar

StartChar: quoteleft
Encoding: 8216 8216 114
Width: 682
Flags: HW
LayerCount: 2
Fore
SplineSet
395 937 m 1,0,1
 304.312 960.579 304.312 960.579 256 1048 c 0,2,3
 217 1118.57 217 1118.57 217 1199.29 c 128,-1,4
 217 1280 217 1280 233.5 1339 c 128,-1,5
 250 1398 250 1398 278.5 1448 c 128,-1,6
 307 1498 307 1498 345 1540 c 128,-1,7
 383 1582 383 1582 426.5 1616 c 0,8,9
 505.431 1677.69 505.431 1677.69 608 1721 c 1,10,-1
 649 1651 l 1,11,-1
 647 1629 l 1,12,13
 567.714 1602.57 567.714 1602.57 502 1504 c 0,14,15
 436 1405 436 1405 436 1300 c 0,16,17
 436 1235.55 436 1235.55 459 1198.28 c 0,18,19
 498.715 1133.91 498.715 1133.91 546 1128 c 1,20,-1
 541 1087 l 1,21,-1
 395 937 l 1,0,1
EndSplineSet
EndChar

StartChar: dagger
Encoding: 8224 8224 120
Width: 816
Flags: HW
LayerCount: 2
Fore
SplineSet
380 1008 m 1,0,-1
 406 1127 l 1,1,-1
 136 1127 l 1,2,-1
 158 1277 l 1,3,-1
 449 1277 l 1,4,5
 451 1325 451 1325 451 1373 c 128,-1,6
 451 1421 451 1421 454 1469 c 1,7,-1
 475 1646 l 1,8,-1
 665 1646 l 1,9,-1
 635 1469 l 1,10,-1
 574 1277 l 1,11,-1
 856 1277 l 1,12,-1
 835 1127 l 1,13,-1
 575 1127 l 1,14,-1
 569 1008 l 1,15,-1
 398 151 l 1,16,-1
 281 151 l 1,17,-1
 380 1008 l 1,0,-1
EndSplineSet
EndChar

StartChar: bullet
Encoding: 8226 8226 121
Width: 858
Flags: HW
LayerCount: 2
Fore
SplineSet
504.5 530.5 m 128,-1,1
 459 507 459 507 415 507 c 128,-1,2
 371 507 371 507 339 521 c 128,-1,3
 307 535 307 535 283.5 559 c 0,4,5
 233 610.574 233 610.574 233 669.287 c 128,-1,6
 233 728 233 728 253.5 773.5 c 128,-1,7
 274 819 274 819 309 856 c 0,8,9
 387.514 939 387.514 939 484 939 c 0,10,11
 559.435 939 559.435 939 609.5 890 c 0,12,13
 660 840.574 660 840.574 660 781.287 c 128,-1,14
 660 722 660 722 639.5 675.5 c 128,-1,15
 619 629 619 629 584.5 591.5 c 128,-1,0
 550 554 550 554 504.5 530.5 c 128,-1,1
EndSplineSet
EndChar

StartChar: mu
Encoding: 181 181 124
Width: 1364
Flags: HW
LayerCount: 2
Fore
SplineSet
827 118 m 1,0,1
 683.889 -20 683.889 -20 487 -20 c 1,2,3
 420 -19 420 -19 364 11 c 1,4,-1
 306 -372 l 1,5,-1
 121 -372 l 1,6,-1
 229 358 l 1,7,8
 248 500 248 500 272.5 643 c 128,-1,9
 297 786 297 786 305 882.5 c 128,-1,10
 313 979 313 979 308.5 999 c 128,-1,11
 304 1019 304 1019 285.75 1019 c 128,-1,12
 267.5 1019 267.5 1019 222 993 c 1,13,-1
 192 1045 l 1,14,15
 208.226 1070.96 208.226 1070.96 249.113 1096.98 c 0,16,17
 332.429 1150 332.429 1150 394.714 1150 c 128,-1,18
 457 1150 457 1150 486.229 1123.6 c 128,-1,19
 515.457 1097.2 515.457 1097.2 515.457 1037.1 c 0,20,21
 515.457 978.545 515.457 978.545 500.229 873.773 c 0,22,23
 463.308 630.268 463.308 630.268 445.154 520.134 c 128,-1,24
 427 410 427 410 427 334.5 c 128,-1,25
 427 259 427 259 435.5 221 c 128,-1,26
 444 183 444 183 461.5 160 c 0,27,28
 494.217 117 494.217 117 547.609 117 c 128,-1,29
 601 117 601 117 641.5 133 c 128,-1,30
 682 149 682 149 720 173 c 0,31,32
 782.429 212.429 782.429 212.429 848 278 c 1,33,-1
 960 1140 l 1,34,-1
 1154 1140 l 1,35,-1
 1032 189 l 2,36,37
 1029.56 170.463 1029.56 170.463 1029.56 156.448 c 0,38,39
 1029.56 113 1029.56 113 1053.34 113 c 128,-1,40
 1077.12 113 1077.12 113 1120 140 c 1,41,-1
 1152 87 l 1,42,43
 1110.06 31.0788 1110.06 31.0788 1016.5 -4.5 c 0,44,45
 981 -18 981 -18 947.5 -18 c 128,-1,46
 914 -18 914 -18 890.5 -12.5 c 0,47,48
 824.826 2.87048 824.826 2.87048 824.826 84.4083 c 0,49,50
 824.826 99.7391 824.826 99.7391 827 118 c 1,0,1
EndSplineSet
EndChar

StartChar: logicalnot
Encoding: 172 172 125
Width: 1370
Flags: HW
LayerCount: 2
Fore
SplineSet
228 853 m 1,0,-1
 1188 853 l 1,1,-1
 1126 322 l 1,2,-1
 949 322 l 1,3,-1
 996 721 l 1,4,-1
 213 721 l 1,5,-1
 228 853 l 1,0,-1
EndSplineSet
EndChar

StartChar: yen
Encoding: 165 165 126
Width: 1483
Flags: HW
LayerCount: 2
Fore
SplineSet
393 87 m 1,0,-1
 610 117 l 1,1,-1
 641 376 l 1,2,-1
 229 376 l 1,3,-1
 244 506 l 1,4,-1
 656 506 l 1,5,-1
 683 731 l 1,6,-1
 270 731 l 1,7,-1
 284 862 l 1,8,-1
 635 862 l 1,9,-1
 331 1434 l 1,10,-1
 212 1452 l 1,11,-1
 223 1552 l 1,12,-1
 721 1552 l 1,13,-1
 710 1452 l 1,14,-1
 535 1435 l 1,15,-1
 770 975 l 1,16,-1
 811 864 l 1,17,-1
 877 983 l 1,18,-1
 1180 1435 l 1,19,-1
 1041 1452 l 1,20,-1
 1052 1552 l 1,21,-1
 1515 1552 l 1,22,-1
 1504 1453 l 1,23,-1
 1368 1425 l 1,24,-1
 942 862 l 1,25,-1
 1290 862 l 1,26,-1
 1276 731 l 1,27,-1
 859 731 l 1,28,-1
 832 506 l 1,29,-1
 1249 506 l 1,30,-1
 1234 376 l 1,31,-1
 817 376 l 1,32,-1
 787 117 l 1,33,-1
 1007 87 l 1,34,-1
 998 0 l 1,35,-1
 385 0 l 1,36,-1
 393 87 l 1,0,-1
EndSplineSet
EndChar

StartChar: divide
Encoding: 247 247 127
Width: 1370
Flags: HW
LayerCount: 2
Fore
SplineSet
802.5 1036.5 m 128,-1,1
 773 1026 773 1026 746 1026 c 128,-1,2
 719 1026 719 1026 695.5 1034.5 c 128,-1,3
 672 1043 672 1043 654.5 1059 c 0,4,5
 617.027 1093.26 617.027 1093.26 621.513 1137.63 c 128,-1,6
 626 1182 626 1182 643.5 1209 c 128,-1,7
 661 1236 661 1236 686 1256 c 0,8,9
 738.5 1298 738.5 1298 785.75 1298 c 128,-1,10
 833 1298 833 1298 857.5 1288 c 128,-1,11
 882 1278 882 1278 896.5 1261 c 0,12,13
 925.482 1227.02 925.482 1227.02 920.241 1183.51 c 128,-1,14
 915 1140 915 1140 898 1113 c 128,-1,15
 881 1086 881 1086 856.5 1066.5 c 128,-1,0
 832 1047 832 1047 802.5 1036.5 c 128,-1,1
292 853 m 1,16,-1
 1161 853 l 1,17,-1
 1143 696 l 1,18,-1
 274 696 l 1,19,-1
 292 853 l 1,16,-1
558 285 m 128,-1,21
 541 301 541 301 533.609 321.435 c 128,-1,22
 526.217 341.87 526.217 341.87 526.217 371.137 c 128,-1,23
 526.217 400.404 526.217 400.404 545.609 431.202 c 128,-1,24
 565 462 565 462 589.5 481.5 c 0,25,26
 642.897 524 642.897 524 689.949 524 c 128,-1,27
 737 524 737 524 761 514 c 0,28,29
 823.059 488.142 823.059 488.142 823.059 416.336 c 0,30,31
 823.059 342.923 823.059 342.923 761 292.5 c 0,32,33
 711.154 252 711.154 252 666.577 252 c 128,-1,34
 622 252 622 252 598.5 260.5 c 128,-1,20
 575 269 575 269 558 285 c 128,-1,21
EndSplineSet
EndChar

StartChar: Ccedilla
Encoding: 199 199 128
Width: 1261
Flags: HW
LayerCount: 2
Fore
SplineSet
698 -12 m 1,0,1
 707.846 -52.6153 707.846 -52.6153 707.846 -98.9615 c 128,-1,2
 707.846 -145.308 707.846 -145.308 701.423 -206.154 c 128,-1,3
 695 -267 695 -267 673 -321.5 c 128,-1,4
 651 -376 651 -376 616.5 -407 c 0,5,6
 555.29 -462 555.29 -462 436 -462 c 0,7,8
 335.333 -462 335.333 -462 298 -434 c 1,9,-1
 333 -303 l 1,10,11
 359 -317 359 -317 397 -317 c 128,-1,12
 435 -317 435 -317 463 -306.5 c 128,-1,13
 491 -296 491 -296 513.5 -272.5 c 0,14,15
 577 -206.178 577 -206.178 577 -41.8889 c 0,16,17
 577 -26.6667 577 -26.6667 576 -15 c 1,18,19
 335.633 -3.82012 335.633 -3.82012 207 198 c 0,20,21
 92.6897 377.349 92.6897 377.349 92.6897 655.179 c 0,22,23
 92.6897 1035.53 92.6897 1035.53 308 1292 c 0,24,25
 444.639 1454.76 444.639 1454.76 635.5 1516 c 0,26,27
 729 1546 729 1546 846 1546 c 0,28,29
 1017.69 1546 1017.69 1546 1184 1500 c 1,30,-1
 1222 1489 l 1,31,-1
 1156 1122 l 1,32,-1
 1039 1122 l 1,33,-1
 1016 1382 l 1,34,35
 972.734 1415.28 972.734 1415.28 911.867 1421.64 c 128,-1,36
 851 1428 851 1428 780 1428 c 128,-1,37
 709 1428 709 1428 634 1391 c 128,-1,38
 559 1354 559 1354 503 1292 c 128,-1,39
 447 1230 447 1230 408 1149.5 c 0,40,41
 301.909 930.517 301.909 930.517 301.909 661.562 c 0,42,43
 301.909 431.212 301.909 431.212 382.5 276 c 0,44,45
 473.365 101 473.365 101 641 101 c 0,46,47
 774.128 101 774.128 101 862.5 157.5 c 0,48,49
 893 177 893 177 908 205 c 1,50,-1
 976 402 l 1,51,-1
 1097 401 l 1,52,-1
 1057 70 l 1,53,-1
 1000.5 51.5 l 2,54,55
 843.6 -0.79999 843.6 -0.79999 698 -12 c 1,0,1
EndSplineSet
EndChar

StartChar: AE
Encoding: 198 198 129
Width: 1810
Flags: HW
LayerCount: 2
Fore
SplineSet
706 1408 m 1,0,-1
 415 1430 l 1,1,-1
 429 1530 l 1,2,-1
 1745 1530 l 1,3,-1
 1738 1241 l 1,4,-1
 1632 1241 l 1,5,-1
 1584 1408 l 1,6,-1
 1185 1422 l 1,7,-1
 1113 854 l 1,8,-1
 1508 861 l 1,9,-1
 1496 705 l 1,10,-1
 1101 721 l 1,11,-1
 1028 116 l 1,12,-1
 1541 140 l 1,13,-1
 1637 325 l 1,14,-1
 1740 294 l 1,15,-1
 1675 0 l 1,16,-1
 697 0 l 1,17,-1
 707 86 l 1,18,-1
 826 115 l 1,19,-1
 868 476 l 1,20,-1
 395 476 l 1,21,-1
 211 116 l 1,22,-1
 400 86 l 1,23,-1
 394 0 l 1,24,-1
 -162 0 l 1,25,-1
 -148 86 l 1,26,-1
 6 115 l 1,27,-1
 706 1408 l 1,0,-1
882 597 m 1,28,-1
 976 1399 l 1,29,-1
 870 1404 l 1,30,-1
 457 597 l 1,31,-1
 882 597 l 1,28,-1
EndSplineSet
EndChar

StartChar: cent
Encoding: 162 162 130
Width: 1056
Flags: HW
LayerCount: 2
Fore
SplineSet
886 921 m 1,0,1
 777.098 1016 777.098 1016 690.049 1016 c 128,-1,2
 603 1016 603 1016 541.5 979.5 c 128,-1,3
 480 943 480 943 436 872.5 c 0,4,5
 344 725.091 344 725.091 344 460 c 0,6,7
 344 203.267 344 203.267 464.5 139 c 0,8,9
 502 119 502 119 543.5 119 c 128,-1,10
 585 119 585 119 616 125.5 c 128,-1,11
 647 132 647 132 678 146 c 0,12,13
 734.079 171.326 734.079 171.326 817 232 c 1,14,-1
 856 151 l 1,15,16
 725.292 4.91451 725.292 4.91451 552 -16 c 1,17,-1
 515 -215 l 1,18,-1
 365 -215 l 1,19,-1
 403 -10 l 1,20,21
 208.297 35.6336 208.297 35.6336 153 264.5 c 0,22,23
 135 339 135 339 135 418.5 c 128,-1,24
 135 498 135 498 148.5 573 c 128,-1,25
 162 648 162 648 188.5 721.5 c 128,-1,26
 215 795 215 795 255 864 c 128,-1,27
 295 933 295 933 347.5 990 c 0,28,29
 460.697 1112.9 460.697 1112.9 607 1149 c 1,30,-1
 659 1358 l 1,31,-1
 809 1358 l 1,32,-1
 759 1161 l 1,33,34
 870.146 1151.93 870.146 1151.93 944 1115 c 1,35,-1
 886 921 l 1,0,1
EndSplineSet
EndChar

StartChar: ae
Encoding: 230 230 131
Width: 1711
Flags: HW
LayerCount: 2
Fore
SplineSet
1131 -20 m 0,0,1
 844.224 -20 844.224 -20 779 243 c 1,2,3
 687.946 68.4797 687.946 68.4797 516 4 c 0,4,5
 452 -20 452 -20 373 -20 c 0,6,7
 84 -20 84 -20 84 391 c 0,8,9
 84 553.08 84 553.08 160.5 727.5 c 0,10,11
 290.517 1023.94 290.517 1023.94 540 1126 c 0,12,13
 628 1162 628 1162 726.5 1162 c 128,-1,14
 825 1162 825 1162 945 1122 c 1,15,-1
 1059 1162 l 1,16,-1
 1027 1039 l 1,17,18
 1169.09 1162 1169.09 1162 1341 1162 c 0,19,20
 1479 1162 1479 1162 1552.5 1088.5 c 0,21,22
 1620 1021 1620 1021 1620 926 c 128,-1,23
 1620 831 1620 831 1585 768.5 c 128,-1,24
 1550 706 1550 706 1493 656.5 c 128,-1,25
 1436 607 1436 607 1365 570.5 c 128,-1,26
 1294 534 1294 534 1221.5 510 c 0,27,28
 1077.36 462.284 1077.36 462.284 970 460 c 1,29,30
 967.867 426.4 967.867 426.4 967.867 395.433 c 128,-1,31
 967.867 364.467 967.867 364.467 970.433 319.733 c 128,-1,32
 973 275 973 275 992 227 c 0,33,34
 1034.75 119 1034.75 119 1155 119 c 0,35,36
 1350.75 119 1350.75 119 1515 265 c 1,37,-1
 1561 182 l 1,38,39
 1508.73 110.717 1508.73 110.717 1400 51.5 c 0,40,41
 1268.72 -20 1268.72 -20 1131 -20 c 0,0,1
1294 1046 m 0,42,43
 1121.66 1046 1121.66 1046 1022 768 c 0,44,45
 986.923 670.154 986.923 670.154 975 570 c 1,46,47
 1120 577.436 1120 577.436 1254 659 c 0,48,49
 1415 757 1415 757 1415 901.5 c 128,-1,50
 1415 1046 1415 1046 1294 1046 c 0,42,43
284 404 m 0,51,52
 284 122 284 122 420 122 c 0,53,54
 537.674 122 537.674 122 637.5 223 c 0,55,56
 711.418 297.787 711.418 297.787 761 410 c 1,57,-1
 761 430 l 1,58,59
 767.189 708.523 767.189 708.523 919.5 920.5 c 0,60,61
 968 988 968 988 1027 1039 c 1,62,-1
 997 922 l 1,63,-1
 774 563 l 1,64,-1
 845 998 l 1,65,66
 793.042 1041 793.042 1041 710.521 1041 c 128,-1,67
 628 1041 628 1041 569.5 1010.5 c 128,-1,68
 511 980 511 980 465 929.5 c 128,-1,69
 419 879 419 879 385 813.5 c 128,-1,70
 351 748 351 748 328.5 677 c 0,71,72
 284 536.578 284 536.578 284 404 c 0,51,52
EndSplineSet
EndChar

StartChar: circumflex
Encoding: 710 710 132
Width: 795
Flags: HW
LayerCount: 2
Fore
SplineSet
50 1276 m 1,0,-1
 377 1650 l 1,1,-1
 555 1650 l 1,2,-1
 745 1276 l 1,3,-1
 671 1218 l 1,4,-1
 440 1492 l 1,5,-1
 107 1219 l 1,6,-1
 50 1276 l 1,0,-1
EndSplineSet
EndChar

StartChar: caron
Encoding: 711 711 133
Width: 794
Flags: HW
LayerCount: 2
Fore
SplineSet
70 1592 m 1,0,-1
 137 1650 l 1,1,-1
 385 1406 l 1,2,3
 420 1436 420 1436 461 1467 c 2,4,-1
 626.5 1590.5 l 2,5,6
 667 1621 667 1621 702 1650 c 1,7,-1
 764 1593 l 1,8,-1
 469 1255 l 1,9,-1
 293 1255 l 1,10,-1
 70 1592 l 1,0,-1
EndSplineSet
EndChar

StartChar: breve
Encoding: 728 728 134
Width: 717
Flags: HW
LayerCount: 2
Fore
SplineSet
466.5 1328 m 128,-1,1
 411 1300 411 1300 344.5 1300 c 128,-1,2
 278 1300 278 1300 224 1329.5 c 128,-1,3
 170 1359 170 1359 133.5 1406.5 c 0,4,5
 59 1503.45 59 1503.45 59 1632 c 2,6,-1
 59 1641.5 l 2,7,8
 59 1646 59 1646 60 1651 c 1,9,-1
 165 1651 l 1,10,11
 166 1644 166 1644 166.5 1636 c 128,-1,12
 167 1628 167 1628 171 1611 c 128,-1,13
 175 1594 175 1594 186.5 1564 c 128,-1,14
 198 1534 198 1534 219.5 1508 c 0,15,16
 269.942 1447 269.942 1447 338.971 1447 c 128,-1,17
 408 1447 408 1447 446.5 1470.5 c 128,-1,18
 485 1494 485 1494 510.5 1526.5 c 0,19,20
 541.985 1566.63 541.985 1566.63 575 1651 c 1,21,-1
 677 1651 l 1,22,23
 677 1582 677 1582 643 1514 c 128,-1,24
 609 1446 609 1446 565.5 1401 c 128,-1,0
 522 1356 522 1356 466.5 1328 c 128,-1,1
EndSplineSet
EndChar

StartChar: ring
Encoding: 730 730 135
Width: 722
Flags: HW
LayerCount: 2
Fore
SplineSet
360.5 1253 m 0,0,1
 293 1253 293 1253 237.5 1272.5 c 0,2,3
 89.6667 1324.44 89.6667 1324.44 89.6667 1486 c 0,4,5
 89.6667 1505.33 89.6667 1505.33 95.3333 1550.17 c 128,-1,6
 101 1595 101 1595 135 1644 c 128,-1,7
 169 1693 169 1693 217.5 1724.5 c 0,8,9
 312.19 1786 312.19 1786 446.595 1786 c 128,-1,10
 581 1786 581 1786 647.14 1721.7 c 128,-1,11
 713.279 1657.4 713.279 1657.4 713.279 1560.24 c 0,12,13
 713.279 1402.6 713.279 1402.6 591.5 1318 c 0,14,15
 497.939 1253 497.939 1253 360.5 1253 c 0,0,1
319 1355 m 128,-1,17
 349 1340 349 1340 385.5 1339.5 c 128,-1,18
 422 1339 422 1339 454.5 1347.5 c 128,-1,19
 487 1356 487 1356 511 1376 c 0,20,21
 573.231 1427.86 573.231 1427.86 573.231 1538.05 c 0,22,23
 573.231 1643.79 573.231 1643.79 488.5 1684 c 0,24,25
 459 1698 459 1698 422 1698 c 128,-1,26
 385 1698 385 1698 352.5 1689 c 128,-1,27
 320 1680 320 1680 295 1660 c 0,28,29
 230.857 1608.69 230.857 1608.69 230.857 1504.65 c 0,30,31
 230.857 1442.32 230.857 1442.32 259.929 1406.16 c 128,-1,16
 289 1370 289 1370 319 1355 c 128,-1,17
EndSplineSet
EndChar

StartChar: tilde
Encoding: 732 732 136
Width: 816
Flags: HW
LayerCount: 2
Fore
SplineSet
50 1481 m 1,0,1
 104.901 1590.8 104.901 1590.8 220.5 1635.5 c 0,2,3
 258 1650 258 1650 294 1650 c 128,-1,4
 330 1650 330 1650 355.5 1639.5 c 128,-1,5
 381 1629 381 1629 402 1613.5 c 128,-1,6
 423 1598 423 1598 441 1580 c 128,-1,7
 459 1562 459 1562 476.5 1546.5 c 0,8,9
 517.71 1510 517.71 1510 549.855 1510 c 128,-1,10
 582 1510 582 1510 604 1520.5 c 128,-1,11
 626 1531 626 1531 644.5 1547 c 128,-1,12
 663 1563 663 1563 678.5 1582.5 c 2,13,-1
 708 1620 l 1,14,-1
 766 1529 l 1,15,16
 724.235 1406.92 724.235 1406.92 597.5 1362 c 0,17,18
 558 1348 558 1348 516 1348 c 128,-1,19
 474 1348 474 1348 446 1358 c 128,-1,20
 418 1368 418 1368 397 1383.5 c 128,-1,21
 376 1399 376 1399 360 1417 c 128,-1,22
 344 1435 344 1435 327.5 1450.5 c 0,23,24
 268.38 1506.04 268.38 1506.04 207.5 1479.5 c 0,25,26
 151.023 1454.88 151.023 1454.88 97 1397 c 1,27,-1
 50 1481 l 1,0,1
EndSplineSet
EndChar

StartChar: hungarumlaut
Encoding: 733 733 137
Width: 917
Flags: HW
LayerCount: 2
Fore
SplineSet
475 1296 m 1,0,-1
 722 1712 l 1,1,-1
 867 1594 l 1,2,3
 845.472 1514.04 845.472 1514.04 734 1397.5 c 0,4,5
 620.489 1278.83 620.489 1278.83 540 1252 c 1,6,-1
 475 1296 l 1,0,-1
50 1296 m 1,7,-1
 287 1712 l 1,8,-1
 432 1595 l 1,9,10
 407.324 1509.58 407.324 1509.58 302.5 1399 c 0,11,12
 201.919 1292.89 201.919 1292.89 114 1252 c 1,13,-1
 50 1296 l 1,7,-1
EndSplineSet
EndChar

StartChar: ogonek
Encoding: 731 731 138
Width: 487
Flags: HW
LayerCount: 2
Fore
SplineSet
422 -304 m 1,0,1
 326.8 -388 326.8 -388 199 -388 c 0,2,3
 131.371 -388 131.371 -388 93 -348.5 c 0,4,5
 61.8824 -316.467 61.8824 -316.467 61.8824 -278.732 c 0,6,7
 61.8824 -216.979 61.8824 -216.979 100.941 -152.99 c 128,-1,8
 140 -89 140 -89 190.5 -48 c 128,-1,9
 241 -7 241 -7 288 25 c 1,10,-1
 340 59 l 1,11,-1
 360 7 l 1,12,13
 244.704 -117.52 244.704 -117.52 244.704 -195.26 c 128,-1,14
 244.704 -273 244.704 -273 283 -273 c 0,15,16
 331.867 -273 331.867 -273 399 -220 c 1,17,-1
 422 -304 l 1,0,1
EndSplineSet
EndChar

StartChar: fraction
Encoding: 8260 8260 139
Width: 1026
Flags: HW
LayerCount: 2
Fore
SplineSet
773 1530 m 1,0,-1
 932 1530 l 1,1,-1
 251 0 l 1,2,-1
 92 0 l 1,3,-1
 773 1530 l 1,0,-1
EndSplineSet
EndChar

StartChar: dollar
Encoding: 36 36 140
Width: 1205
Flags: HW
LayerCount: 2
Fore
SplineSet
853 1544 m 1,0,1
 1025.42 1526.58 1025.42 1526.58 1115 1465 c 1,2,-1
 1068 1220 l 1,3,-1
 952 1220 l 1,4,-1
 916 1384 l 1,5,6
 864.349 1423.5 864.349 1423.5 761 1438.5 c 0,7,8
 730 1443 730 1443 696.5 1443 c 128,-1,9
 663 1443 663 1443 618 1430 c 128,-1,10
 573 1417 573 1417 534 1387.5 c 0,11,12
 434.385 1312.15 434.385 1312.15 434.385 1173.23 c 0,13,14
 434.385 1031.35 434.385 1031.35 602.5 916.5 c 0,15,16
 653 882 653 882 710.5 846.5 c 1,17,-1
 828.5 770.5 l 1,18,19
 1044 626.24 1044 626.24 1044 429 c 0,20,21
 1044 242.41 1044 242.41 913 120 c 0,22,23
 791.093 6.08726 791.093 6.08726 598 -17 c 1,24,-1
 563 -230 l 1,25,-1
 383 -230 l 1,26,-1
 417 -19 l 1,27,28
 257.373 -4.48848 257.373 -4.48848 153 40.5 c 0,29,30
 124 53 124 53 109 65 c 1,31,-1
 154 343 l 1,32,-1
 280 343 l 1,33,-1
 302 159 l 1,34,35
 394.4 82 394.4 82 550 82 c 0,36,37
 661.031 82 661.031 82 747 145.5 c 0,38,39
 857.653 227.232 857.653 227.232 857.653 363.572 c 0,40,41
 857.653 505.437 857.653 505.437 696.5 614.5 c 1,42,-1
 472 761.5 l 1,43,44
 253 910.492 253 910.492 253 1121 c 0,45,46
 253 1295.89 253 1295.89 376 1413.5 c 0,47,48
 492.931 1525.3 492.931 1525.3 673 1546 c 1,49,-1
 703 1729 l 1,50,-1
 884 1729 l 1,51,-1
 853 1544 l 1,0,1
EndSplineSet
EndChar

StartChar: ordfeminine
Encoding: 170 170 141
Width: 854
Flags: HW
LayerCount: 2
Fore
SplineSet
583 869 m 1,0,1
 473.435 743 473.435 743 333 743 c 0,2,3
 215.078 743 215.078 743 149 822.5 c 0,4,5
 84 900.703 84 900.703 84 1040 c 0,6,7
 84 1166.09 84 1166.09 152.5 1291.5 c 0,8,9
 258.893 1486.28 258.893 1486.28 459 1554.5 c 0,10,11
 525 1577 525 1577 603.682 1577 c 128,-1,12
 682.364 1577 682.364 1577 772 1548 c 1,13,-1
 875 1586 l 1,14,-1
 753 891 l 1,15,16
 750.84 837.001 750.84 837.001 765 837 c 256,17,18
 785.615 837 785.615 837 821 857 c 1,19,-1
 844 818 l 1,20,21
 836.73 803.459 836.73 803.459 796.865 782.73 c 0,22,23
 720.462 743 720.462 743 683.231 743 c 128,-1,24
 646 743 646 743 628 752.5 c 128,-1,25
 610 762 610 762 598 778.5 c 0,26,27
 571.106 815.479 571.106 815.479 583 869 c 1,0,1
268 1055 m 0,28,29
 268 861 268 861 413 861 c 0,30,31
 490.588 861 490.588 861 588 953 c 1,32,-1
 669 1417 l 1,33,34
 630.333 1475 630.333 1475 561.667 1475 c 128,-1,35
 493 1475 493 1475 435.5 1436.5 c 128,-1,36
 378 1398 378 1398 340.5 1337.5 c 0,37,38
 268 1220.53 268 1220.53 268 1055 c 0,28,29
EndSplineSet
EndChar

StartChar: ordmasculine
Encoding: 186 186 142
Width: 854
Flags: HW
LayerCount: 2
Fore
SplineSet
729 860 m 128,-1,1
 663 796 663 796 583.377 764.442 c 128,-1,2
 503.754 732.884 503.754 732.884 424.012 733.386 c 128,-1,3
 344.271 733.887 344.271 733.887 284.135 758.944 c 128,-1,4
 224 784 224 784 181.5 830 c 0,5,6
 92 926.871 92 926.871 92 1085 c 0,7,8
 92 1313.93 92 1313.93 245.5 1459 c 0,9,10
 383.058 1589 383.058 1589 551 1589 c 1,11,12
 707.601 1587.04 707.601 1587.04 794 1488 c 0,13,14
 877 1392.85 877 1392.85 877 1252.43 c 128,-1,15
 877 1112 877 1112 836 1018 c 128,-1,0
 795 924 795 924 729 860 c 128,-1,1
372.5 857.5 m 0,16,17
 398 838 398 838 414.07 837.986 c 128,-1,18
 430.141 837.972 430.141 837.972 432.26 837.972 c 0,19,20
 566.426 837.972 566.426 837.972 630.5 960.5 c 0,21,22
 681 1057.07 681 1057.07 681 1216 c 0,23,24
 681 1406.84 681 1406.84 592.5 1470.5 c 0,25,26
 564 1491 564 1491 511 1491 c 128,-1,27
 458 1491 458 1491 411.5 1452.5 c 128,-1,28
 365 1414 365 1414 337 1356.5 c 0,29,30
 286 1251.77 286 1251.77 286 1103 c 256,31,32
 286 923.647 286 923.647 372.5 857.5 c 0,16,17
EndSplineSet
EndChar

StartChar: percent
Encoding: 37 37 143
Width: 1911
Flags: HW
LayerCount: 2
Fore
SplineSet
1342 1530 m 1,0,-1
 1501 1530 l 1,1,-1
 554 0 l 1,2,-1
 395 0 l 1,3,-1
 1342 1530 l 1,0,-1
648.5 783 m 128,-1,5
 572 745 572 745 490.5 745 c 128,-1,6
 409 745 409 745 357 768.5 c 128,-1,7
 305 792 305 792 270 834 c 0,8,9
 200 918 200 918 200 1055 c 0,10,11
 200 1219.36 200 1219.36 317 1347 c 0,12,13
 438.917 1480 438.917 1480 613 1480 c 0,14,15
 890 1480 890 1480 890 1185 c 0,16,17
 890 1012.21 890 1012.21 778.5 883 c 0,18,4
 725 821 725 821 648.5 783 c 128,-1,5
710 1177 m 0,19,20
 710 1378 710 1378 585 1378 c 0,21,22
 481.845 1378 481.845 1378 421 1264.5 c 0,23,24
 371 1171.23 371 1171.23 371 1057 c 256,25,26
 371 907.412 371 907.412 446.5 863 c 0,27,28
 472 848 472 848 517.5 848 c 128,-1,29
 563 848 563 848 601.5 882 c 128,-1,30
 640 916 640 916 664 966.5 c 0,31,32
 710 1063.29 710 1063.29 710 1177 c 0,19,20
1036 380.5 m 0,33,34
 1036 453 1036 453 1067 529.5 c 128,-1,35
 1098 606 1098 606 1153 666 c 0,36,37
 1274.92 799 1274.92 799 1449 799 c 0,38,39
 1726 799 1726 799 1726 504 c 0,40,41
 1726 331.215 1726 331.215 1614.5 202 c 0,42,43
 1495.42 64 1495.42 64 1314 64 c 0,44,45
 1180.17 64 1180.17 64 1106 153 c 0,46,47
 1036 237 1036 237 1036 380.5 c 0,33,34
1546 496 m 0,48,49
 1546 697 1546 697 1421 697 c 0,50,51
 1317.85 697 1317.85 697 1257 583.5 c 0,52,53
 1207 490.231 1207 490.231 1207 376 c 256,54,55
 1207 226.412 1207 226.412 1282.5 182 c 0,56,57
 1308 167 1308 167 1353.5 167 c 128,-1,58
 1399 167 1399 167 1437.5 201 c 128,-1,59
 1476 235 1476 235 1500 285.5 c 0,60,61
 1546 382.292 1546 382.292 1546 496 c 0,48,49
EndSplineSet
Ligature2: "'frac' Diagonal Fractions in Latin lookup 10 subtable" zero slash zero
EndChar

StartChar: Oslash
Encoding: 216 216 144
Width: 1386
Flags: HW
LayerCount: 2
Fore
SplineSet
619 -18 m 0,0,1
 432.15 -18 432.15 -18 303 105 c 1,2,-1
 146 -132 l 1,3,-1
 57 -83 l 1,4,-1
 235 184 l 1,5,6
 106.667 367.944 106.667 367.944 106.667 672.389 c 0,7,8
 106.667 1046.85 106.667 1046.85 307.5 1297.5 c 0,9,10
 511.416 1552 511.416 1552 810 1552 c 0,11,12
 968.111 1552 968.111 1552 1083 1458 c 1,13,-1
 1224 1670 l 1,14,-1
 1313 1621 l 1,15,-1
 1156 1384 l 1,16,17
 1306.17 1194.75 1306.17 1194.75 1306.17 872.413 c 0,18,19
 1306.17 495.833 1306.17 495.833 1115 243 c 0,20,21
 988.97 76.3157 988.97 76.3157 808.5 13.5 c 0,22,23
 718 -18 718 -18 619 -18 c 0,0,1
985 1327 m 1,24,25
 905 1427 905 1427 776 1427 c 0,26,27
 678 1427 678 1427 592 1374.5 c 0,28,29
 417.214 1267.8 417.214 1267.8 344 1008.5 c 0,30,31
 310.769 890.808 310.769 890.808 310.769 754.796 c 0,32,33
 310.769 508.949 310.769 508.949 360 351 c 1,34,-1
 985 1327 l 1,24,25
408 240 m 1,35,36
 491.647 101.982 491.647 101.982 650.435 101.982 c 0,37,38
 746.491 101.982 746.491 101.982 830.746 157.491 c 0,39,40
 1003.45 271.271 1003.45 271.271 1073.5 552.5 c 0,41,42
 1105.24 679.92 1105.24 679.92 1105.24 829.77 c 0,43,44
 1105.24 1074.26 1105.24 1074.26 1042 1228 c 1,45,-1
 408 240 l 1,35,36
EndSplineSet
EndChar

StartChar: ccedilla
Encoding: 231 231 150
Width: 903
Flags: HW
LayerCount: 2
Fore
SplineSet
532 -11 m 1,0,1
 543.167 -47.8501 543.167 -47.8501 543.167 -95.5917 c 128,-1,2
 543.167 -143.333 543.167 -143.333 536.583 -206.167 c 128,-1,3
 530 -269 530 -269 508 -323.5 c 128,-1,4
 486 -378 486 -378 451.5 -409 c 0,5,6
 390.29 -464 390.29 -464 271 -464 c 0,7,8
 170.333 -464 170.333 -464 133 -436 c 1,9,-1
 168 -305 l 1,10,11
 194 -319 194 -319 232 -319 c 128,-1,12
 270 -319 270 -319 298 -308.5 c 128,-1,13
 326 -298 326 -298 348.5 -274.5 c 0,14,15
 420.988 -198.79 420.988 -198.79 411 -19 c 1,16,17
 173.558 -0.735208 173.558 -0.735208 106 248 c 0,18,19
 84 329 84 329 84 418 c 128,-1,20
 84 507 84 507 101 591 c 128,-1,21
 118 675 118 675 151.5 756.5 c 128,-1,22
 185 838 185 838 234.5 911.5 c 128,-1,23
 284 985 284 985 349.5 1041 c 0,24,25
 492.196 1163 492.196 1163 673 1163 c 0,26,27
 801.364 1163 801.364 1163 893 1115 c 1,28,-1
 835 921 l 1,29,30
 726.098 1016 726.098 1016 639.049 1016 c 128,-1,31
 552 1016 552 1016 490.5 979.5 c 128,-1,32
 429 943 429 943 385 872.5 c 0,33,34
 293 725.091 293 725.091 293 460 c 0,35,36
 293 203.267 293 203.267 413.5 139 c 0,37,38
 451 119 451 119 492.5 119 c 128,-1,39
 534 119 534 119 565 125.5 c 128,-1,40
 596 132 596 132 627 146 c 0,41,42
 683.079 171.326 683.079 171.326 766 232 c 1,43,-1
 805 151 l 1,44,45
 739.338 72.205 739.338 72.205 627.5 19.5 c 0,46,47
 584 -1 584 -1 532 -11 c 1,0,1
EndSplineSet
EndChar

StartChar: oe
Encoding: 339 339 189
Width: 1778
Flags: HW
LayerCount: 2
Fore
SplineSet
869 173 m 1,0,1
 706.705 -20 706.705 -20 483 -20 c 0,2,3
 294.991 -20 294.991 -20 192 100.5 c 0,4,5
 86.8049 223.578 86.8049 223.578 86.8049 456.732 c 0,6,7
 86.8049 626.051 86.8049 626.051 157 787.5 c 0,8,9
 270.312 1048.12 270.312 1048.12 495 1133.5 c 0,10,11
 570 1162 570 1162 654 1162 c 0,12,13
 904.208 1162 904.208 1162 1001 954 c 1,14,15
 1171.78 1162 1171.78 1162 1403 1162 c 0,16,17
 1611.62 1162 1611.62 1162 1669.5 1011.5 c 0,18,19
 1687 966 1687 966 1687 901 c 128,-1,20
 1687 836 1687 836 1651 772.5 c 128,-1,21
 1615 709 1615 709 1557 659 c 128,-1,22
 1499 609 1499 609 1426 572.5 c 128,-1,23
 1353 536 1353 536 1279 511.5 c 0,24,25
 1130.42 462.307 1130.42 462.307 1022 460 c 1,26,27
 1019.33 438.667 1019.33 438.667 1019.33 420.833 c 128,-1,28
 1019.33 403 1019.33 403 1020.67 378 c 128,-1,29
 1022 353 1022 353 1031 315 c 128,-1,30
 1040 277 1040 277 1056 241.5 c 128,-1,31
 1072 206 1072 206 1097 179 c 0,32,33
 1152.56 119 1152.56 119 1237 119 c 0,34,35
 1420.05 119 1420.05 119 1577 265 c 1,36,-1
 1623 182 l 1,37,38
 1572.92 110.46 1572.92 110.46 1469.5 51.5 c 0,39,40
 1344.08 -20 1344.08 -20 1213 -20 c 0,41,42
 974.69 -20 974.69 -20 869 173 c 1,0,1
1027 570 m 1,43,44
 1173.57 577.328 1173.57 577.328 1315.5 659.5 c 0,45,46
 1416.21 717.806 1416.21 717.806 1459.5 801.5 c 0,47,48
 1482 845 1482 845 1482 910 c 128,-1,49
 1482 975 1482 975 1447 1010.5 c 128,-1,50
 1412 1046 1412 1046 1358.5 1046 c 128,-1,51
 1305 1046 1305 1046 1262 1022.5 c 128,-1,52
 1219 999 1219 999 1184.5 960 c 128,-1,53
 1150 921 1150 921 1122.5 871 c 128,-1,54
 1095 821 1095 821 1075.5 768 c 0,55,56
 1038.65 667.836 1038.65 667.836 1027 570 c 1,43,44
421.5 125.5 m 0,57,58
 463 102 463 102 519.5 102 c 128,-1,59
 576 102 576 102 623 129.5 c 128,-1,60
 670 157 670 157 706.5 203.5 c 0,61,62
 776.015 292.06 776.015 292.06 813 440 c 1,63,64
 817.05 537.189 817.05 537.189 841 629 c 1,65,66
 842.143 653 842.143 653 842.143 675.429 c 128,-1,67
 842.143 697.857 842.143 697.857 841.071 731.429 c 128,-1,68
 840 765 840 765 832 811 c 128,-1,69
 824 857 824 857 808.5 898.5 c 128,-1,70
 793 940 793 940 767.5 971.5 c 0,71,72
 711.238 1041 711.238 1041 618 1041 c 0,73,74
 458.6 1041 458.6 1041 368.5 837 c 0,75,76
 293.882 668.054 293.882 668.054 293.882 456.135 c 0,77,78
 293.882 197.765 293.882 197.765 421.5 125.5 c 0,57,58
EndSplineSet
EndChar

StartChar: daggerdbl
Encoding: 8225 8225 190
Width: 816
Flags: HW
LayerCount: 2
Fore
SplineSet
590 1127 m 1,0,1
 582.667 1059.17 582.667 1059.17 582.667 1026.08 c 128,-1,2
 582.667 993 582.667 993 583 981 c 1,3,-1
 521 779 l 1,4,-1
 756 779 l 1,5,-1
 735 629 l 1,6,-1
 521 629 l 1,7,8
 522.773 575.801 522.773 575.801 514 510 c 1,9,-1
 407 -51 l 1,10,-1
 289 -51 l 1,11,-1
 325 510 l 1,12,-1
 351 629 l 1,13,-1
 136 629 l 1,14,-1
 160 779 l 1,15,-1
 385 779 l 1,16,-1
 384 981 l 1,17,-1
 430 1127 l 1,18,-1
 179 1127 l 1,19,-1
 203 1277 l 1,20,-1
 475 1277 l 1,21,-1
 471 1469 l 1,22,-1
 490 1646 l 1,23,-1
 681 1646 l 1,24,-1
 653 1469 l 1,25,-1
 600 1277 l 1,26,-1
 850 1277 l 1,27,-1
 828 1127 l 1,28,-1
 590 1127 l 1,0,1
EndSplineSet
EndChar

StartChar: Euro
Encoding: 8364 8364 191
Width: 1388
Flags: HW
LayerCount: 2
Fore
SplineSet
40 695 m 1,0,-1
 224 695 l 1,1,2
 227 797 227 797 247 894 c 1,3,-1
 88 894 l 1,4,-1
 107 1024 l 1,5,-1
 283 1024 l 1,6,7
 366.553 1264.71 366.553 1264.71 543 1406.5 c 0,8,9
 716.6 1546 716.6 1546 929 1546 c 0,10,11
 1071.53 1546 1071.53 1546 1185.5 1510.5 c 1,12,-1
 1243 1492 l 1,13,-1
 1281.5 1481 l 2,14,15
 1302 1475 1302 1475 1315 1472 c 1,16,-1
 1262 1254 l 1,17,-1
 1154 1254 l 1,18,-1
 1125 1358 l 1,19,20
 1060.38 1428 1060.38 1428 875 1428 c 0,21,22
 654.067 1428 654.067 1428 535 1193 c 0,23,24
 497 1118 497 1118 472 1024 c 1,25,-1
 1045 1024 l 1,26,-1
 1025 894 l 1,27,-1
 444 894 l 1,28,29
 428.61 790.668 428.61 790.668 425 695 c 1,30,-1
 978 695 l 1,31,-1
 965 564 l 1,32,-1
 424 564 l 1,33,34
 433.518 227.71 433.518 227.71 591.5 133.5 c 0,35,36
 646 101 646 101 703.5 101 c 128,-1,37
 761 101 761 101 803.5 107 c 128,-1,38
 846 113 846 113 885 125.5 c 0,39,40
 970.69 152.965 970.69 152.965 1006 205 c 1,41,-1
 1074 340 l 1,42,-1
 1194 339 l 1,43,-1
 1148 70 l 1,44,45
 1105.31 67.0556 1105.31 67.0556 1048.15 51.0278 c 2,46,-1
 955.5 24.5 l 1,47,48
 656.72 -63.8715 656.72 -63.8715 490.5 33.5 c 0,49,50
 254.802 171.572 254.802 171.572 226 564 c 1,51,-1
 26 564 l 1,52,-1
 40 695 l 1,0,-1
EndSplineSet
EndChar

StartChar: infinity
Encoding: 8734 8734 192
Width: 1878
Flags: HW
LayerCount: 2
Fore
SplineSet
925 496 m 1,0,1
 762.963 239.877 762.963 239.877 546.154 239.877 c 0,2,3
 372.196 239.877 372.196 239.877 268 349.5 c 0,4,5
 172 450.5 172 450.5 172 597 c 0,6,7
 172 767.13 172 767.13 287 880 c 0,8,9
 403.151 994 403.151 994 573 994 c 0,10,11
 734.717 994 734.717 994 880 831 c 1,12,-1
 960 737 l 1,13,14
 1071.01 906.987 1071.01 906.987 1232.5 971 c 0,15,16
 1290.6 994.032 1290.6 994.032 1367.92 994.032 c 128,-1,17
 1445.24 994.032 1445.24 994.032 1513.62 964.516 c 128,-1,18
 1582 935 1582 935 1626 884.5 c 0,19,20
 1712 785.795 1712 785.795 1712 637 c 0,21,22
 1712 464.631 1712 464.631 1604.5 354 c 0,23,24
 1493.73 240 1493.73 240 1311 240 c 0,25,26
 1149.39 240 1149.39 240 1005 402 c 1,27,-1
 925 496 l 1,0,1
485 380.5 m 128,-1,29
 528 357 528 357 574.5 357 c 128,-1,30
 621 357 621 357 658.5 376 c 128,-1,31
 696 395 696 395 731 426.5 c 128,-1,32
 766 458 766 458 798 498 c 1,33,-1
 860 579 l 1,34,-1
 794 674 l 1,35,36
 662 872 662 872 542 872 c 0,37,38
 448.818 872 448.818 872 395 798 c 0,39,40
 348 733.375 348 733.375 348 657.188 c 128,-1,41
 348 581 348 581 364.5 531.5 c 128,-1,42
 381 482 381 482 411.5 443 c 128,-1,28
 442 404 442 404 485 380.5 c 128,-1,29
1026 653 m 1,43,-1
 1095 555 l 2,44,45
 1236.72 352 1236.72 352 1362 352 c 0,46,47
 1455 352 1455 352 1499 429 c 0,48,49
 1536 493.75 1536 493.75 1536 572.375 c 128,-1,50
 1536 651 1536 651 1522.5 699 c 128,-1,51
 1509 747 1509 747 1482 784.5 c 0,52,53
 1422.6 867 1422.6 867 1324 867 c 0,54,55
 1191.85 867 1191.85 867 1026 653 c 1,43,-1
EndSplineSet
EndChar

StartChar: lessequal
Encoding: 8804 8804 193
Width: 1364
Flags: HW
LayerCount: 2
Fore
SplineSet
207 767 m 1,0,-1
 1205 1204 l 1,1,-1
 1184 1021 l 1,2,-1
 454 726 l 1,3,-1
 1115 428 l 1,4,-1
 1094 246 l 1,5,-1
 198 689 l 1,6,-1
 207 767 l 1,0,-1
158 148 m 1,7,-1
 1106 148 l 1,8,-1
 1088 -2 l 1,9,-1
 140 -2 l 1,10,-1
 158 148 l 1,7,-1
EndSplineSet
EndChar

StartChar: greaterequal
Encoding: 8805 8805 194
Width: 1364
Flags: HW
LayerCount: 2
Fore
SplineSet
221 428 m 1,0,-1
 956 726 l 1,1,-1
 299 1021 l 1,2,-1
 323 1204 l 1,3,-1
 1212 767 l 1,4,-1
 1202 689 l 1,5,-1
 197 246 l 1,6,-1
 221 428 l 1,0,-1
161 148 m 1,7,-1
 1109 148 l 1,8,-1
 1089 -2 l 1,9,-1
 141 -2 l 1,10,-1
 161 148 l 1,7,-1
EndSplineSet
EndChar

StartChar: partialdiff
Encoding: 8706 8706 195
Width: 1364
Flags: HW
LayerCount: 2
Fore
SplineSet
274 1551 m 1,0,1
 435.824 1682 435.824 1682 665 1682 c 0,2,3
 866.459 1682 866.459 1682 1000 1560.5 c 0,4,5
 1167.21 1408.36 1167.21 1408.36 1204.5 1122.5 c 0,6,7
 1215 1042 1215 1042 1215 953.5 c 128,-1,8
 1215 865 1215 865 1204 750.5 c 128,-1,9
 1193 636 1193 636 1165.5 525 c 128,-1,10
 1138 414 1138 414 1091 314.5 c 128,-1,11
 1044 215 1044 215 973.5 140 c 0,12,13
 819.34 -24 819.34 -24 577 -24 c 0,14,15
 402.556 -24 402.556 -24 287 116 c 0,16,17
 184.695 239.947 184.695 239.947 184.695 402.541 c 0,18,19
 184.695 579.711 184.695 579.711 285 736 c 0,20,21
 369.244 867.264 369.244 867.264 506.5 946 c 0,22,23
 638.987 1022 638.987 1022 778.736 1022 c 128,-1,24
 918.486 1022 918.486 1022 1038 933 c 1,25,26
 1038.12 943 1038.12 943 1038.12 952.969 c 0,27,28
 1038.12 1560 1038.12 1560 589 1560 c 0,29,30
 474.522 1560 474.522 1560 354 1483 c 1,31,-1
 274 1551 l 1,0,1
1025 732 m 1,32,33
 909.281 893 909.281 893 699 893 c 0,34,35
 657 893 657 893 602 869 c 128,-1,36
 547 845 547 845 497 794 c 0,37,38
 369.467 663.916 369.467 663.916 369.467 454.418 c 0,39,40
 369.467 329.721 369.467 329.721 427.5 228.5 c 0,41,42
 500.027 102 500.027 102 636 102 c 0,43,44
 913.077 102 913.077 102 992.5 515 c 0,45,46
 1005 580 1005 580 1014 644 c 2,47,-1
 1025 732 l 1,32,33
EndSplineSet
EndChar

StartChar: summation
Encoding: 8721 8721 196
Width: 1591
Flags: HW
LayerCount: 2
Fore
SplineSet
775 674 m 1,0,-1
 227 1442 l 1,1,-1
 257 1522 l 1,2,-1
 1326 1522 l 1,3,-1
 1353 1238 l 1,4,-1
 1231 1238 l 1,5,-1
 1171 1400 l 1,6,-1
 456 1417 l 1,7,-1
 986 694 l 1,8,-1
 455 -62 l 1,9,-1
 1168 -43 l 1,10,-1
 1271 163 l 1,11,-1
 1379 139 l 1,12,-1
 1331 -172 l 1,13,-1
 253 -171 l 1,14,-1
 227 -119 l 1,15,-1
 775 674 l 1,0,-1
EndSplineSet
EndChar

StartChar: product
Encoding: 8719 8719 197
Width: 1536
Flags: HW
LayerCount: 2
Fore
SplineSet
320 -57 m 1,0,-1
 320 1402 l 1,1,-1
 156 1424 l 1,2,-1
 156 1522 l 1,3,-1
 1493 1522 l 1,4,-1
 1493 1424 l 1,5,-1
 1329 1402 l 1,6,-1
 1329 -57 l 1,7,-1
 1497 -88 l 1,8,-1
 1497 -172 l 1,9,-1
 963 -172 l 1,10,-1
 963 -88 l 1,11,-1
 1135 -57 l 1,12,-1
 1135 1402 l 1,13,-1
 514 1402 l 1,14,-1
 514 -57 l 1,15,-1
 685 -88 l 1,16,-1
 685 -172 l 1,17,-1
 152 -172 l 1,18,-1
 152 -88 l 1,19,-1
 320 -57 l 1,0,-1
EndSplineSet
EndChar

StartChar: pi
Encoding: 960 960 198
Width: 1621
Flags: HW
LayerCount: 2
Fore
SplineSet
1519 1214 m 1,0,1
 1480.11 963 1480.11 963 1185 963 c 2,2,-1
 1168 963 l 1,3,-1
 1087.5 334 l 2,4,5
 1076 239.909 1076 239.909 1076 212.955 c 128,-1,6
 1076 186 1076 186 1093 162 c 128,-1,7
 1110 138 1110 138 1132.5 137 c 128,-1,8
 1155 136 1155 136 1181 147 c 128,-1,9
 1207 158 1207 158 1230.5 178 c 0,10,11
 1279.66 219.836 1279.66 219.836 1300 289 c 1,12,-1
 1434 289 l 1,13,14
 1401.62 168.745 1401.62 168.745 1309.5 80.5 c 0,15,16
 1200.41 -24 1200.41 -24 1061 -24 c 0,17,18
 933.941 -24 933.941 -24 901 88 c 0,19,20
 891 122 891 122 891 152 c 128,-1,21
 891 182 891 182 892.5 210 c 128,-1,22
 894 238 894 238 898.5 280.5 c 128,-1,23
 903 323 903 323 910.5 382.5 c 128,-1,24
 918 442 918 442 930.5 524.5 c 2,25,-1
 1000 963 l 1,26,-1
 723 964 l 1,27,-1
 638 430 l 2,28,29
 584.364 92.096 584.364 92.096 400 8 c 0,30,31
 343 -18 343 -18 277 -28 c 1,32,-1
 160 96 l 1,33,34
 336.708 144.988 336.708 144.988 400.5 262.5 c 0,35,36
 429 315 429 315 440.5 373 c 128,-1,37
 452 431 452 431 465 489 c 2,38,-1
 572 964 l 1,39,-1
 509 964 l 2,40,41
 430.5 964 430.5 964 357 887 c 0,42,43
 336 865 336 865 325 841 c 1,44,-1
 199 858 l 1,45,46
 199 953.986 199 953.986 288.5 1030 c 0,47,48
 393.29 1119 393.29 1119 561 1119 c 2,49,-1
 1227 1119 l 2,50,51
 1314.42 1119 1314.42 1119 1358 1165 c 0,52,53
 1376 1184 1376 1184 1391 1214 c 1,54,-1
 1519 1214 l 1,0,1
EndSplineSet
EndChar

StartChar: integral
Encoding: 8747 8747 199
Width: 1063
Flags: HW
LayerCount: 2
Fore
SplineSet
168 -280 m 1,0,1
 195.81 -351.511 195.81 -351.511 281 -386.5 c 0,2,3
 309 -398 309 -398 358.5 -398 c 128,-1,4
 408 -398 408 -398 450 -378 c 128,-1,5
 492 -358 492 -358 514.5 -317 c 0,6,7
 553 -246.844 553 -246.844 553 -104.922 c 128,-1,8
 553 37 553 37 536 141 c 128,-1,9
 519 245 519 245 493 350.5 c 128,-1,10
 467 456 467 456 437 561.5 c 128,-1,11
 407 667 407 667 381 772 c 0,12,13
 321 1014.31 321 1014.31 321 1152.15 c 128,-1,14
 321 1290 321 1290 349.5 1383.5 c 128,-1,15
 378 1477 378 1477 431.5 1547.5 c 0,16,17
 547.227 1700 547.227 1700 734 1700 c 0,18,19
 863.517 1700 863.517 1700 948 1630 c 0,20,21
 983 1601 983 1601 1004 1553 c 1,22,-1
 876 1462 l 1,23,24
 871.355 1499.16 871.355 1499.16 835.678 1527.08 c 0,25,26
 768.055 1580 768.055 1580 702.028 1580 c 128,-1,27
 636 1580 636 1580 594.5 1560 c 128,-1,28
 553 1540 553 1540 530.5 1499 c 0,29,30
 492 1428.84 492 1428.84 492 1286.92 c 128,-1,31
 492 1145 492 1145 509 1041 c 128,-1,32
 526 937 526 937 552 832 c 128,-1,33
 578 727 578 727 608 621.5 c 128,-1,34
 638 516 638 516 664 411 c 0,35,36
 724 168.692 724 168.692 724 30.3462 c 128,-1,37
 724 -108 724 -108 695.5 -201.5 c 128,-1,38
 667 -295 667 -295 613 -365.5 c 0,39,40
 496.191 -518 496.191 -518 310 -518 c 0,41,42
 181.483 -518 181.483 -518 97 -448 c 0,43,44
 62 -419 62 -419 41 -371 c 1,45,-1
 168 -280 l 1,0,1
EndSplineSet
EndChar

StartChar: Omega
Encoding: 8486 8486 200
Width: 1659
Flags: HW
LayerCount: 2
Fore
SplineSet
4 359 m 1,0,-1
 104 366 l 1,1,-1
 130 151 l 1,2,-1
 464 151 l 1,3,4
 338.928 244.002 338.928 244.002 243 440.5 c 0,5,6
 155.938 618.838 155.938 618.838 155.938 795 c 0,7,8
 155.938 935.399 155.938 935.399 199.469 1048.7 c 128,-1,9
 243 1162 243 1162 298 1238.5 c 128,-1,10
 353 1315 353 1315 424 1372.5 c 128,-1,11
 495 1430 495 1430 576.5 1468.5 c 0,12,13
 738.442 1545 738.442 1545 903.721 1545 c 128,-1,14
 1069 1545 1069 1545 1188 1502.5 c 0,15,16
 1432.61 1415.14 1432.61 1415.14 1509.5 1172.5 c 0,17,18
 1535.73 1089.71 1535.73 1089.71 1535.73 1016.86 c 128,-1,19
 1535.73 944.018 1535.73 944.018 1529.87 888.509 c 128,-1,20
 1524 833 1524 833 1504 766.5 c 128,-1,21
 1484 700 1484 700 1453.5 632 c 128,-1,22
 1423 564 1423 564 1383.5 497 c 128,-1,23
 1344 430 1344 430 1298.5 369 c 0,24,25
 1201.58 239.065 1201.58 239.065 1104 161 c 1,26,-1
 1434 161 l 1,27,-1
 1524 397 l 1,28,-1
 1622 390 l 1,29,-1
 1553 0 l 1,30,-1
 927 0 l 1,31,-1
 907 129 l 1,32,33
 1067.33 229.722 1067.33 229.722 1182.5 430.5 c 0,34,35
 1327.84 683.882 1327.84 683.882 1327.84 975.475 c 0,36,37
 1327.84 1187.23 1327.84 1187.23 1214.5 1309 c 0,38,39
 1099.08 1433 1099.08 1433 899 1433 c 0,40,41
 551.739 1433 551.739 1433 421.5 1121 c 0,42,43
 359.543 972.575 359.543 972.575 359.543 778.57 c 0,44,45
 359.543 582.81 359.543 582.81 444 399.5 c 0,46,47
 531.731 209.083 531.731 209.083 653 129 c 1,48,-1
 613 0 l 1,49,-1
 -16 0 l 1,50,-1
 4 359 l 1,0,-1
EndSplineSet
EndChar

StartChar: radical
Encoding: 8730 8730 201
Width: 1587
Flags: HW
LayerCount: 2
Fore
SplineSet
82 578 m 1,0,-1
 271 709 l 1,1,-1
 457 709 l 1,2,-1
 673 -116 l 1,3,-1
 1460 1917 l 1,4,-1
 1663 1917 l 1,5,-1
 742 -353 l 1,6,-1
 554 -353 l 1,7,-1
 276 543 l 1,8,9
 139 470 l 1,10,-1
 82 578 l 1,0,-1
EndSplineSet
EndChar

StartChar: Delta
Encoding: 8710 8710 203
Width: 1407
Flags: HW
LayerCount: 2
Fore
SplineSet
-33 22 m 1,0,-1
 731 1508 l 1,1,-1
 763 1508 l 1,2,-1
 1332 27 l 1,3,-1
 1315 0 l 1,4,-1
 -21 0 l 1,5,-1
 -33 22 l 1,0,-1
1075 119 m 1,6,-1
 683 1187 l 1,7,-1
 153 119 l 1,8,-1
 1075 119 l 1,6,-1
EndSplineSet
EndChar

StartChar: v
Encoding: 118 118 204
Width: 1057
Flags: HW
LayerCount: 2
Fore
SplineSet
870 1163 m 0,0,1
 998 1163 998 1163 998 963 c 0,2,3
 998 812.169 998 812.169 832.5 527 c 1,4,-1
 707 322 l 1,5,-1
 473 -8 l 1,6,-1
 322 -20 l 1,7,-1
 168 965 l 1,8,9
 153.565 1039.58 153.565 1039.58 98 1015.5 c 0,10,11
 83 1009 83 1009 66 998 c 1,12,-1
 37 1058 l 1,13,14
 71.5262 1113.24 71.5262 1113.24 161.5 1149.5 c 0,15,16
 195 1163 195 1163 233 1163 c 256,17,18
 334.451 1163 334.451 1163 356 1084.5 c 0,19,20
 363 1059 363 1059 366 1026 c 2,21,-1
 433 355 l 1,22,-1
 445 170 l 1,23,-1
 559 338 l 1,24,-1
 637 467 l 1,25,26
 759.265 675.182 759.265 675.182 803 899 c 1,27,28
 809.679 940.743 809.679 940.743 792.339 989.872 c 128,-1,29
 775 1039 775 1039 775 1075 c 128,-1,30
 775 1111 775 1111 801.5 1137 c 128,-1,31
 828 1163 828 1163 870 1163 c 0,0,1
EndSplineSet
EndChar

StartChar: ellipsis
Encoding: 8230 8230 205
Width: 1578
Flags: HW
LayerCount: 2
Fore
SplineSet
1142 50.5 m 128,-1,1
 1135 74 1135 74 1139 104 c 128,-1,2
 1143 134 1143 134 1157.5 161 c 128,-1,3
 1172 188 1172 188 1194 207.5 c 0,4,5
 1241.95 250 1241.95 250 1287.47 250 c 128,-1,6
 1333 250 1333 250 1357.5 240 c 0,7,8
 1418.12 215.255 1418.12 215.255 1418.12 143.469 c 0,9,10
 1418.12 67.6685 1418.12 67.6685 1358 18 c 0,11,12
 1309.58 -22 1309.58 -22 1265.79 -22 c 128,-1,13
 1222 -22 1222 -22 1200.5 -13.5 c 128,-1,14
 1179 -5 1179 -5 1164 11 c 128,-1,0
 1149 27 1149 27 1142 50.5 c 128,-1,1
616 50.5 m 128,-1,16
 609 74 609 74 613 104 c 128,-1,17
 617 134 617 134 631.5 161 c 128,-1,18
 646 188 646 188 668 207.5 c 0,19,20
 715.949 250 715.949 250 761.474 250 c 128,-1,21
 807 250 807 250 831.5 240 c 0,22,23
 892.125 215.255 892.125 215.255 892.125 143.469 c 0,24,25
 892.125 67.6685 892.125 67.6685 832 18 c 0,26,27
 783.579 -22 783.579 -22 739.789 -22 c 128,-1,28
 696 -22 696 -22 674.5 -13.5 c 128,-1,29
 653 -5 653 -5 638 11 c 128,-1,15
 623 27 623 27 616 50.5 c 128,-1,16
112 11 m 128,-1,31
 97 27 97 27 91.2727 46.2273 c 128,-1,32
 85.5455 65.4545 85.5455 65.4545 85.5455 94.6489 c 128,-1,33
 85.5455 123.843 85.5455 123.843 102.773 155.922 c 128,-1,34
 120 188 120 188 142 207.5 c 0,35,36
 189.949 250 189.949 250 235.474 250 c 128,-1,37
 281 250 281 250 305.5 240 c 0,38,39
 366.125 215.255 366.125 215.255 366.125 143.469 c 0,40,41
 366.125 67.6685 366.125 67.6685 306 18 c 0,42,43
 257.579 -22 257.579 -22 213.789 -22 c 128,-1,44
 170 -22 170 -22 148.5 -13.5 c 128,-1,30
 127 -5 127 -5 112 11 c 128,-1,31
EndSplineSet
EndChar

StartChar: perthousand
Encoding: 8240 8240 206
Width: 2708
Flags: HW
LayerCount: 2
Fore
SplineSet
1824 380.5 m 0,0,1
 1824 453 1824 453 1855 529.5 c 128,-1,2
 1886 606 1886 606 1941 666 c 0,3,4
 2062.92 799 2062.92 799 2237 799 c 0,5,6
 2514 799 2514 799 2514 504 c 0,7,8
 2514 331.215 2514 331.215 2402.5 202 c 0,9,10
 2283.42 64.0001 2283.42 64.0001 2102 64 c 0,11,12
 1968.17 64 1968.17 64 1894 153 c 0,13,14
 1824 237 1824 237 1824 380.5 c 0,0,1
2334 496 m 0,15,16
 2334 697 2334 697 2209 697 c 0,17,18
 2105.85 697 2105.85 697 2045 583.5 c 0,19,20
 1995 490.231 1995 490.231 1995 376 c 256,21,22
 1995 226.412 1995 226.412 2070.5 182 c 0,23,24
 2096 167 2096 167 2141.5 167 c 128,-1,25
 2187 167 2187 167 2225.5 201 c 128,-1,26
 2264 235 2264 235 2288 285.5 c 0,27,28
 2334 382.292 2334 382.292 2334 496 c 0,15,16
1342 1530 m 1,29,-1
 1501 1530 l 1,30,-1
 554 0 l 1,31,-1
 395 0 l 1,32,-1
 1342 1530 l 1,29,-1
648.5 783 m 128,-1,34
 572 745 572 745 490.5 745 c 128,-1,35
 409 745 409 745 357 768.5 c 128,-1,36
 305 792 305 792 270 834 c 0,37,38
 200 918 200 918 200 1055 c 0,39,40
 200 1219.36 200 1219.36 317 1347 c 0,41,42
 438.917 1480 438.917 1480 613 1480 c 0,43,44
 890 1480 890 1480 890 1185 c 0,45,46
 890 1012.21 890 1012.21 778.5 883 c 0,47,33
 725 821 725 821 648.5 783 c 128,-1,34
710 1177 m 0,48,49
 710 1378 710 1378 585 1378 c 0,50,51
 481.845 1378 481.845 1378 421 1264.5 c 0,52,53
 371 1171.23 371 1171.23 371 1057 c 256,54,55
 371 907.412 371 907.412 446.5 863 c 0,56,57
 472 848 472 848 517.5 848 c 128,-1,58
 563 848 563 848 601.5 882 c 128,-1,59
 640 916 640 916 664 966.5 c 0,60,61
 710 1063.29 710 1063.29 710 1177 c 0,48,49
1036 380.5 m 0,62,63
 1036 453 1036 453 1067 529.5 c 128,-1,64
 1098 606 1098 606 1153 666 c 0,65,66
 1274.92 799 1274.92 799 1449 799 c 0,67,68
 1726 799 1726 799 1726 504 c 0,69,70
 1726 331.215 1726 331.215 1614.5 202 c 0,71,72
 1495.42 64 1495.42 64 1314 64 c 0,73,74
 1180.17 64 1180.17 64 1106 153 c 0,75,76
 1036 237 1036 237 1036 380.5 c 0,62,63
1546 496 m 0,77,78
 1546 697 1546 697 1421 697 c 0,79,80
 1317.85 697 1317.85 697 1257 583.5 c 0,81,82
 1207 490.231 1207 490.231 1207 376 c 256,83,84
 1207 226.412 1207 226.412 1282.5 182 c 0,85,86
 1308 167 1308 167 1353.5 167 c 128,-1,87
 1399 167 1399 167 1437.5 201 c 128,-1,88
 1476 235 1476 235 1500 285.5 c 0,89,90
 1546 382.292 1546 382.292 1546 496 c 0,77,78
EndSplineSet
Ligature2: "'frac' Diagonal Fractions in Latin lookup 10 subtable" zero slash zero zero
EndChar

StartChar: florin
Encoding: 402 402 207
Width: 1058
Flags: HW
LayerCount: 2
Fore
SplineSet
791 1674.5 m 0,0,1
 839 1690 839 1690 911.5 1690 c 128,-1,2
 984 1690 984 1690 1018 1673 c 1,3,-1
 1007 1503 l 1,4,5
 993 1511 993 1511 946 1522.5 c 128,-1,6
 899 1534 899 1534 844 1534 c 128,-1,7
 789 1534 789 1534 753.5 1527 c 128,-1,8
 718 1520 718 1520 690 1494.5 c 0,9,10
 629.733 1439.61 629.733 1439.61 617 1285 c 1,11,-1
 600 1140 l 1,12,-1
 908 1140 l 1,13,-1
 897 1005 l 1,14,-1
 589 1005 l 1,15,-1
 417 -356 l 1,16,-1
 239 -356 l 1,17,-1
 411 1005 l 1,18,-1
 195 1005 l 1,19,-1
 201 1081 l 1,20,-1
 421 1140 l 1,21,-1
 429 1203 l 1,22,23
 446.051 1413.3 446.051 1413.3 601.5 1558.5 c 0,24,25
 691.179 1642.27 691.179 1642.27 791 1674.5 c 0,0,1
EndSplineSet
EndChar

StartChar: trademark
Encoding: 8482 8482 210
Width: 2120
Flags: HW
LayerCount: 2
Fore
SplineSet
865 831 m 1,0,-1
 972 846 l 1,1,-1
 1084 1437 l 1,2,-1
 985 1446 l 1,3,-1
 997 1530 l 1,4,-1
 1335 1530 l 1,5,-1
 1462 972 l 1,6,-1
 1718 1530 l 1,7,-1
 2045 1530 l 1,8,-1
 2033 1446 l 1,9,-1
 1936 1437 l 1,10,-1
 1915 847 l 1,11,-1
 2011 831 l 1,12,-1
 2000 754 l 1,13,-1
 1652 754 l 1,14,-1
 1663 831 l 1,15,-1
 1759 847 l 1,16,-1
 1779 1217 l 1,17,-1
 1798 1440 l 1,18,-1
 1767 1370 l 1,19,-1
 1469 746 l 1,20,-1
 1362 746 l 1,21,-1
 1224 1293 l 1,22,-1
 1189 1443 l 1,23,-1
 1083 846 l 1,24,-1
 1176 831 l 1,25,-1
 1165 754 l 1,26,-1
 854 754 l 1,27,-1
 865 831 l 1,0,-1
224 831 m 1,28,-1
 350 846 l 1,29,-1
 432 1435 l 1,30,-1
 269 1424 l 1,31,-1
 209 1296 l 1,32,-1
 144 1295 l 1,33,-1
 196 1530 l 1,34,-1
 872 1530 l 1,35,-1
 840 1297 l 1,36,-1
 777 1292 l 1,37,-1
 769 1425 l 1,38,-1
 603 1437 l 1,39,-1
 521 847 l 1,40,-1
 651 831 l 1,41,-1
 640 754 l 1,42,-1
 213 754 l 1,43,-1
 224 831 l 1,28,-1
EndSplineSet
EndChar

StartChar: notequal
Encoding: 8800 8800 211
Width: 1026
Flags: HW
LayerCount: 2
Fore
SplineSet
293 339 m 1,0,-1
 80 339 l 1,1,-1
 98 496 l 1,2,-1
 366 496 l 1,3,-1
 528 848 l 1,4,-1
 150 848 l 1,5,-1
 168 1005 l 1,6,-1
 601 1005 l 1,7,-1
 748 1324 l 1,8,-1
 907 1324 l 1,9,-1
 760 1005 l 1,10,-1
 983 1005 l 1,11,-1
 965 848 l 1,12,-1
 687 848 l 1,13,-1
 525 496 l 1,14,-1
 913 496 l 1,15,-1
 895 339 l 1,16,-1
 452 339 l 1,17,-1
 296 0 l 1,18,-1
 137 0 l 1,19,-1
 293 339 l 1,0,-1
EndSplineSet
EndChar

StartChar: OE
Encoding: 338 338 212
Width: 2216
Flags: HW
LayerCount: 2
Fore
SplineSet
598.5 -20 m 0,0,1
 504 -20 504 -20 410 24 c 128,-1,2
 316 68 316 68 248.5 150.5 c 0,3,4
 101.667 329.963 101.667 329.963 101.667 650.407 c 0,5,6
 101.667 1025.56 101.667 1025.56 302.5 1284 c 0,7,8
 433.238 1452.24 433.238 1452.24 616 1515.5 c 0,9,10
 707 1547 707 1547 795.5 1547 c 128,-1,11
 884 1547 884 1547 950 1523 c 128,-1,12
 1016 1499 1016 1499 1069 1455.5 c 0,13,14
 1171.23 1371.6 1171.23 1371.6 1228 1216 c 1,15,-1
 1267 1530 l 1,16,-1
 2056 1530 l 1,17,-1
 2049 1220 l 1,18,-1
 1943 1220 l 1,19,-1
 1895 1408 l 1,20,-1
 1454 1422 l 1,21,-1
 1382 854 l 1,22,-1
 1819 861 l 1,23,-1
 1807 705 l 1,24,-1
 1370 721 l 1,25,-1
 1287 116 l 1,26,-1
 1844 140 l 1,27,-1
 1963 347 l 1,28,-1
 2067 316 l 1,29,-1
 1978 0 l 1,30,-1
 1076 0 l 1,31,-1
 1108 262 l 1,32,33
 915.727 -20 915.727 -20 598.5 -20 c 0,0,1
327.5 456 m 0,34,35
 385.786 99.9829 385.786 99.9829 649.346 99.9829 c 0,36,37
 745.436 99.9829 745.436 99.9829 828.718 156.991 c 0,38,39
 999.054 273.59 999.054 273.59 1068 558.5 c 0,40,41
 1099.24 687.608 1099.24 687.608 1099.24 837.404 c 0,42,43
 1099.24 1288.11 1099.24 1288.11 910.5 1389.5 c 0,44,45
 850 1422 850 1422 778 1422 c 128,-1,46
 706 1422 706 1422 645.5 1397 c 128,-1,47
 585 1372 585 1372 533 1326 c 128,-1,48
 481 1280 481 1280 438 1215.5 c 0,49,50
 352.711 1087.57 352.711 1087.57 320 900.5 c 0,51,52
 305.778 819.167 305.778 819.167 305.778 770.083 c 0,53,54
 305.778 588.682 305.778 588.682 327.5 456 c 0,34,35
EndSplineSet
EndChar

StartChar: lozenge
Encoding: 9674 9674 224
Width: 1364
Flags: HW
LayerCount: 2
Fore
SplineSet
162 691 m 1,0,-1
 162 745 l 1,1,-1
 588 1436 l 1,2,-1
 775 1436 l 1,3,-1
 1201 745 l 1,4,-1
 1201 691 l 1,5,-1
 775 0 l 1,6,-1
 588 0 l 1,7,-1
 162 691 l 1,0,-1
1013 718 m 1,8,-1
 681 1286 l 1,9,-1
 349 718 l 1,10,-1
 681 150 l 1,11,-1
 1013 718 l 1,8,-1
EndSplineSet
EndChar

StartChar: Aring
Encoding: 197 197 239
Width: 1342
Flags: HW
LayerCount: 2
Fore
SplineSet
683 1484 m 1,0,1
 527.148 1533.59 527.148 1533.59 527.148 1696.46 c 0,2,3
 527.148 1855.14 527.148 1855.14 655.5 1938.5 c 0,4,5
 750.19 2000 750.19 2000 877 2000 c 0,6,7
 1017.96 2000 1017.96 2000 1090.5 1929.5 c 0,8,9
 1152.18 1869.56 1152.18 1869.56 1152.18 1772.32 c 0,10,11
 1152.18 1648.18 1152.18 1648.18 1069.5 1565.5 c 0,12,13
 1007.33 1503.33 1007.33 1503.33 914 1480 c 1,14,-1
 1158 118 l 1,15,-1
 1314 86 l 1,16,-1
 1307 0 l 1,17,-1
 799 0 l 1,18,-1
 804 86 l 1,19,-1
 960 115 l 1,20,-1
 910 436 l 1,21,-1
 338 436 l 1,22,-1
 188 116 l 1,23,-1
 347 86 l 1,24,-1
 341 0 l 1,25,-1
 -130 0 l 1,26,-1
 -121 86 l 1,27,-1
 -3 115 l 1,28,-1
 683 1484 l 1,0,1
939.337 1580.95 m 0,29,30
 1011.23 1640.86 1011.23 1640.86 1011.23 1752.05 c 0,31,32
 1011.23 1857.79 1011.23 1857.79 926.5 1898 c 0,33,34
 897 1912 897 1912 860 1912 c 128,-1,35
 823 1912 823 1912 790.5 1903 c 128,-1,36
 758 1894 758 1894 733 1873.5 c 0,37,38
 668.857 1820.9 668.857 1820.9 668.857 1718.65 c 0,39,40
 668.857 1655.82 668.857 1655.82 711.237 1604.36 c 128,-1,41
 753.616 1552.89 753.616 1552.89 829.645 1552.89 c 128,-1,42
 905.674 1552.89 905.674 1552.89 939.337 1580.95 c 0,29,30
892 557 m 1,43,-1
 786 1246 l 1,44,-1
 775 1364 l 1,45,-1
 395 557 l 1,46,-1
 892 557 l 1,43,-1
EndSplineSet
EndChar

StartChar: hyphen
Encoding: 45 45 245
Width: 1266
Flags: HW
LayerCount: 2
Fore
SplineSet
250 851 m 1,0,-1
 1087 851 l 1,1,-1
 1069 693 l 1,2,-1
 232 693 l 1,3,-1
 250 851 l 1,0,-1
EndSplineSet
EndChar

StartChar: dotlessj
Encoding: 567 567 248
Width: 647
Flags: HW
LayerCount: 2
Fore
SplineSet
-174 -400 m 1,0,1
 -146 -412 -146 -412 -88.5 -412 c 128,-1,2
 -31 -412 -31 -412 20 -371.5 c 128,-1,3
 71 -331 71 -331 105 -264 c 0,4,5
 164.464 -146.82 164.464 -146.82 188 65 c 2,6,-1
 286 980 l 1,7,-1
 130 1031 l 1,8,-1
 148 1112 l 1,9,-1
 459 1163 l 1,10,-1
 507 1139 l 1,11,-1
 377 0 l 2,12,13
 347.898 -248.336 347.898 -248.336 224.5 -386.5 c 0,14,15
 107.053 -518 107.053 -518 -69 -518 c 0,16,17
 -174.056 -518 -174.056 -518 -209 -481 c 1,18,-1
 -174 -400 l 1,0,1
EndSplineSet
EndChar

StartChar: currency
Encoding: 164 164 249
Width: 1540
Flags: HW
LayerCount: 2
Fore
SplineSet
782 252 m 128,-1,1
 646.971 252 646.971 252 540 324 c 1,2,-1
 346 130 l 1,3,-1
 232 243 l 1,4,-1
 424 435 l 1,5,6
 342 548.538 342 548.538 342 688.427 c 128,-1,7
 342 828.316 342 828.316 422 942 c 1,8,-1
 229 1135 l 1,9,-1
 342 1249 l 1,10,-1
 536 1053 l 1,11,12
 649.571 1128 649.571 1128 786.233 1128 c 128,-1,13
 922.895 1128 922.895 1128 1038 1047 c 1,14,-1
 1228 1236 l 1,15,-1
 1341 1122 l 1,16,-1
 1150 931 l 1,17,18
 1222 820.882 1222 820.882 1222 688.122 c 128,-1,19
 1222 555.361 1222 555.361 1145 442 c 1,20,-1
 1339 248 l 1,21,-1
 1225 135 l 1,22,-1
 1031 328 l 1,23,0
 917 252 917 252 782 252 c 128,-1,1
490 690 m 256,24,25
 490 564.329 490 564.329 575.5 474.5 c 0,26,27
 660.687 385 660.687 385 782 385 c 256,28,29
 903.313 385 903.313 385 988.5 474.5 c 0,30,31
 1074 564.329 1074 564.329 1074 690 c 256,32,33
 1074 815.671 1074 815.671 988.5 905.5 c 0,34,35
 903.313 995 903.313 995 782 995 c 256,36,37
 660.687 995 660.687 995 575.5 905.5 c 0,38,39
 490 815.671 490 815.671 490 690 c 256,24,25
EndSplineSet
EndChar

StartChar: brokenbar
Encoding: 166 166 250
Width: 854
Flags: HW
LayerCount: 2
Fore
SplineSet
360 1780 m 1,0,-1
 533 1780 l 1,1,-1
 533 886 l 1,2,-1
 360 886 l 1,3,-1
 360 1780 l 1,0,-1
360 708 m 1,4,-1
 533 708 l 1,5,-1
 533 -186 l 1,6,-1
 360 -186 l 1,7,-1
 360 708 l 1,4,-1
EndSplineSet
EndChar

StartChar: Eth
Encoding: 208 208 251
Width: 1427
Flags: HW
LayerCount: 2
Fore
SplineSet
28 88 m 1,0,-1
 176 118 l 1,1,-1
 252 722 l 1,2,-1
 102 722 l 1,3,-1
 118 852 l 1,4,-1
 268 852 l 1,5,-1
 338 1408 l 1,6,-1
 205 1431 l 1,7,-1
 217 1532 l 1,8,-1
 513 1532 l 1,9,10
 579 1533 579 1533 644 1540.5 c 128,-1,11
 709 1548 709 1548 779 1548 c 0,12,13
 1070.87 1548 1070.87 1548 1217.5 1375 c 0,14,15
 1356.15 1211.41 1356.15 1211.41 1356.15 903.751 c 0,16,17
 1356.15 512.665 1356.15 512.665 1145.5 252 c 0,18,19
 1004.15 77.0934 1004.15 77.0934 796.5 14.5 c 0,20,21
 701.087 -14.2609 701.087 -14.2609 595.253 -14.2609 c 0,22,23
 567.783 -14.2609 567.783 -14.2609 551.391 -13.1304 c 2,24,-1
 489 -9 l 2,25,26
 474 -8 474 -8 459.5 -7 c 128,-1,27
 445 -6 445 -6 420 -4 c 128,-1,28
 395 -2 395 -2 367 -1 c 2,29,-1
 312 1 l 2,30,31
 285 2 285 2 264 2 c 2,32,-1
 19 2 l 1,33,-1
 28 88 l 1,0,-1
376 134 m 1,34,35
 425.323 116.065 425.323 116.065 514.161 109.532 c 128,-1,36
 603 103 603 103 627 103 c 1,37,38
 808.05 116.202 808.05 116.202 935 241 c 0,39,40
 1153.08 455.384 1153.08 455.384 1153.08 892.96 c 0,41,42
 1153.08 1187.2 1153.08 1187.2 1048 1313.5 c 0,43,44
 949.408 1432 949.408 1432 720 1432 c 0,45,46
 606.25 1432 606.25 1432 535 1413 c 1,47,-1
 465 852 l 1,48,-1
 857 852 l 1,49,-1
 841 722 l 1,50,-1
 449 722 l 1,51,-1
 376 134 l 1,34,35
EndSplineSet
EndChar

StartChar: multiply
Encoding: 215 215 252
Width: 1370
Flags: HW
LayerCount: 2
Fore
SplineSet
231 438 m 1,0,-1
 614 765 l 1,1,-1
 313 1092 l 1,2,-1
 445 1215 l 1,3,-1
 726 865 l 1,4,-1
 1095 1215 l 1,5,-1
 1197 1092 l 1,6,-1
 814 765 l 1,7,-1
 1115 438 l 1,8,-1
 983 315 l 1,9,-1
 702 665 l 1,10,-1
 333 315 l 1,11,-1
 231 438 l 1,0,-1
EndSplineSet
EndChar

StartChar: Thorn
Encoding: 222 222 253
Width: 1233
Flags: HW
LayerCount: 2
Fore
SplineSet
587 310 m 0,0,1
 463 310 463 310 409 314 c 1,2,-1
 385 116 l 1,3,-1
 559 87 l 1,4,-1
 551 0 l 1,5,-1
 30 0 l 1,6,-1
 39 86 l 1,7,-1
 187 116 l 1,8,-1
 348 1406 l 1,9,-1
 215 1429 l 1,10,-1
 227 1530 l 1,11,-1
 710 1530 l 1,12,-1
 699 1429 l 1,13,-1
 546 1406 l 1,14,-1
 519 1195 l 1,15,16
 614.4 1213 614.4 1213 737 1213 c 0,17,18
 963 1213 963 1213 1077.5 1113.5 c 128,-1,19
 1192 1014 1192 1014 1192 829 c 0,20,21
 1192 595.545 1192 595.545 1013.5 449.5 c 0,22,23
 843 310 843 310 587 310 c 0,0,1
424 433 m 1,24,25
 493.143 422 493.143 422 591.071 422 c 128,-1,26
 689 422 689 422 767 450 c 0,27,28
 995.039 531.86 995.039 531.86 995.039 778.977 c 0,29,30
 995.039 948.472 995.039 948.472 931 1018 c 0,31,32
 861 1094 861 1094 684 1094 c 0,33,34
 594.25 1094 594.25 1094 504 1075 c 1,35,-1
 424 433 l 1,24,25
EndSplineSet
EndChar

StartChar: eth
Encoding: 240 240 254
Width: 1176
Flags: HW
LayerCount: 2
Fore
SplineSet
782 1513 m 1,0,1
 1085 1245.54 1085 1245.54 1085 822 c 0,2,3
 1085 461.026 1085 461.026 931 228 c 0,4,5
 767.104 -20 767.104 -20 482 -20 c 0,6,7
 292.667 -20 292.667 -20 183 121 c 0,8,9
 86 245.714 86 245.714 86 423 c 0,10,11
 86 733.143 86 733.143 258.5 927 c 0,12,13
 421.339 1110 421.339 1110 642 1110 c 0,14,15
 761 1110 761 1110 838.5 1048 c 0,16,17
 866 1026 866 1026 885 995 c 1,18,19
 847.054 1151.25 847.054 1151.25 819.027 1211.12 c 0,20,21
 768.599 1318.86 768.599 1318.86 681 1399 c 1,22,-1
 531 1231 l 1,23,-1
 431 1319 l 1,24,-1
 583 1482 l 1,25,26
 434.655 1593.26 434.655 1593.26 341 1615 c 1,27,-1
 384 1734 l 1,28,29
 502.382 1706.38 502.382 1706.38 681 1589 c 1,30,31
 756.612 1675.09 756.612 1675.09 782.806 1707.05 c 2,32,33
 835 1771 l 1,34,-1
 932 1680 l 1,35,-1
 782 1513 l 1,0,1
297 411 m 256,36,37
 297 273.692 297 273.692 350 184 c 0,38,39
 406.727 88 406.727 88 507 88 c 0,40,41
 632.44 88 632.44 88 730 223.5 c 0,42,43
 852.065 393.034 852.065 393.034 873 728 c 0,44,45
 873.167 730.833 873.167 730.833 873.167 740.125 c 128,-1,46
 873.167 749.417 873.167 749.417 868.583 773.708 c 128,-1,47
 864 798 864 798 852.5 828 c 128,-1,48
 841 858 841 858 822.5 888.5 c 128,-1,49
 804 919 804 919 777.5 943 c 0,50,51
 716.771 998 716.771 998 646.385 998 c 128,-1,52
 576 998 576 998 527.5 973 c 128,-1,53
 479 948 479 948 441.5 904.5 c 128,-1,54
 404 861 404 861 376.5 803 c 128,-1,55
 349 745 349 745 331.5 680 c 0,56,57
 297 551.857 297 551.857 297 411 c 256,36,37
EndSplineSet
EndChar

StartChar: thorn
Encoding: 254 254 255
Width: 1165
Flags: HW
LayerCount: 2
Fore
SplineSet
627 14 m 0,0,1
 540 -20 540 -20 456.188 -20 c 128,-1,2
 372.375 -20 372.375 -20 298 -3 c 1,3,-1
 281 -140 l 1,4,-1
 221 -520 l 1,5,-1
 31 -520 l 1,6,-1
 102 -20 l 1,7,-1
 300 1482 l 1,8,-1
 205 1525 l 1,9,-1
 235 1611 l 1,10,-1
 466 1650 l 1,11,-1
 517 1623 l 1,12,-1
 433 998 l 1,13,14
 519.064 1109.17 519.064 1109.17 642.5 1148 c 0,15,16
 687 1162 687 1162 755.5 1162 c 128,-1,17
 824 1162 824 1162 888 1129.5 c 128,-1,18
 952 1097 952 1097 994 1039.5 c 0,19,20
 1077 925.869 1077 925.869 1077 730 c 0,21,22
 1077 473.578 1077 473.578 909.5 240 c 0,23,24
 794.327 79.3923 794.327 79.3923 627 14 c 0,0,1
318 143 m 1,25,26
 370.5 101 370.5 101 455.25 101 c 128,-1,27
 540 101 540 101 597 129.5 c 128,-1,28
 654 158 654 158 698.5 206.5 c 128,-1,29
 743 255 743 255 775.5 317.5 c 128,-1,30
 808 380 808 380 829.5 448.5 c 0,31,32
 872 583.907 872 583.907 872 723.453 c 128,-1,33
 872 863 872 863 827 941.5 c 128,-1,34
 782 1020 782 1020 704 1020 c 0,35,36
 619.875 1020 619.875 1020 530.5 955 c 0,37,38
 456.63 901.276 456.63 901.276 410 829 c 1,39,-1
 318 143 l 1,25,26
EndSplineSet
EndChar

StartChar: Lslash
Encoding: 321 321 257
Width: 1167
Flags: HW
LayerCount: 2
Fore
SplineSet
29 89 m 1,0,-1
 177 118 l 1,1,-1
 231 550 l 1,2,-1
 71 483 l 1,3,-1
 35 601 l 1,4,-1
 249 693 l 1,5,-1
 338 1408 l 1,6,-1
 205 1431 l 1,7,-1
 217 1532 l 1,8,-1
 735 1532 l 1,9,-1
 724 1431 l 1,10,-1
 536 1408 l 1,11,-1
 458 783 l 1,12,-1
 860 957 l 1,13,-1
 895 830 l 1,14,-1
 440 638 l 1,15,-1
 375 118 l 1,16,-1
 843 129 l 1,17,-1
 979 456 l 1,18,-1
 1096 433 l 1,19,-1
 1000 2 l 1,20,-1
 21 2 l 1,21,-1
 29 89 l 1,0,-1
EndSplineSet
EndChar

StartChar: Eogonek
Encoding: 280 280 258
Width: 1219
Flags: HW
LayerCount: 2
Fore
SplineSet
1005 -322 m 1,0,1
 894.412 -416 894.412 -416 755 -416 c 0,2,3
 680.359 -416 680.359 -416 637 -371.5 c 0,4,5
 599.779 -333.3 599.779 -333.3 601.89 -290.65 c 0,6,7
 606.256 -202.413 606.256 -202.413 636.628 -163.707 c 128,-1,8
 667 -125 667 -125 691.5 -102 c 128,-1,9
 716 -79 716 -79 741 -61 c 128,-1,10
 766 -43 766 -43 791 -28.5 c 2,11,-1
 840 0 l 1,12,-1
 18 0 l 1,13,-1
 28 86 l 1,14,-1
 177 115 l 1,15,-1
 337 1406 l 1,16,-1
 204 1429 l 1,17,-1
 216 1530 l 1,18,-1
 1143 1530 l 1,19,-1
 1136 1220 l 1,20,-1
 1030 1220 l 1,21,-1
 982 1408 l 1,22,-1
 541 1422 l 1,23,-1
 469 854 l 1,24,-1
 916 861 l 1,25,-1
 904 705 l 1,26,-1
 457 721 l 1,27,-1
 374 116 l 1,28,-1
 925 140 l 1,29,-1
 1044 347 l 1,30,-1
 1148 316 l 1,31,-1
 1059 0 l 1,32,-1
 956 0 l 1,33,34
 888 -55 888 -55 842.5 -104.5 c 128,-1,35
 797 -154 797 -154 796 -201 c 1,36,37
 790.776 -263.684 790.776 -263.684 830.5 -282.5 c 0,38,39
 840 -287 840 -287 849 -287 c 0,40,41
 903.909 -287 903.909 -287 979 -228 c 1,42,-1
 1005 -322 l 1,0,1
EndSplineSet
EndChar

StartChar: onesuperior
Encoding: 185 185 260
Width: 1020
Flags: HW
LayerCount: 2
Fore
SplineSet
253 724 m 1,0,-1
 489 750 l 1,1,-1
 575 1395 l 1,2,-1
 314 1343 l 1,3,-1
 308 1446 l 1,4,5
 372.688 1465.41 372.688 1465.41 436.344 1494.2 c 0,6,7
 669.208 1602.85 669.208 1602.85 724 1645 c 1,8,-1
 793 1624 l 1,9,-1
 674 750 l 1,10,-1
 909 723 l 1,11,-1
 898 636 l 1,12,-1
 242 636 l 1,13,-1
 253 724 l 1,0,-1
EndSplineSet
EndChar

StartChar: twosuperior
Encoding: 178 178 261
Width: 1163
Flags: HW
LayerCount: 2
Fore
SplineSet
339 1356 m 1,0,-1
 269 1450 l 1,1,2
 321.527 1518.51 321.527 1518.51 440.5 1577.5 c 0,3,4
 580.77 1647.05 580.77 1647.05 727.409 1647.05 c 0,5,6
 874.828 1647.05 874.828 1647.05 960.5 1572.5 c 0,7,8
 1036 1506.81 1036 1506.81 1036 1414.4 c 128,-1,9
 1036 1322 1036 1322 989 1236 c 128,-1,10
 942 1150 942 1150 862.5 1069.5 c 0,11,12
 739.641 945.095 739.641 945.095 458 763 c 1,13,-1
 910 788 l 1,14,-1
 995 923 l 1,15,-1
 1098 894 l 1,16,-1
 1013 637 l 1,17,-1
 235 637 l 1,18,-1
 190 733 l 1,19,-1
 295 794 l 1,20,21
 552.57 946.932 552.57 946.932 704 1107.5 c 0,22,23
 834 1245.34 834 1245.34 834 1353 c 0,24,25
 834 1494 834 1494 653.5 1494 c 128,-1,26
 473 1494 473 1494 339 1356 c 1,0,-1
EndSplineSet
EndChar

StartChar: threesuperior
Encoding: 179 179 264
Width: 1071
Flags: HW
LayerCount: 2
Fore
SplineSet
290 1520 m 1,0,1
 467.733 1644 467.733 1644 699 1644 c 0,2,3
 839.085 1644 839.085 1644 915.5 1580.5 c 0,4,5
 984.056 1523.53 984.056 1523.53 984.056 1432.88 c 0,6,7
 984.056 1233.27 984.056 1233.27 721 1134 c 1,8,9
 861.13 1134 861.13 1134 924.5 1054.5 c 0,10,11
 971.091 996.05 971.091 996.05 971.091 910.409 c 0,12,13
 971.091 794.405 971.091 794.405 888.5 700.5 c 0,14,15
 781.911 579.309 781.911 579.309 583 544.5 c 0,16,17
 523 534 523 534 480.5 534 c 128,-1,18
 438 534 438 534 402 538.5 c 128,-1,19
 366 543 366 543 327.5 552 c 0,20,21
 238.469 572.812 238.469 572.812 185 606 c 1,22,-1
 202 714 l 1,23,24
 307.923 663 307.923 663 443 663 c 0,25,26
 557.333 663 557.333 663 651.5 719.5 c 0,27,28
 764.286 787.171 764.286 787.171 764.286 906.112 c 0,29,30
 764.286 1004.62 764.286 1004.62 662.5 1035 c 0,31,32
 629 1045 629 1045 589 1046 c 1,33,-1
 385 1001 l 1,34,-1
 406 1126 l 1,35,36
 629.607 1168.19 629.607 1168.19 725.5 1286.5 c 0,37,38
 773.01 1345.12 773.01 1345.12 773.01 1416.37 c 0,39,40
 773.01 1512.14 773.01 1512.14 625.802 1512.14 c 0,41,42
 514.026 1512.14 514.026 1512.14 393.5 1456 c 0,43,44
 357 1439 357 1439 326 1418 c 1,45,-1
 290 1520 l 1,0,1
EndSplineSet
EndChar

StartChar: grave.cap
Encoding: 65537 -1 265
Width: 522
Flags: HW
LayerCount: 2
Fore
SplineSet
390 1613 m 1,0,1
 301.643 1644.91 301.643 1644.91 225.821 1694.45 c 0,2,3
 80.9821 1789.1 80.9821 1789.1 50 1862 c 1,4,-1
 183 2000 l 1,5,-1
 446 1658 l 1,6,-1
 390 1613 l 1,0,1
EndSplineSet
EndChar

StartChar: dieresis.cap
Encoding: 65538 -1 266
Width: 806
Flags: HW
LayerCount: 2
Fore
SplineSet
475 1804.5 m 128,-1,1
 475 1844 475 1844 489 1870 c 128,-1,2
 503 1896 503 1896 524 1916 c 0,3,4
 569.15 1959 569.15 1959 609.075 1959 c 128,-1,5
 649 1959 649 1959 672 1949.5 c 0,6,7
 742.111 1920.54 742.111 1920.54 742.111 1848.3 c 0,8,9
 742.111 1786.49 742.111 1786.49 695 1740.5 c 0,10,11
 649.415 1696 649.415 1696 607.707 1696 c 0,12,13
 544 1696 544 1696 509.5 1730.5 c 128,-1,0
 475 1765 475 1765 475 1804.5 c 128,-1,1
65.5 1769.5 m 0,14,15
 57.8947 1788.74 57.8947 1788.74 57.8947 1800.61 c 128,-1,16
 57.8947 1812.47 57.8947 1812.47 58.4474 1828.24 c 128,-1,17
 59 1844 59 1844 72.5 1870 c 128,-1,18
 86 1896 86 1896 106.5 1916 c 0,19,20
 150.575 1959 150.575 1959 190.288 1959 c 128,-1,21
 230 1959 230 1959 253 1949.5 c 0,22,23
 323.105 1920.54 323.105 1920.54 323.105 1848.02 c 0,24,25
 323.105 1787.46 323.105 1787.46 275 1740.5 c 0,26,27
 229.415 1696 229.415 1696 188.207 1696 c 0,28,29
 94.5581 1696 94.5581 1696 65.5 1769.5 c 0,14,15
EndSplineSet
EndChar

StartChar: commaaccent
Encoding: 63171 63171 267
Width: 367
Flags: HW
LayerCount: 2
Fore
SplineSet
155 -51 m 1,0,1
 220.372 -64.4589 220.372 -64.4589 258.5 -132 c 0,2,3
 288.391 -184.95 288.391 -184.95 288.391 -248.686 c 0,4,5
 288.391 -366.531 288.391 -366.531 195.5 -467.5 c 0,6,7
 125.27 -543.837 125.27 -543.837 56 -560 c 1,8,-1
 16 -520 l 1,9,-1
 19 -494 l 1,10,11
 57 -465 57 -465 74.5 -431 c 128,-1,12
 92 -397 92 -397 95.5 -361 c 128,-1,13
 99 -325 99 -325 94 -306 c 128,-1,14
 89 -287 89 -287 79 -270 c 0,15,16
 55.9422 -230.802 55.9422 -230.802 25 -225 c 1,17,-1
 31 -171 l 1,18,-1
 155 -51 l 1,0,1
EndSplineSet
EndChar

StartChar: acute.cap
Encoding: 65539 -1 268
Width: 527
Flags: HW
LayerCount: 2
Fore
SplineSet
77 1658 m 1,0,-1
 353 2000 l 1,1,-1
 477 1862 l 1,2,3
 441.615 1787.69 441.615 1787.69 320 1709 c 0,4,5
 224.217 1647.02 224.217 1647.02 130 1613 c 1,6,-1
 77 1658 l 1,0,-1
EndSplineSet
EndChar

StartChar: circumflex.cap
Encoding: 65540 -1 269
Width: 794
Flags: HW
LayerCount: 2
Fore
SplineSet
50 1672 m 1,0,-1
 355 2000 l 1,1,-1
 532 2000 l 1,2,-1
 744 1672 l 1,3,-1
 676 1613 l 1,4,-1
 435 1842 l 1,5,-1
 111 1614 l 1,6,-1
 50 1672 l 1,0,-1
EndSplineSet
EndChar

StartChar: caron.cap
Encoding: 65541 -1 270
Width: 792
Flags: HW
LayerCount: 2
Fore
SplineSet
70 1942 m 1,0,-1
 135 2000 l 1,1,-1
 383 1765 l 1,2,-1
 700 2000 l 1,3,-1
 762 1943 l 1,4,-1
 467 1614 l 1,5,-1
 292 1614 l 1,6,-1
 70 1942 l 1,0,-1
EndSplineSet
EndChar

StartChar: breve.cap
Encoding: 65542 -1 271
Width: 715
Flags: HW
LayerCount: 2
Fore
SplineSet
466.5 1656 m 128,-1,1
 411 1628 411 1628 344.5 1628 c 128,-1,2
 278 1628 278 1628 224 1657.5 c 128,-1,3
 170 1687 170 1687 133.5 1734.5 c 0,4,5
 59 1831.45 59 1831.45 59 1960 c 2,6,-1
 59 1969.5 l 2,7,8
 59 1974 59 1974 60 1979 c 1,9,-1
 165 1979 l 1,10,11
 166 1972 166 1972 166.5 1964 c 128,-1,12
 167 1956 167 1956 171 1939 c 128,-1,13
 175 1922 175 1922 186.5 1892 c 128,-1,14
 198 1862 198 1862 219.5 1836 c 0,15,16
 269.942 1775 269.942 1775 338.971 1775 c 128,-1,17
 408 1775 408 1775 446.5 1798.5 c 128,-1,18
 485 1822 485 1822 510.5 1854.5 c 0,19,20
 541.985 1894.63 541.985 1894.63 575 1979 c 1,21,-1
 677 1979 l 1,22,23
 677 1910 677 1910 643 1842 c 128,-1,24
 609 1774 609 1774 565.5 1729 c 128,-1,0
 522 1684 522 1684 466.5 1656 c 128,-1,1
EndSplineSet
EndChar

StartChar: dotaccent.cap
Encoding: 65543 -1 272
Width: 389
Flags: HW
LayerCount: 2
Fore
SplineSet
130.5 1700.5 m 0,0,1
 60.8947 1731.26 60.8947 1731.26 60.8947 1804.98 c 0,2,3
 60.8947 1864.23 60.8947 1864.23 110 1911 c 0,4,5
 155.15 1954 155.15 1954 194.075 1954 c 128,-1,6
 233 1954 233 1954 256.5 1944.5 c 0,7,8
 328.105 1915.55 328.105 1915.55 328.105 1843.02 c 0,9,10
 328.105 1782.46 328.105 1782.46 280 1735.5 c 0,11,12
 234.415 1691 234.415 1691 193.207 1691 c 128,-1,13
 152 1691 152 1691 130.5 1700.5 c 0,0,1
EndSplineSet
EndChar

StartChar: ring.cap
Encoding: 65544 -1 273
Width: 722
Flags: HW
LayerCount: 2
Fore
SplineSet
332.5 1467 m 0,0,1
 265 1467 265 1467 209.5 1486.5 c 0,2,3
 60.1556 1538.97 60.1556 1538.97 60.1556 1697.43 c 0,4,5
 60.1556 1855.14 60.1556 1855.14 188.5 1938.5 c 0,6,7
 283.19 2000 283.19 2000 410 2000 c 0,8,9
 550.957 2000 550.957 2000 623.5 1929.5 c 0,10,11
 685.178 1869.56 685.178 1869.56 685.178 1772.32 c 0,12,13
 685.178 1617.78 685.178 1617.78 563 1532 c 0,14,15
 470.424 1467 470.424 1467 332.5 1467 c 0,0,1
472.337 1580.95 m 0,16,17
 544.231 1640.86 544.231 1640.86 544.231 1752.05 c 0,18,19
 544.231 1857.79 544.231 1857.79 459.5 1898 c 0,20,21
 430 1912 430 1912 393 1912 c 128,-1,22
 356 1912 356 1912 323.5 1903 c 128,-1,23
 291 1894 291 1894 266 1873.5 c 0,24,25
 201.857 1820.9 201.857 1820.9 201.857 1718.65 c 0,26,27
 201.857 1655.82 201.857 1655.82 244.237 1604.36 c 128,-1,28
 286.616 1552.89 286.616 1552.89 362.645 1552.89 c 128,-1,29
 438.674 1552.89 438.674 1552.89 472.337 1580.95 c 0,16,17
EndSplineSet
EndChar

StartChar: tilde.cap
Encoding: 65545 -1 274
Width: 813
Flags: HW
LayerCount: 2
Fore
SplineSet
50 1801 m 1,0,1
 104.901 1910.8 104.901 1910.8 220.5 1955.5 c 0,2,3
 258 1970 258 1970 294 1970 c 128,-1,4
 330 1970 330 1970 355.5 1959.5 c 128,-1,5
 381 1949 381 1949 402 1933.5 c 128,-1,6
 423 1918 423 1918 441 1900 c 128,-1,7
 459 1882 459 1882 476.5 1866.5 c 0,8,9
 517.71 1830 517.71 1830 549.855 1830 c 128,-1,10
 582 1830 582 1830 604 1840.5 c 128,-1,11
 626 1851 626 1851 644.5 1867 c 128,-1,12
 663 1883 663 1883 678.5 1902.5 c 2,13,-1
 708 1940 l 1,14,-1
 766 1849 l 1,15,16
 724.235 1726.92 724.235 1726.92 597.5 1682 c 0,17,18
 558 1668 558 1668 516 1668 c 128,-1,19
 474 1668 474 1668 446 1678 c 128,-1,20
 418 1688 418 1688 397 1703.5 c 128,-1,21
 376 1719 376 1719 360 1737 c 128,-1,22
 344 1755 344 1755 327.5 1770.5 c 0,23,24
 268.38 1826.04 268.38 1826.04 207.5 1799.5 c 0,25,26
 151.023 1774.88 151.023 1774.88 97 1717 c 1,27,-1
 50 1801 l 1,0,1
EndSplineSet
EndChar

StartChar: hungarumlaut.cap
Encoding: 65546 -1 275
Width: 922
Flags: HW
LayerCount: 2
Fore
SplineSet
475 1625 m 1,0,-1
 787 2000 l 1,1,-1
 922 1881 l 1,2,3
 871.061 1794.8 871.061 1794.8 746 1701 c 0,4,5
 622.683 1608.51 622.683 1608.51 529 1580 c 1,6,-1
 475 1625 l 1,0,-1
60 1625 m 1,7,-1
 372 2000 l 1,8,-1
 505 1882 l 1,9,10
 470.594 1802.32 470.594 1802.32 333 1701.5 c 0,11,12
 209.718 1611.16 209.718 1611.16 114 1580 c 1,13,-1
 60 1625 l 1,7,-1
EndSplineSet
EndChar

StartChar: aogonek
Encoding: 261 261 276
Width: 1173
Flags: HW
LayerCount: 2
Fore
SplineSet
718 136 m 1,0,1
 588 -20 588 -20 413 -20 c 0,2,3
 251.348 -20 251.348 -20 164 102.5 c 0,4,5
 83 216.098 83 216.098 83 412 c 0,6,7
 83 573.16 83 573.16 159.5 743.5 c 0,8,9
 288.042 1029.72 288.042 1029.72 540 1128.5 c 0,10,11
 628 1163 628 1163 726 1163 c 128,-1,12
 824 1163 824 1163 929 1128 c 1,13,-1
 1048 1162 l 1,14,-1
 917 187 l 2,15,16
 912 146 912 146 923.5 128.5 c 128,-1,17
 935 111 935 111 956.25 111 c 128,-1,18
 977.5 111 977.5 111 1035 157 c 1,19,-1
 1066 104 l 1,20,21
 1048.55 72.5817 1048.55 72.5817 992 33 c 1,22,-1
 915 -30 l 1,23,24
 793.586 -131.178 793.586 -131.178 791 -201 c 1,25,26
 785.776 -263.684 785.776 -263.684 825.5 -282.5 c 0,27,28
 835 -287 835 -287 844 -287 c 0,29,30
 898.909 -287 898.909 -287 974 -228 c 1,31,-1
 1000 -322 l 1,32,33
 889.412 -416 889.412 -416 750 -416 c 0,34,35
 675.359 -416 675.359 -416 632 -371.5 c 0,36,37
 594.779 -333.3 594.779 -333.3 596.89 -290.65 c 0,38,39
 601.256 -202.413 601.256 -202.413 639.628 -152.707 c 0,40,41
 696.549 -78.9721 696.549 -78.9721 805 -17 c 1,42,43
 715.667 -0.75758 715.667 -0.75758 715.667 101.809 c 0,44,45
 715.667 108.222 715.667 108.222 716 115 c 2,46,-1
 718 136 l 1,0,1
832 1008 m 1,47,48
 785.105 1041 785.105 1041 707.053 1041 c 128,-1,49
 629 1041 629 1041 570.5 1013 c 128,-1,50
 512 985 512 985 466 938 c 128,-1,51
 420 891 420 891 386.5 829.5 c 128,-1,52
 353 768 353 768 331 701 c 0,53,54
 288 570.045 288 570.045 288 466.523 c 128,-1,55
 288 363 288 363 299 304.5 c 128,-1,56
 310 246 310 246 331 205.5 c 0,57,58
 374.296 122 374.296 122 450 122 c 0,59,60
 577.635 122 577.635 122 688.5 236.5 c 0,61,62
 719 268 719 268 740 298 c 1,63,-1
 832 1008 l 1,47,48
EndSplineSet
EndChar

StartChar: eogonek
Encoding: 281 281 278
Width: 1051
Flags: HW
LayerCount: 2
Fore
SplineSet
610 -3 m 1,0,1
 548.375 -20 548.375 -20 464.188 -20 c 128,-1,2
 380 -20 380 -20 303.5 18 c 0,3,4
 153.916 92.3033 153.916 92.3033 106.5 263 c 0,5,6
 85.8367 337.388 85.8367 337.388 85.8367 380.184 c 128,-1,7
 85.8367 422.98 85.8367 422.98 87.4184 473.49 c 128,-1,8
 89 524 89 524 110.5 615 c 128,-1,9
 132 706 132 706 170 787.5 c 128,-1,10
 208 869 208 869 260.5 938 c 128,-1,11
 313 1007 313 1007 378 1057 c 0,12,13
 515.8 1163 515.8 1163 676 1163 c 0,14,15
 884.231 1163 884.231 1163 942.5 1011.5 c 0,16,17
 960 966 960 966 960 901 c 128,-1,18
 960 836 960 836 924 772.5 c 128,-1,19
 888 709 888 709 830 659 c 128,-1,20
 772 609 772 609 699 572.5 c 128,-1,21
 626 536 626 536 552 511.5 c 0,22,23
 403.416 462.307 403.416 462.307 295 460 c 1,24,25
 293 438.667 293 438.667 293 420.833 c 128,-1,26
 293 403 293 403 294 378 c 128,-1,27
 295 353 295 353 304 315 c 128,-1,28
 313 277 313 277 329 241.5 c 128,-1,29
 345 206 345 206 370 179 c 0,30,31
 425.556 119 425.556 119 510 119 c 0,32,33
 693.05 119 693.05 119 850 265 c 1,34,-1
 896 182 l 1,35,36
 858.222 132.417 858.222 132.417 799 88 c 1,37,38
 655.68 -33.8216 655.68 -33.8216 593.5 -141.5 c 0,39,40
 549.188 -218.235 549.188 -218.235 589 -268 c 0,41,42
 604.2 -287 604.2 -287 625 -287 c 0,43,44
 679.909 -287 679.909 -287 755 -228 c 1,45,-1
 781 -322 l 1,46,47
 670.412 -416 670.412 -416 531 -416 c 0,48,49
 456.359 -416 456.359 -416 413 -371.5 c 0,50,51
 375.779 -333.3 375.779 -333.3 377.89 -290.65 c 0,52,53
 382.256 -202.414 382.256 -202.414 412.128 -164.207 c 128,-1,54
 442 -126 442 -126 466 -103 c 128,-1,55
 490 -80 490 -80 514 -62.5 c 128,-1,56
 538 -45 538 -45 562 -31 c 128,-1,57
 586 -17 586 -17 610 -3 c 1,0,1
300 570 m 1,58,59
 446.23 577.133 446.23 577.133 588.5 659.5 c 0,60,61
 689.21 717.806 689.21 717.806 732.5 801.5 c 0,62,63
 755 845 755 845 755 910 c 128,-1,64
 755 975 755 975 720 1010.5 c 128,-1,65
 685 1046 685 1046 631.5 1046 c 128,-1,66
 578 1046 578 1046 535 1022.5 c 128,-1,67
 492 999 492 999 457.5 960 c 128,-1,68
 423 921 423 921 395.5 871 c 128,-1,69
 368 821 368 821 348.5 768 c 0,70,71
 311.647 667.836 311.647 667.836 300 570 c 1,58,59
EndSplineSet
EndChar

StartChar: lslash
Encoding: 322 322 280
Width: 606
Flags: HW
LayerCount: 2
Fore
SplineSet
359 111 m 0,0,1
 396.286 111 396.286 111 467 177 c 1,2,-1
 498 125 l 1,3,4
 478.261 88.8124 478.261 88.8124 430.631 52.9062 c 0,5,6
 333.918 -20 333.918 -20 265.459 -20 c 128,-1,7
 197 -20 197 -20 169.5 11 c 128,-1,8
 142 42 142 42 142 115 c 0,9,10
 142 154 142 154 148 192 c 2,11,-1
 229 760 l 1,12,-1
 85 704 l 1,13,-1
 85 841 l 1,14,-1
 250 908 l 1,15,-1
 332 1482 l 1,16,-1
 209 1525 l 1,17,-1
 230 1608 l 1,18,-1
 492 1650 l 1,19,-1
 540 1623 l 1,20,-1
 451 991 l 1,21,-1
 619 1060 l 1,22,-1
 619 913 l 1,23,-1
 429 839 l 1,24,-1
 338 187 l 2,25,26
 327.444 111 327.444 111 359 111 c 0,0,1
EndSplineSet
EndChar

StartChar: Aogonek
Encoding: 260 260 287
Width: 1342
Flags: HW
LayerCount: 2
Fore
SplineSet
1172 -322 m 1,0,1
 1061.41 -416 1061.41 -416 922 -416 c 0,2,3
 847.359 -416 847.359 -416 804 -371.5 c 0,4,5
 766.779 -333.3 766.779 -333.3 768.89 -290.65 c 0,6,7
 773.256 -202.413 773.256 -202.413 803.628 -163.707 c 128,-1,8
 834 -125 834 -125 858.5 -102 c 128,-1,9
 883 -79 883 -79 908 -61 c 128,-1,10
 933 -43 933 -43 958 -28.5 c 2,11,-1
 1007 0 l 1,12,-1
 799 0 l 1,13,-1
 804 86 l 1,14,-1
 960 115 l 1,15,-1
 910 436 l 1,16,-1
 338 436 l 1,17,-1
 188 116 l 1,18,-1
 347 86 l 1,19,-1
 341 0 l 1,20,-1
 -130 0 l 1,21,-1
 -121 86 l 1,22,-1
 -3 115 l 1,23,-1
 706 1530 l 1,24,-1
 905 1530 l 1,25,-1
 1158 118 l 1,26,-1
 1314 86 l 1,27,-1
 1307 0 l 1,28,-1
 1123 0 l 1,29,30
 1055 -55 1055 -55 1009.5 -104.5 c 128,-1,31
 964 -154 964 -154 963 -201 c 1,32,33
 957.776 -263.684 957.776 -263.684 997.5 -282.5 c 0,34,35
 1007 -287 1007 -287 1016 -287 c 0,36,37
 1070.91 -287 1070.91 -287 1146 -228 c 1,38,-1
 1172 -322 l 1,0,1
892 557 m 1,39,-1
 786 1246 l 1,40,-1
 775 1364 l 1,41,-1
 395 557 l 1,42,-1
 892 557 l 1,39,-1
EndSplineSet
EndChar

StartChar: caronvertical
Encoding: 65547 -1 290
Width: 315
Flags: HW
LayerCount: 2
Fore
SplineSet
393 1680 m 1,0,1
 425.571 1644.92 425.571 1644.92 425.571 1531.91 c 0,2,3
 425.571 1308.87 425.571 1308.87 313 1117.5 c 0,4,5
 288 1075 288 1075 263 1045 c 1,6,-1
 203 1075 l 1,7,-1
 197 1100 l 1,8,9
 265.196 1386.42 265.196 1386.42 243 1508.5 c 0,10,11
 232.145 1568.2 232.145 1568.2 217 1592 c 1,12,-1
 236 1634 l 1,13,-1
 393 1680 l 1,0,1
EndSplineSet
EndChar

StartChar: kgreenlandic
Encoding: 312 312 298
Width: 1070
Flags: HW
LayerCount: 2
Fore
SplineSet
264 982 m 1,0,-1
 148 1025 l 1,1,-1
 169 1109 l 1,2,-1
 428 1151 l 1,3,-1
 479 1124 l 1,4,-1
 330 0 l 1,5,-1
 138 0 l 1,6,-1
 264 982 l 1,0,-1
877 134.5 m 128,-1,8
 906 106 906 106 925.556 106 c 128,-1,9
 945.111 106 945.111 106 1000 125 c 1,10,-1
 1030 79 l 1,11,12
 986.979 18.0532 986.979 18.0532 881 -10 c 0,13,14
 847 -19 847 -19 809 -19 c 0,15,16
 722.5 -19 722.5 -19 669 88 c 2,17,-1
 421 582 l 1,18,-1
 862 1130 l 1,19,-1
 1093 1130 l 1,20,-1
 604 584 l 1,21,-1
 823 206 l 2,22,7
 848 163 848 163 877 134.5 c 128,-1,8
EndSplineSet
EndChar

StartChar: scedilla
Encoding: 351 351 300
Width: 885
Flags: HW
LayerCount: 2
Fore
SplineSet
447 -10 m 1,0,1
 457.846 -50.9744 457.846 -50.9744 457.846 -98.7564 c 128,-1,2
 457.846 -146.538 457.846 -146.538 451.423 -207.769 c 128,-1,3
 445 -269 445 -269 423 -323.5 c 128,-1,4
 401 -378 401 -378 366.5 -409 c 0,5,6
 305.29 -464 305.29 -464 186 -464 c 0,7,8
 85.3333 -464 85.3333 -464 48 -436 c 1,9,-1
 83 -305 l 1,10,11
 109 -319 109 -319 147 -319 c 128,-1,12
 185 -319 185 -319 213 -308.5 c 128,-1,13
 241 -298 241 -298 263.5 -274.5 c 0,14,15
 327 -208.178 327 -208.178 327 -46.1111 c 0,16,17
 327 -31.3333 327 -31.3333 326 -20 c 1,18,19
 189.99 -16.9089 189.99 -16.9089 90.5 18 c 0,20,21
 62 28 62 28 50 39 c 1,22,-1
 86 190 l 1,23,24
 154.47 142.927 154.47 142.927 267.5 122.5 c 0,25,26
 309 115 309 115 347.5 115 c 128,-1,27
 386 115 386 115 421 119 c 128,-1,28
 456 123 456 123 485.5 137.5 c 0,29,30
 553 170.678 553 170.678 553 259 c 0,31,32
 553 362.238 553 362.238 441.5 452.5 c 0,33,34
 410 478 410 478 380.5 499.5 c 128,-1,35
 351 521 351 521 315 553.5 c 128,-1,36
 279 586 279 586 246.5 629 c 0,37,38
 168 732.862 168 732.862 168 823.431 c 128,-1,39
 168 914 168 914 199.5 974 c 128,-1,40
 231 1034 231 1034 284.5 1076 c 0,41,42
 395.321 1163 395.321 1163 553 1163 c 0,43,44
 670.615 1163 670.615 1163 733.808 1147.5 c 128,-1,45
 797 1132 797 1132 809 1126 c 1,46,-1
 771 959 l 1,47,48
 745.456 997.317 745.456 997.317 631 1024.5 c 0,49,50
 591 1034 591 1034 551.5 1034 c 128,-1,51
 512 1034 512 1034 481 1028 c 128,-1,52
 450 1022 450 1022 424.5 1006.5 c 0,53,54
 356.529 965.185 356.529 965.185 356.529 876.405 c 0,55,56
 356.529 765.811 356.529 765.811 516 645 c 0,57,58
 618.265 566.335 618.265 566.335 658.632 514.167 c 0,59,60
 740 409.015 740 409.015 740 297 c 0,61,62
 740 111.579 740 111.579 561.5 26.5 c 0,63,64
 508 1 508 1 447 -10 c 1,0,1
EndSplineSet
Substitution2: "'locl' Localized Forms lookup 7 subtable" uni0219
Substitution2: "'locl' Localized Forms lookup 6 subtable" uni0219
Substitution2: "'aalt' Access All Alternates in Latin lookup 0 subtable" uni0219
EndChar

StartChar: estimated
Encoding: 8494 8494 304
Width: 1372
Flags: HW
LayerCount: 2
Fore
SplineSet
1280 832 m 1,0,1
 1280 683.25 1280 683.25 1269 631 c 1,2,-1
 375 631 l 1,3,-1
 375 280 l 1,4,5
 485.98 101 485.98 101 760 101 c 0,6,7
 933 101 933 101 1121 195 c 1,8,-1
 1160 82 l 1,9,10
 1064.72 13.515 1064.72 13.515 850.5 -9.5 c 0,11,12
 790 -16 790 -16 738 -16 c 0,13,14
 445.503 -16 445.503 -16 279.5 166.5 c 0,15,16
 115 347.348 115 347.348 115 671 c 0,17,18
 115 976 115 976 271 1158 c 0,19,20
 440.806 1356.11 440.806 1356.11 753.486 1356.11 c 0,21,22
 967.812 1356.11 967.812 1356.11 1115 1219 c 0,23,24
 1272.18 1072.59 1272.18 1072.59 1280 832 c 1,0,1
1036 1109 m 1,25,26
 942.586 1238 942.586 1238 715.426 1238 c 128,-1,27
 488.265 1238 488.265 1238 375 1053 c 1,28,-1
 375 768 l 1,29,-1
 1036 768 l 1,30,-1
 1036 1109 l 1,25,26
EndSplineSet
EndChar

StartChar: afii61352
Encoding: 8470 8470 305
Width: 2496
Flags: HW
LayerCount: 2
Fore
SplineSet
1575.16 983.976 m 128,-1,1
 1575.16 1157.2 1575.16 1157.2 1632.58 1261.6 c 128,-1,2
 1690 1366 1690 1366 1758.5 1423 c 0,3,4
 1890.69 1533 1890.69 1533 2060 1533 c 0,5,6
 2254.65 1533 2254.65 1533 2355.5 1402 c 0,7,8
 2437.84 1295.04 2437.84 1295.04 2437.84 1123.9 c 0,9,10
 2437.84 953.105 2437.84 953.105 2380.42 847.052 c 128,-1,11
 2323 741 2323 741 2254.5 683 c 0,12,13
 2122.22 571 2122.22 571 1954 571 c 0,14,15
 1760.24 571 1760.24 571 1658 703.5 c 0,16,0
 1575.16 810.856 1575.16 810.856 1575.16 983.976 c 128,-1,1
34 85 m 1,17,-1
 180 113 l 1,18,-1
 328 1401 l 1,19,-1
 172 1424 l 1,20,-1
 180 1522 l 1,21,-1
 586 1522 l 1,22,-1
 996 493 l 1,23,-1
 1097 205 l 1,24,-1
 1225 1401 l 1,25,-1
 1068 1424 l 1,26,-1
 1076 1522 l 1,27,-1
 1554 1522 l 1,28,-1
 1546 1424 l 1,29,-1
 1385 1401 l 1,30,-1
 1233 0 l 1,31,-1
 998 0 l 1,32,-1
 602 999 l 1,33,-1
 472 1294 l 1,34,-1
 348 114 l 1,35,-1
 525 85 l 1,36,-1
 519 0 l 1,37,-1
 28 0 l 1,38,-1
 34 85 l 1,17,-1
2043.65 1430.03 m 0,39,40
 1806.09 1430.03 1806.09 1430.03 1776 1069 c 0,41,42
 1772.34 1028.77 1772.34 1028.77 1772.34 988.2 c 128,-1,43
 1772.34 947.629 1772.34 947.629 1779.67 891.314 c 0,44,45
 1796.68 760.584 1796.68 760.584 1878.5 702 c 0,46,47
 1917.65 673.967 1917.65 673.967 1969.42 673.967 c 0,48,49
 2205.75 673.967 2205.75 673.967 2236 1037 c 0,50,51
 2239.66 1077.23 2239.66 1077.23 2239.66 1117.8 c 128,-1,52
 2239.66 1158.37 2239.66 1158.37 2232.33 1214.69 c 0,53,54
 2215.29 1345.65 2215.29 1345.65 2134.5 1402.5 c 0,55,56
 2095.37 1430.03 2095.37 1430.03 2043.65 1430.03 c 0,39,40
1529 148 m 1,57,-1
 2302 148 l 1,58,-1
 2290 0 l 1,59,-1
 1517 0 l 1,60,-1
 1529 148 l 1,57,-1
EndSplineSet
EndChar

StartChar: minute
Encoding: 8242 8242 306
Width: 623
Flags: HW
LayerCount: 2
Fore
SplineSet
384 1782 m 1,0,-1
 589 1782 l 1,1,-1
 433 1190 l 1,2,-1
 295 1190 l 1,3,-1
 384 1782 l 1,0,-1
EndSplineSet
EndChar

StartChar: quotereversed
Encoding: 8219 8219 308
Width: 682
Flags: HW
LayerCount: 2
Fore
SplineSet
465 936 m 1,0,1
 371.131 980.801 371.131 980.801 309 1075 c 0,2,3
 242 1176.58 242 1176.58 242 1298 c 0,4,5
 242 1437.99 242 1437.99 328 1556.5 c 0,6,7
 416.761 1678.82 416.761 1678.82 556 1720 c 1,8,-1
 644 1570 l 1,9,-1
 633 1529 l 1,10,11
 548.448 1517.97 548.448 1517.97 488 1418 c 0,12,13
 434 1328.69 434 1328.69 434 1234 c 0,14,15
 434 1120.08 434 1120.08 495.5 1057 c 0,16,17
 515 1037 515 1037 539 1028 c 1,18,-1
 533 1006 l 1,19,-1
 465 936 l 1,0,1
EndSplineSet
EndChar

StartChar: gcommaaccent
Encoding: 291 291 322
Width: 1153
Flags: HW
LayerCount: 2
Fore
SplineSet
701 1296 m 1,0,1
 635.628 1309.46 635.628 1309.46 597.5 1377 c 0,2,3
 567.609 1429.95 567.609 1429.95 567.609 1493.69 c 0,4,5
 567.609 1611.53 567.609 1611.53 660.5 1712.5 c 0,6,7
 730.73 1788.84 730.73 1788.84 800 1805 c 1,8,-1
 840 1765 l 1,9,-1
 837 1739 l 1,10,11
 799 1710 799 1710 781.5 1676 c 128,-1,12
 764 1642 764 1642 760.5 1606 c 128,-1,13
 757 1570 757 1570 762 1551 c 128,-1,14
 767 1532 767 1532 777 1515 c 0,15,16
 800.058 1475.8 800.058 1475.8 831 1470 c 1,17,-1
 825 1416 l 1,18,-1
 701 1296 l 1,0,1
540 1128.5 m 0,19,20
 628 1163 628 1163 732.875 1163 c 128,-1,21
 837.75 1163 837.75 1163 948 1121 c 1,22,-1
 1068 1163 l 1,23,-1
 875 -77 l 2,24,25
 841.785 -295.666 841.785 -295.666 662 -411 c 0,26,27
 510.794 -508 510.794 -508 338 -508 c 0,28,29
 206.5 -508 206.5 -508 119 -473 c 1,30,-1
 169 -288 l 1,31,32
 299.2 -350 299.2 -350 436 -350 c 0,33,34
 563.152 -350 563.152 -350 607.5 -310 c 0,35,36
 650.667 -271.065 650.667 -271.065 671 -145 c 2,37,-1
 716 133 l 1,38,39
 629.819 29.5829 629.819 29.5829 506 -7 c 0,40,41
 462 -20 462 -20 395.5 -20 c 128,-1,42
 329 -20 329 -20 267 12.5 c 128,-1,43
 205 45 205 45 164 102.5 c 0,44,45
 83 216.098 83 216.098 83 412 c 0,46,47
 83 573.16 83 573.16 159.5 743.5 c 0,48,49
 288.042 1029.72 288.042 1029.72 540 1128.5 c 0,19,20
843 1000 m 1,50,51
 791.304 1041 791.304 1041 710.152 1041 c 128,-1,52
 629 1041 629 1041 570.5 1012.5 c 128,-1,53
 512 984 512 984 466 935.5 c 128,-1,54
 420 887 420 887 386.5 824.5 c 128,-1,55
 353 762 353 762 331 693.5 c 0,56,57
 288 559.614 288 559.614 288 419.307 c 128,-1,58
 288 279 288 279 330.5 200.5 c 128,-1,59
 373 122 373 122 446 122 c 0,60,61
 570 122 570 122 688 240 c 0,62,63
 720 272 720 272 742 302 c 1,64,-1
 843 1000 l 1,50,51
EndSplineSet
EndChar

StartChar: macron.cap
Encoding: 65548 -1 346
Width: 614
Flags: HW
LayerCount: 2
Fore
SplineSet
54 1878 m 1,0,-1
 564 1878 l 1,1,-1
 559 1729 l 1,2,-1
 50 1729 l 1,3,-1
 54 1878 l 1,0,-1
EndSplineSet
EndChar

StartChar: hcircumflex
Encoding: 293 293 403
Width: 1239
Flags: HW
LayerCount: 2
Fore
SplineSet
890 -20 m 0,0,1
 759.722 -20 759.722 -20 767 111 c 0,2,3
 771.917 197.042 771.917 197.042 790.458 299.021 c 128,-1,4
 809 401 809 401 816.5 444 c 128,-1,5
 824 487 824 487 834 538.5 c 128,-1,6
 844 590 844 590 852.5 643.5 c 0,7,8
 872 766.235 872 766.235 872 835.118 c 128,-1,9
 872 904 872 904 863 935 c 128,-1,10
 854 966 854 966 838 981.5 c 0,11,12
 813.742 1005 813.742 1005 766.371 1005 c 128,-1,13
 719 1005 719 1005 674 985.5 c 128,-1,14
 629 966 629 966 583.5 931.5 c 0,15,16
 487.47 858.686 487.47 858.686 413 750 c 1,17,-1
 313 0 l 1,18,-1
 119 0 l 1,19,-1
 312 1482 l 1,20,-1
 194 1525 l 1,21,-1
 211 1608 l 1,22,-1
 477 1650 l 1,23,-1
 529 1623 l 1,24,-1
 521 1566 l 1,25,-1
 735 1796 l 1,26,-1
 912 1796 l 1,27,-1
 1124 1468 l 1,28,-1
 1056 1409 l 1,29,-1
 815 1638 l 1,30,-1
 501 1417 l 1,31,-1
 434 911 l 1,32,33
 566.398 1087.53 566.398 1087.53 730 1143.5 c 0,34,35
 787 1163 787 1163 842.5 1163 c 128,-1,36
 898 1163 898 1163 939.5 1147.5 c 128,-1,37
 981 1132 981 1132 1010.5 1096.5 c 0,38,39
 1072 1022.49 1072 1022.49 1072 861 c 0,40,41
 1072 771.556 1072 771.556 1050.5 659.278 c 2,42,-1
 1021 505 l 1,43,-1
 995 346 l 2,44,45
 968.091 176.264 968.091 176.264 975.545 143.132 c 128,-1,46
 983 110 983 110 997 110 c 0,47,48
 1031.53 110 1031.53 110 1104 166 c 1,49,-1
 1135 114 l 1,50,51
 1113.77 78.6155 1113.77 78.6155 1066.38 46.3077 c 0,52,53
 969.133 -20 969.133 -20 890 -20 c 0,0,1
EndSplineSet
EndChar

StartChar: Scedilla
Encoding: 350 350 414
Width: 1094
Flags: HW
LayerCount: 2
Fore
SplineSet
523 -20 m 1,0,1
 532.167 -57.8126 532.167 -57.8126 532.167 -101.823 c 128,-1,2
 532.167 -145.833 532.167 -145.833 525.583 -207.417 c 128,-1,3
 519 -269 519 -269 497 -323.5 c 128,-1,4
 475 -378 475 -378 440.5 -409 c 0,5,6
 379.29 -464 379.29 -464 260 -464 c 0,7,8
 159.333 -464 159.333 -464 122 -436 c 1,9,-1
 157 -305 l 1,10,11
 183 -319 183 -319 221 -319 c 128,-1,12
 259 -319 259 -319 287 -308.5 c 128,-1,13
 315 -298 315 -298 337.5 -274.5 c 0,14,15
 401 -208.178 401 -208.178 401 -47.4444 c 0,16,17
 401 -32.6667 401 -32.6667 400 -21 c 1,18,19
 217.797 -8.85311 217.797 -8.85311 105 39 c 0,20,21
 72 53 72 53 56 65 c 1,22,-1
 97 343 l 1,23,-1
 213 343 l 1,24,-1
 239 150 l 1,25,26
 321.857 92 321.857 92 467 92 c 0,27,28
 580.15 92 580.15 92 668.5 149 c 0,29,30
 783.419 223.141 783.419 223.141 783.419 358.79 c 0,31,32
 783.419 504.436 783.419 504.436 634 616.5 c 0,33,34
 588 651 588 651 532 686 c 128,-1,35
 476 721 476 721 415.5 764 c 128,-1,36
 355 807 355 807 307 859.5 c 0,37,38
 195.9 981.016 195.9 981.016 195.9 1132.85 c 0,39,40
 195.9 1319.25 195.9 1319.25 336 1436 c 0,41,42
 472.8 1550 472.8 1550 675 1550 c 0,43,44
 910.5 1550 910.5 1550 1038 1465 c 1,45,-1
 992 1203 l 1,46,-1
 886 1203 l 1,47,-1
 858 1382 l 1,48,49
 788.455 1433 788.455 1433 658 1433 c 0,50,51
 486.659 1433 486.659 1433 421 1313.5 c 0,52,53
 392.609 1261.83 392.609 1261.83 392.609 1195.69 c 128,-1,54
 392.609 1129.54 392.609 1129.54 411.304 1083.27 c 128,-1,55
 430 1037 430 1037 466 995.5 c 0,56,57
 524.351 928.234 524.351 928.234 617.175 870.117 c 1,58,-1
 768.5 772.5 l 1,59,60
 981.029 628.997 981.029 628.997 981.029 430.219 c 0,61,62
 981.029 237.808 981.029 237.808 853.5 116.5 c 0,63,64
 727.171 -3.6663 727.171 -3.6663 523 -20 c 1,0,1
EndSplineSet
Substitution2: "'locl' Localized Forms lookup 7 subtable" uni0218
Substitution2: "'locl' Localized Forms lookup 6 subtable" uni0218
Substitution2: "'aalt' Access All Alternates in Latin lookup 0 subtable" uni0218
EndChar

StartChar: uni0162
Encoding: 354 354 417
Width: 1225
Flags: HW
LayerCount: 2
Fore
SplineSet
588 0 m 1,0,1
 602.235 -44 602.235 -44 602.235 -95.4412 c 128,-1,2
 602.235 -146.882 602.235 -146.882 595.618 -207.941 c 128,-1,3
 589 -269 589 -269 567 -323.5 c 128,-1,4
 545 -378 545 -378 510.5 -409 c 0,5,6
 449.29 -464 449.29 -464 330 -464 c 0,7,8
 229.333 -464 229.333 -464 192 -436 c 1,9,-1
 227 -305 l 1,10,11
 253 -319 253 -319 291 -319 c 128,-1,12
 329 -319 329 -319 357 -308.5 c 128,-1,13
 385 -298 385 -298 407.5 -274.5 c 0,14,15
 471 -208.178 471 -208.178 471 -48 c 0,16,17
 471 -20 471 -20 468 0 c 1,18,-1
 191 0 l 1,19,-1
 200 93 l 1,20,-1
 444 116 l 1,21,-1
 609 1423 l 1,22,-1
 290 1396 l 1,23,-1
 197 1066 l 1,24,-1
 83 1064 l 1,25,-1
 160 1530 l 1,26,-1
 1298 1530 l 1,27,-1
 1232 1064 l 1,28,-1
 1124 1064 l 1,29,-1
 1132 1397 l 1,30,-1
 808 1423 l 1,31,-1
 642 116 l 1,32,-1
 890 93 l 1,33,-1
 883 0 l 1,34,-1
 588 0 l 1,0,1
EndSplineSet
Substitution2: "'locl' Localized Forms lookup 7 subtable" uni021A
Substitution2: "'aalt' Access All Alternates in Latin lookup 0 subtable" uni021A
EndChar

StartChar: uni0163
Encoding: 355 355 418
Width: 735
Flags: HW
LayerCount: 2
Fore
SplineSet
378 -15 m 1,0,1
 388.167 -53.4074 388.167 -53.4074 388.167 -99.2037 c 128,-1,2
 388.167 -145 388.167 -145 381.583 -207 c 128,-1,3
 375 -269 375 -269 353 -323.5 c 128,-1,4
 331 -378 331 -378 296.5 -409 c 0,5,6
 235.29 -464 235.29 -464 116 -464 c 0,7,8
 15.3333 -464 15.3333 -464 -22 -436 c 1,9,-1
 13 -305 l 1,10,11
 39 -319 39 -319 77 -319 c 128,-1,12
 115 -319 115 -319 143 -308.5 c 128,-1,13
 171 -298 171 -298 193.5 -274.5 c 0,14,15
 257 -208.178 257 -208.178 257 -55 c 0,16,17
 257 -29 257 -29 255 -9 c 1,18,19
 150 22.2766 150 22.2766 150 159 c 2,20,-1
 150 170.5 l 2,21,22
 150 200.8 150 200.8 162 292 c 2,23,-1
 253 1016 l 1,24,-1
 133 1016 l 1,25,-1
 153 1103 l 1,26,-1
 276 1150 l 1,27,28
 333.32 1218.07 333.32 1218.07 409 1416 c 1,29,-1
 504 1416 l 1,30,-1
 470 1155 l 1,31,-1
 732 1155 l 1,32,-1
 712 1016 l 1,33,-1
 453 1016 l 1,34,-1
 370 390 l 2,35,36
 353 268.875 353 268.875 353 226.438 c 128,-1,37
 353 184 353 184 356.5 166 c 128,-1,38
 360 148 360 148 369 137.5 c 0,39,40
 384.857 119 384.857 119 420.429 119 c 128,-1,41
 456 119 456 119 483 127.5 c 128,-1,42
 510 136 510 136 537 149 c 0,43,44
 592.862 175.897 592.862 175.897 629 203 c 1,45,-1
 647 125 l 1,46,47
 596.891 58.1883 596.891 58.1883 458.5 6.5 c 0,48,49
 417 -9 417 -9 378 -15 c 1,0,1
EndSplineSet
Substitution2: "'locl' Localized Forms lookup 7 subtable" uni021B
Substitution2: "'aalt' Access All Alternates in Latin lookup 0 subtable" uni021B
EndChar

StartChar: lacute
Encoding: 314 314 421
Width: 606
Flags: HW
LayerCount: 2
Fore
SplineSet
257 -20 m 0,0,1
 141.719 -20 141.719 -20 141.719 101.682 c 0,2,3
 141.719 108.156 141.719 108.156 142 115 c 2,4,-1
 148 192 l 1,5,-1
 314 1355 l 1,6,-1
 191 1398 l 1,7,-1
 212 1481 l 1,8,-1
 474 1523 l 1,9,-1
 522 1496 l 1,10,-1
 338 187 l 1,11,12
 333.778 111 333.778 111 358.212 111 c 128,-1,13
 382.647 111 382.647 111 427 137 c 1,14,-1
 458 85 l 1,15,16
 415.403 28.2042 415.403 28.2042 328 -6.5 c 0,17,18
 294 -20 294 -20 257 -20 c 0,0,1
383 1658 m 1,19,-1
 659 2000 l 1,20,-1
 783 1862 l 1,21,22
 747.615 1787.69 747.615 1787.69 626 1709 c 0,23,24
 530.217 1647.02 530.217 1647.02 436 1613 c 1,25,-1
 383 1658 l 1,19,-1
EndSplineSet
EndChar

StartChar: iogonek
Encoding: 303 303 422
Width: 641
Flags: HW
LayerCount: 2
Fore
SplineSet
434.5 1388 m 0,0,1
 408 1388 408 1388 386.5 1397.5 c 128,-1,2
 365 1407 365 1407 349 1423.5 c 0,3,4
 314.943 1458.62 314.943 1458.62 316.471 1497.81 c 128,-1,5
 318 1537 318 1537 331.5 1563 c 128,-1,6
 345 1589 345 1589 366 1608.5 c 0,7,8
 411.769 1651 411.769 1651 450.885 1651 c 128,-1,9
 490 1651 490 1651 513 1641.5 c 0,10,11
 583.111 1612.54 583.111 1612.54 583.111 1541.09 c 0,12,13
 583.111 1480.11 583.111 1480.11 535.5 1432.5 c 0,14,15
 491 1388 491 1388 434.5 1388 c 0,0,1
439 -322 m 1,16,17
 328.412 -416 328.412 -416 189 -416 c 0,18,19
 114.359 -416 114.359 -416 71 -371.5 c 0,20,21
 35.8947 -335.471 35.8947 -335.471 35.8947 -285.053 c 0,22,23
 35.8947 -207.922 35.8947 -207.922 76.9474 -154.961 c 0,24,25
 136.686 -77.8939 136.686 -77.8939 245 -16 c 1,26,27
 162.091 -0.207793 162.091 -0.207793 162.091 91.1736 c 0,28,29
 162.091 160.436 162.091 160.436 194.545 367.218 c 2,30,-1
 288 980 l 1,31,-1
 140 1031 l 1,32,-1
 158 1112 l 1,33,-1
 460 1163 l 1,34,-1
 509 1139 l 1,35,-1
 370 187 l 2,36,37
 367.25 168 367.25 168 367.25 153.75 c 0,38,39
 367.25 111 367.25 111 392 111 c 0,40,41
 428.65 111 428.65 111 499 178 c 1,42,-1
 531 125 l 1,43,44
 485.944 61.9213 485.944 61.9213 415 20 c 1,45,-1
 343.5 -39 l 1,46,47
 232.536 -135.058 232.536 -135.058 230 -201 c 1,48,49
 224.776 -263.684 224.776 -263.684 264.5 -282.5 c 0,50,51
 274 -287 274 -287 283 -287 c 0,52,53
 337.909 -287 337.909 -287 413 -228 c 1,54,-1
 439 -322 l 1,16,17
EndSplineSet
EndChar

StartChar: uogonek
Encoding: 371 371 423
Width: 1207
Flags: HW
LayerCount: 2
Fore
SplineSet
750 120 m 1,0,1
 610 -20 610 -20 420 -20 c 0,2,3
 231.906 -20 231.906 -20 183 124 c 0,4,5
 165 177 165 177 165 232.5 c 128,-1,6
 165 288 165 288 168 329 c 128,-1,7
 171 370 171 370 176.5 414.5 c 2,8,-1
 250 963 l 1,9,-1
 152 1022 l 1,10,-1
 170 1111 l 1,11,-1
 412 1163 l 1,12,-1
 460 1139 l 1,13,-1
 370.5 430 l 2,14,15
 361 354 361 354 361 294 c 128,-1,16
 361 234 361 234 371 201 c 128,-1,17
 381 168 381 168 400 149.5 c 0,18,19
 433.378 117 433.378 117 485.689 117 c 128,-1,20
 538 117 538 117 573.5 127.5 c 128,-1,21
 609 138 609 138 642.5 156 c 0,22,23
 708.798 191.623 708.798 191.623 761 246 c 1,24,-1
 881 1155 l 1,25,-1
 1074 1155 l 1,26,-1
 949 189 l 2,27,28
 946.619 170.905 946.619 170.905 946.619 157.118 c 0,29,30
 946.619 113 946.619 113 971 113 c 0,31,32
 1005.1 113 1005.1 113 1077 180 c 1,33,-1
 1108 127 l 1,34,35
 1082.08 85.5264 1082.08 85.5264 1033.54 51.2632 c 128,-1,36
 985 17 985 17 956 4 c 1,37,38
 886 -52 886 -52 839 -102.5 c 128,-1,39
 792 -153 792 -153 791 -201 c 1,40,41
 785.776 -263.684 785.776 -263.684 825.5 -282.5 c 0,42,43
 835 -287 835 -287 844 -287 c 0,44,45
 898.909 -287 898.909 -287 974 -228 c 1,46,-1
 1000 -322 l 1,47,48
 889.412 -416 889.412 -416 750 -416 c 0,49,50
 675.359 -416 675.359 -416 632 -371.5 c 0,51,52
 594.779 -333.3 594.779 -333.3 596.89 -290.65 c 0,53,54
 601.256 -202.413 601.256 -202.413 630.128 -165.207 c 128,-1,55
 659 -128 659 -128 681 -106.5 c 128,-1,56
 703 -85 703 -85 725.5 -68 c 128,-1,57
 748 -51 748 -51 770.5 -37.5 c 2,58,-1
 815 -11 l 1,59,60
 747.44 9.78769 747.44 9.78769 747.44 89.1008 c 0,61,62
 747.44 103.68 747.44 103.68 750 120 c 1,0,1
EndSplineSet
EndChar

StartChar: Iogonek
Encoding: 302 302 425
Width: 706
Flags: HW
LayerCount: 2
Fore
SplineSet
393 -322 m 1,0,1
 282.412 -416 282.412 -416 143 -416 c 0,2,3
 68.359 -416 68.359 -416 25 -371.5 c 0,4,5
 -10.1053 -335.471 -10.1053 -335.471 -10.1053 -285.053 c 0,6,7
 -10.1053 -207.922 -10.1053 -207.922 22.4474 -166.461 c 128,-1,8
 55 -125 55 -125 79.5 -102 c 128,-1,9
 104 -79 104 -79 129 -61 c 128,-1,10
 154 -43 154 -43 179 -28.5 c 2,11,-1
 228 0 l 1,12,-1
 30 0 l 1,13,-1
 39 86 l 1,14,-1
 187 116 l 1,15,-1
 348 1406 l 1,16,-1
 215 1429 l 1,17,-1
 227 1530 l 1,18,-1
 710 1530 l 1,19,-1
 699 1429 l 1,20,-1
 546 1406 l 1,21,-1
 385 116 l 1,22,-1
 542 87 l 1,23,-1
 534 0 l 1,24,-1
 344 0 l 1,25,26
 276 -55 276 -55 230.5 -104.5 c 128,-1,27
 185 -154 185 -154 184 -201 c 1,28,29
 178.776 -263.684 178.776 -263.684 218.5 -282.5 c 0,30,31
 228 -287 228 -287 237 -287 c 0,32,33
 291.909 -287 291.909 -287 367 -228 c 1,34,-1
 393 -322 l 1,0,1
EndSplineSet
EndChar

StartChar: Uogonek
Encoding: 370 370 426
Width: 1379
Flags: HW
LayerCount: 2
Fore
SplineSet
622 -19 m 1,0,-1
 597 -20 l 1,1,2
 382.41 -20 382.41 -20 265 100.5 c 0,3,4
 144.667 224 144.667 224 144.667 454.167 c 0,5,6
 144.667 518 144.667 518 153 593 c 1,7,-1
 260 1407 l 1,8,-1
 127 1430 l 1,9,-1
 139 1530 l 1,10,-1
 622 1530 l 1,11,-1
 611 1430 l 1,12,-1
 460 1405 l 1,13,-1
 356 610 l 1,14,15
 344.75 506.875 344.75 506.875 344.75 467.812 c 128,-1,16
 344.75 428.75 344.75 428.75 345 418 c 0,17,18
 348 255 348 255 421.5 172.5 c 128,-1,19
 495 90 495 90 627 90 c 0,20,21
 965.859 90 965.859 90 1027 626 c 1,22,-1
 1130 1405 l 1,23,-1
 997 1429 l 1,24,-1
 1008 1530 l 1,25,-1
 1440 1530 l 1,26,-1
 1429 1429 l 1,27,-1
 1305 1407 l 1,28,-1
 1201 627 l 2,29,30
 1143.07 189.63 1143.07 189.63 912.5 54 c 0,31,32
 836 9 836 9 740 -8 c 1,33,34
 616.829 -135.908 616.829 -135.908 613 -201 c 1,35,36
 610.338 -264.896 610.338 -264.896 647.5 -282.5 c 0,37,38
 657 -287 657 -287 666 -287 c 0,39,40
 720.909 -287 720.909 -287 796 -228 c 1,41,-1
 822 -322 l 1,42,43
 711.412 -416 711.412 -416 572 -416 c 0,44,45
 497.359 -416 497.359 -416 454 -371.5 c 0,46,47
 416.779 -333.3 416.779 -333.3 418.89 -290.65 c 0,48,49
 423.256 -202.414 423.256 -202.414 461.128 -153.207 c 0,50,51
 517.209 -80.341 517.209 -80.341 622 -19 c 1,0,-1
EndSplineSet
EndChar

StartChar: Hbar
Encoding: 294 294 427
Width: 1533
Flags: HW
LayerCount: 2
Fore
SplineSet
29 86 m 1,0,-1
 177 116 l 1,1,-1
 286 992 l 1,2,-1
 92 992 l 1,3,-1
 106 1122 l 1,4,-1
 302 1122 l 1,5,-1
 338 1406 l 1,6,-1
 205 1429 l 1,7,-1
 217 1530 l 1,8,-1
 700 1530 l 1,9,-1
 689 1429 l 1,10,-1
 536 1406 l 1,11,-1
 500 1122 l 1,12,-1
 1154 1122 l 1,13,-1
 1190 1406 l 1,14,-1
 1040 1429 l 1,15,-1
 1050 1530 l 1,16,-1
 1537 1530 l 1,17,-1
 1525 1429 l 1,18,-1
 1387 1406 l 1,19,-1
 1351 1122 l 1,20,-1
 1555 1122 l 1,21,-1
 1541 992 l 1,22,-1
 1335 992 l 1,23,-1
 1227 117 l 1,24,-1
 1378 86 l 1,25,-1
 1369 0 l 1,26,-1
 859 0 l 1,27,-1
 867 87 l 1,28,-1
 1030 117 l 1,29,-1
 1092 622 l 1,30,-1
 438 622 l 1,31,-1
 375 116 l 1,32,-1
 532 87 l 1,33,-1
 524 0 l 1,34,-1
 20 0 l 1,35,-1
 29 86 l 1,0,-1
1108 752 m 1,36,-1
 1138 992 l 1,37,-1
 484 992 l 1,38,-1
 454 752 l 1,39,-1
 1108 752 l 1,36,-1
EndSplineSet
EndChar

StartChar: Tbar
Encoding: 358 358 430
Width: 1225
Flags: HW
LayerCount: 2
Fore
SplineSet
200 93 m 1,0,-1
 444 116 l 1,1,-1
 520 722 l 1,2,-1
 279 722 l 1,3,-1
 295 852 l 1,4,-1
 537 852 l 1,5,-1
 609 1423 l 1,6,-1
 290 1396 l 1,7,-1
 197 1066 l 1,8,-1
 83 1064 l 1,9,-1
 160 1530 l 1,10,-1
 1298 1530 l 1,11,-1
 1232 1064 l 1,12,-1
 1124 1064 l 1,13,-1
 1132 1397 l 1,14,-1
 808 1423 l 1,15,-1
 735 852 l 1,16,-1
 1034 852 l 1,17,-1
 1018 722 l 1,18,-1
 719 722 l 1,19,-1
 642 116 l 1,20,-1
 890 93 l 1,21,-1
 883 0 l 1,22,-1
 191 0 l 1,23,-1
 200 93 l 1,0,-1
EndSplineSet
EndChar

StartChar: tbar
Encoding: 359 359 431
Width: 735
Flags: HW
LayerCount: 2
Fore
SplineSet
333 -20 m 0,0,1
 150 -20 150 -20 150 159 c 2,2,-1
 150 170.5 l 2,3,4
 150 200.8 150 200.8 162 292 c 2,5,-1
 203 621 l 1,6,-1
 79 621 l 1,7,-1
 95 751 l 1,8,-1
 220 751 l 1,9,-1
 253 1016 l 1,10,-1
 133 1016 l 1,11,-1
 153 1103 l 1,12,-1
 276 1150 l 1,13,14
 333.32 1218.07 333.32 1218.07 409 1416 c 1,15,-1
 504 1416 l 1,16,-1
 470 1155 l 1,17,-1
 732 1155 l 1,18,-1
 712 1016 l 1,19,-1
 453 1016 l 1,20,-1
 418 751 l 1,21,-1
 677 751 l 1,22,-1
 661 621 l 1,23,-1
 400 621 l 1,24,-1
 370 390 l 1,25,26
 353 268.875 353 268.875 353 226.438 c 128,-1,27
 353 184 353 184 356.5 166 c 128,-1,28
 360 148 360 148 369 137.5 c 0,29,30
 384.857 119 384.857 119 420.429 119 c 128,-1,31
 456 119 456 119 483 127.5 c 128,-1,32
 510 136 510 136 537 149 c 0,33,34
 592.862 175.897 592.862 175.897 629 203 c 1,35,-1
 647 125 l 1,36,37
 579.42 42.4018 579.42 42.4018 422.5 -5.5 c 0,38,39
 375 -20 375 -20 333 -20 c 0,0,1
EndSplineSet
EndChar

StartChar: dcroat
Encoding: 273 273 433
Width: 1179
Flags: HW
LayerCount: 2
Fore
SplineSet
844 -20 m 0,0,1
 723.739 -20 723.739 -20 723.739 102.622 c 0,2,3
 723.739 108.652 723.739 108.652 724 115 c 2,4,-1
 724 142 l 1,5,6
 636.046 32.9373 636.046 32.9373 509.5 -6 c 0,7,8
 464 -20 464 -20 396.5 -20 c 128,-1,9
 329 -20 329 -20 267 12.5 c 128,-1,10
 205 45 205 45 164 102.5 c 0,11,12
 83 216.098 83 216.098 83 412 c 0,13,14
 83 573.16 83 573.16 159.5 743.5 c 0,15,16
 288.042 1029.72 288.042 1029.72 540 1128.5 c 0,17,18
 628 1163 628 1163 710.25 1163 c 128,-1,19
 792.5 1163 792.5 1163 869 1145 c 1,20,-1
 886 1262 l 1,21,-1
 637 1262 l 1,22,-1
 653 1392 l 1,23,-1
 906 1392 l 1,24,-1
 920 1482 l 1,25,-1
 797 1525 l 1,26,-1
 818 1608 l 1,27,-1
 1082 1650 l 1,28,-1
 1135 1623 l 1,29,-1
 1101 1392 l 1,30,-1
 1235 1392 l 1,31,-1
 1219 1262 l 1,32,-1
 1082 1262 l 1,33,-1
 927 187 l 2,34,35
 916.444 111 916.444 111 946.972 111 c 128,-1,36
 977.5 111 977.5 111 1035 157 c 1,37,-1
 1066 105 l 1,38,39
 1021.09 37.6397 1021.09 37.6397 923.5 -4 c 0,40,41
 886 -20 886 -20 844 -20 c 0,0,1
846 997 m 1,42,43
 794.96 1041 794.96 1041 711.98 1041 c 128,-1,44
 629 1041 629 1041 570.5 1012.5 c 128,-1,45
 512 984 512 984 466 935.5 c 128,-1,46
 420 887 420 887 386.5 824.5 c 128,-1,47
 353 762 353 762 331 693.5 c 0,48,49
 288 559.614 288 559.614 288 419.307 c 128,-1,50
 288 279 288 279 330.5 200.5 c 128,-1,51
 373 122 373 122 446 122 c 0,52,53
 570 122 570 122 686.5 238.5 c 0,54,55
 718 270 718 270 740 300 c 1,56,-1
 846 997 l 1,42,43
EndSplineSet
EndChar

StartChar: hbar
Encoding: 295 295 434
Width: 1239
Flags: HW
LayerCount: 2
Fore
SplineSet
890 -20 m 0,0,1
 759.722 -20 759.722 -20 767 111 c 0,2,3
 771.917 197.042 771.917 197.042 790.458 299.021 c 128,-1,4
 809 401 809 401 816.5 444 c 128,-1,5
 824 487 824 487 834 538.5 c 128,-1,6
 844 590 844 590 852.5 643.5 c 0,7,8
 872 766.235 872 766.235 872 835.118 c 128,-1,9
 872 904 872 904 863 935 c 128,-1,10
 854 966 854 966 838 981.5 c 0,11,12
 813.742 1005 813.742 1005 766.371 1005 c 128,-1,13
 719 1005 719 1005 674 985.5 c 128,-1,14
 629 966 629 966 583.5 931.5 c 0,15,16
 487.47 858.686 487.47 858.686 413 750 c 1,17,-1
 313 0 l 1,18,-1
 119 0 l 1,19,-1
 283 1262 l 1,20,-1
 126 1262 l 1,21,-1
 142 1392 l 1,22,-1
 300 1392 l 1,23,-1
 312 1482 l 1,24,-1
 194 1525 l 1,25,-1
 211 1608 l 1,26,-1
 477 1650 l 1,27,-1
 529 1623 l 1,28,-1
 498 1392 l 1,29,-1
 724 1392 l 1,30,-1
 708 1262 l 1,31,-1
 481 1262 l 1,32,-1
 434 911 l 1,33,34
 566.398 1087.53 566.398 1087.53 730 1143.5 c 0,35,36
 787 1163 787 1163 842.5 1163 c 128,-1,37
 898 1163 898 1163 939.5 1147.5 c 128,-1,38
 981 1132 981 1132 1010.5 1096.5 c 0,39,40
 1072 1022.49 1072 1022.49 1072 861 c 0,41,42
 1072 771.556 1072 771.556 1050.5 659.278 c 2,43,-1
 1021 505 l 1,44,-1
 995 346 l 2,45,46
 968.091 176.264 968.091 176.264 975.545 143.132 c 128,-1,47
 983 110 983 110 997 110 c 0,48,49
 1031.53 110 1031.53 110 1104 166 c 1,50,-1
 1135 114 l 1,51,52
 1113.77 78.6155 1113.77 78.6155 1066.38 46.3077 c 0,53,54
 969.133 -20 969.133 -20 890 -20 c 0,0,1
EndSplineSet
EndChar

StartChar: eng
Encoding: 331 331 435
Width: 1262
Flags: HW
LayerCount: 2
Fore
SplineSet
426 -400 m 1,0,1
 454 -412 454 -412 511.5 -412 c 128,-1,2
 569 -412 569 -412 619 -371 c 128,-1,3
 669 -330 669 -330 703.5 -263 c 0,4,5
 772.797 -128.424 772.797 -128.424 824.5 233.5 c 1,6,-1
 845 381.5 l 1,7,8
 889.111 708.323 889.111 708.323 889.111 807.884 c 128,-1,9
 889.111 907.444 889.111 907.444 881.556 936.722 c 128,-1,10
 874 966 874 966 859 981.5 c 0,11,12
 836.258 1005 836.258 1005 786.629 1005 c 128,-1,13
 737 1005 737 1005 692.5 986 c 128,-1,14
 648 967 648 967 603 933 c 0,15,16
 508.348 861.485 508.348 861.485 432 755 c 1,17,-1
 330 0 l 1,18,-1
 135 0 l 1,19,-1
 263 943 l 1,20,-1
 271 941 l 1,21,-1
 164 1005 l 1,22,-1
 182 1094 l 1,23,-1
 424 1146 l 1,24,-1
 472 1122 l 1,25,-1
 455 926 l 1,26,27
 588.084 1089.03 588.084 1089.03 751.5 1143.5 c 0,28,29
 807 1162 807 1162 863 1162 c 0,30,31
 1089.49 1162 1089.49 1162 1089.49 887.844 c 0,32,33
 1089.49 649.582 1089.49 649.582 1019 211 c 0,34,35
 1001 99 1001 99 981 0 c 0,36,37
 876.612 -518 876.612 -518 531 -518 c 0,38,39
 425.944 -518 425.944 -518 391 -481 c 1,40,-1
 426 -400 l 1,0,1
EndSplineSet
EndChar

StartChar: Eng
Encoding: 330 330 436
Width: 1516
Flags: HW
LayerCount: 2
Fore
SplineSet
41 86 m 1,0,-1
 177 114 l 1,1,-1
 351 1406 l 1,2,-1
 199 1429 l 1,3,-1
 216 1530 l 1,4,-1
 557 1530 l 1,5,-1
 1033 418 l 1,6,-1
 1094 225 l 1,7,-1
 1229 1407 l 1,8,-1
 1089 1429 l 1,9,-1
 1101 1530 l 1,10,-1
 1548 1530 l 1,11,-1
 1538 1429 l 1,12,-1
 1392 1406 l 1,13,-1
 1194 0 l 2,14,15
 1170.61 -161.926 1170.61 -161.926 1019.5 -258.5 c 0,16,17
 902.774 -333.099 902.774 -333.099 731 -365 c 1,18,-1
 696 -277 l 1,19,20
 883.641 -212.047 883.641 -212.047 966 -94 c 0,21,22
 996 -51 996 -51 1006 0 c 1,23,-1
 528 1095 l 1,24,-1
 471 1278 l 1,25,-1
 350 116 l 1,26,-1
 504 87 l 1,27,-1
 496 0 l 1,28,-1
 33 0 l 1,29,-1
 41 86 l 1,0,-1
EndSplineSet
EndChar

StartChar: uni02c9
Encoding: 713 713 445
Width: 643
Flags: HW
LayerCount: 2
Fore
SplineSet
50 1867 m 1,0,-1
 593 1867 l 1,1,-1
 593 1743 l 1,2,-1
 50 1743 l 1,3,-1
 50 1867 l 1,0,-1
EndSplineSet
EndChar

